<?xml version="1.0" encoding="UTF-8" standalone="no"?>
<!-- Created by Syntax-Trax http://kevinpt.github.io/syntax-trax -->
<svg xmlns="http://www.w3.org/2000/svg"
xmlns:xlink="http://www.w3.org/1999/xlink"
xml:space="preserve"
width="574" height="182" version="1.1">
<style type="text/css">
<![CDATA[
.box_font {fill:#000000; text-anchor:middle;
    font-family:Times; font-size:14pt; font-weight:regular; font-style:normal;}
.literal_font {fill:#000000; text-anchor:middle;
    font-family:Times; font-size:14pt; font-weight:regular; font-style:normal;}
.title_font {fill:#000000; text-anchor:middle;
    font-family:Sans; font-size:22pt; font-weight:bold; font-style:normal;}
.bubble_font {fill:#000000; text-anchor:middle;
    font-family:Sans; font-size:14pt; font-weight:regular; font-style:normal;}
.token_font {fill:#000000; text-anchor:middle;
    font-family:Sans; font-size:16pt; font-weight:regular; font-style:normal;}
.label {fill:#000;
  text-anchor:middle;
  font-size:16pt; font-weight:bold; font-family:Sans;}
.link {fill: #0D47A1;}
.link:hover {fill: #0D47A1; text-decoration:underline;}
.link:visited {fill: #4A148C;}
]]>
</style>
<defs>
  <marker id="arrow" markerWidth="5" markerHeight="4" refX="2.5" refY="2" orient="auto" markerUnits="strokeWidth">
    <path d="M0,0 L0.5,2 L0,4 L4.5,2 z" fill="#000000" />
  </marker>
</defs>
<rect width="100%" height="100%" fill="white"/><path d="M75.0,79.0 A13.0,13.0 0 0,1 75.0,53.0 H137.0 A13.0,13.0 0 0,1 137.0,79.0 z" stroke="none" fill-opacity="0.498039215686" fill="#000000"/>
<circle cx="184.0" cy="66.0" r="15.0" stroke="none" fill-opacity="0.498039215686" fill="#000000"/>
<path d="M233.0,81.0 A15.0,15.0 0 0,1 233.0,51.0 H236.0 A15.0,15.0 0 0,1 236.0,81.0 z" stroke="none" fill-opacity="0.498039215686" fill="#000000"/>
<circle cx="285.0" cy="66.0" r="15.0" stroke="none" fill-opacity="0.498039215686" fill="#000000"/>
<path d="M103.0,115.0 A13.0,13.0 0 0,1 103.0,89.0 H139.0 A13.0,13.0 0 0,1 139.0,115.0 z" stroke="none" fill-opacity="0.498039215686" fill="#000000"/>
<path d="M103.0,147.0 A13.0,13.0 0 0,1 103.0,121.0 H133.0 A13.0,13.0 0 0,1 133.0,147.0 z" stroke="none" fill-opacity="0.498039215686" fill="#000000"/>
<path d="M103.0,179.0 A13.0,13.0 0 0,1 103.0,153.0 H139.0 A13.0,13.0 0 0,1 139.0,179.0 z" stroke="none" fill-opacity="0.498039215686" fill="#000000"/>
<circle cx="214.0" cy="102.0" r="15.0" stroke="none" fill-opacity="0.498039215686" fill="#000000"/>
<rect x="248.0" y="89.0" width="46.0" height="26.0" stroke="none" fill-opacity="0.498039215686" fill="#000000"/>
<circle cx="328.0" cy="102.0" r="15.0" stroke="none" fill-opacity="0.498039215686" fill="#000000"/>
<path d="M404.0,79.0 A13.0,13.0 0 0,1 404.0,53.0 H423.0 A13.0,13.0 0 0,1 423.0,79.0 z" stroke="none" fill-opacity="0.498039215686" fill="#000000"/>
<path d="M461.5,79.0 H540.5 L547.0,66.0 L540.5,53.0 H461.5 L455.0,66.0 z" stroke="none" fill-opacity="0.498039215686" fill="#000000"/>
<circle cx="10" cy="62.0" r="3" stroke="#000000" stroke-width="2" fill="#FFFFFF"/>
<path d="M72.0,76.0 A13.0,13.0 0 0,1 72.0,50.0 H134.0 A13.0,13.0 0 0,1 134.0,76.0 z" stroke="#000000" stroke-width="2" fill="#FFFFFF"/>
<text class="bubble_font" x="103.0" y="69.0">COUNT</text>
<circle cx="181.0" cy="63.0" r="15.0" stroke="#000000" stroke-width="2" fill="#FFFFFF"/>
<text class="token_font" x="181.0" y="69.5">(</text>
<line x1="147.0" y1="62.0" x2="161.0" y2="62.0" stroke="#000000" stroke-width="2" marker-end="url(#arrow)" />
<path d="M230.0,78.0 A15.0,15.0 0 0,1 230.0,48.0 H233.0 A15.0,15.0 0 0,1 233.0,78.0 z" stroke="#000000" stroke-width="2" fill="#FFFFFF"/>
<text class="token_font" x="231.5" y="69.5">*</text>
<line x1="196.0" y1="62.0" x2="210.0" y2="62.0" stroke="#000000" stroke-width="2" marker-end="url(#arrow)" />
<circle cx="282.0" cy="63.0" r="15.0" stroke="#000000" stroke-width="2" fill="#FFFFFF"/>
<text class="token_font" x="282.0" y="69.5">)</text>
<line x1="248.0" y1="62.0" x2="262.0" y2="62.0" stroke="#000000" stroke-width="2" marker-end="url(#arrow)" />
<path d="M100.0,112.0 A13.0,13.0 0 0,1 100.0,86.0 H136.0 A13.0,13.0 0 0,1 136.0,112.0 z" stroke="#000000" stroke-width="2" fill="#FFFFFF"/>
<text class="bubble_font" x="118.0" y="105.0">SUM</text>
<path d="M100.0,144.0 A13.0,13.0 0 0,1 100.0,118.0 H130.0 A13.0,13.0 0 0,1 130.0,144.0 z" stroke="#000000" stroke-width="2" fill="#FFFFFF"/>
<text class="bubble_font" x="115.0" y="137.0">MIN</text>
<path d="M100.0,176.0 A13.0,13.0 0 0,1 100.0,150.0 H136.0 A13.0,13.0 0 0,1 136.0,176.0 z" stroke="#000000" stroke-width="2" fill="#FFFFFF"/>
<text class="bubble_font" x="118.0" y="169.0">MAX</text>
<line x1="58.0" y1="98.0" x2="82.0" y2="98.0" stroke="#000000" stroke-width="2" marker-end="url(#arrow)" />
<line x1="150.0" y1="98.0" x2="179.0" y2="98.0" stroke="#000000" stroke-width="2" />
<path d="M67.0,107.0 A9.0,9.0 0 0,0 58.0,98.0" stroke="#000000" stroke-width="2" fill="none"/>
<line x1="76.0" y1="130.0" x2="82.0" y2="130.0" stroke="#000000" stroke-width="2" marker-end="url(#arrow)" />
<line x1="144.0" y1="130.0" x2="160.0" y2="130.0" stroke="#000000" stroke-width="2" />
<path d="M67.0,121.0 A9.0,9.0 0 0,0 76.0,130.0" stroke="#000000" stroke-width="2" fill="none"/>
<path d="M160.0,130.0 A9.0,9.0 0 0,0 169.0,121.0" stroke="#000000" stroke-width="2" fill="none"/>
<line x1="76.0" y1="162.0" x2="82.0" y2="162.0" stroke="#000000" stroke-width="2" marker-end="url(#arrow)" />
<line x1="150.0" y1="162.0" x2="160.0" y2="162.0" stroke="#000000" stroke-width="2" />
<path d="M67.0,153.0 A9.0,9.0 0 0,0 76.0,162.0" stroke="#000000" stroke-width="2" fill="none"/>
<path d="M160.0,162.0 A9.0,9.0 0 0,0 169.0,153.0" stroke="#000000" stroke-width="2" fill="none"/>
<path d="M178.0,98.0 A9.0,9.0 0 0,0 169.0,107.0" stroke="#000000" stroke-width="2" fill="none"/>
<line x1="67.0" y1="153.0" x2="67.0" y2="107.0" stroke="#000000" stroke-width="2" />
<line x1="169.0" y1="153.0" x2="169.0" y2="107.0" stroke="#000000" stroke-width="2" />
<circle cx="211.0" cy="99.0" r="15.0" stroke="#000000" stroke-width="2" fill="#FFFFFF"/>
<text class="token_font" x="211.0" y="105.5">(</text>
<rect x="245.0" y="86.0" width="46.0" height="26.0" stroke="#000000" stroke-width="2" fill="#FFFFFF"/>
<a xlink:href=".#term" target="_parent">
  <text class="box_font link" x="268.0" y="104.5">term</text></a>
<line x1="226.0" y1="98.0" x2="240.0" y2="98.0" stroke="#000000" stroke-width="2" marker-end="url(#arrow)" />
<circle cx="325.0" cy="99.0" r="15.0" stroke="#000000" stroke-width="2" fill="#FFFFFF"/>
<text class="token_font" x="325.0" y="105.5">)</text>
<line x1="291.0" y1="98.0" x2="305.0" y2="98.0" stroke="#000000" stroke-width="2" marker-end="url(#arrow)" />
<line x1="177.0" y1="98.0" x2="191.0" y2="98.0" stroke="#000000" stroke-width="2" marker-end="url(#arrow)" />
<line x1="30" y1="62.0" x2="54.0" y2="62.0" stroke="#000000" stroke-width="2" marker-end="url(#arrow)" />
<line x1="298.0" y1="62.0" x2="371.0" y2="62.0" stroke="#000000" stroke-width="2" />
<path d="M39.0,71.0 A9,9 0 0,0 30.0,62.0" stroke="#000000" stroke-width="2" fill="none"/>
<line x1="48" y1="98.0" x2="54.0" y2="98.0" stroke="#000000" stroke-width="2" marker-end="url(#arrow)" />
<line x1="341.0" y1="98.0" x2="352.0" y2="98.0" stroke="#000000" stroke-width="2" />
<path d="M39.0,89.0 A9,9 0 0,0 48.0,98.0" stroke="#000000" stroke-width="2" fill="none"/>
<path d="M352.0,98.0 A9.0,9.0 0 0,0 361.0,89.0" stroke="#000000" stroke-width="2" fill="none"/>
<path d="M370.0,62.0 A9.0,9.0 0 0,0 361.0,71.0" stroke="#000000" stroke-width="2" fill="none"/>
<line x1="39" y1="89.0" x2="39" y2="71.0" stroke="#000000" stroke-width="2" />
<line x1="361.0" y1="89.0" x2="361.0" y2="71.0" stroke="#000000" stroke-width="2" />
<path d="M401.0,76.0 A13.0,13.0 0 0,1 401.0,50.0 H420.0 A13.0,13.0 0 0,1 420.0,76.0 z" stroke="#000000" stroke-width="2" fill="#FFFFFF"/>
<text class="bubble_font" x="410.5" y="69.0">AS</text>
<line x1="369.0" y1="62.0" x2="383.0" y2="62.0" stroke="#000000" stroke-width="2" marker-end="url(#arrow)" />
<path d="M458.5,76.0 H537.5 L544.0,63.0 L537.5,50.0 H458.5 L452.0,63.0 z" stroke="#000000" stroke-width="2" fill="#FFFFFF"/>
<text class="literal_font" x="498.0" y="68.5">field alias</text>
<line x1="433.0" y1="62.0" x2="447.0" y2="62.0" stroke="#000000" stroke-width="2" marker-end="url(#arrow)" />
<line x1="12" y1="62.0" x2="26.0" y2="62.0" stroke="#000000" stroke-width="2" marker-end="url(#arrow)" />
<circle cx="565.0" cy="62.0" r="3.0" stroke="#000000" stroke-width="2" fill="#FFFFFF"/>
<line x1="544.0" y1="62.0" x2="558.0" y2="62.0" stroke="#000000" stroke-width="2" marker-end="url(#arrow)" />
<text class="title_font" x="91.5" y="30.0">aggregate</text>
</svg>