<?xml version="1.0" encoding="UTF-8" standalone="no"?>
<!-- Created by Syntax-Trax http://kevinpt.github.io/syntax-trax -->
<svg xmlns="http://www.w3.org/2000/svg"
xmlns:xlink="http://www.w3.org/1999/xlink"
xml:space="preserve"
width="533" height="118" version="1.1">
<style type="text/css">
<![CDATA[
.box_font {fill:#000000; text-anchor:middle;
    font-family:Times; font-size:14pt; font-weight:regular; font-style:normal;}
.literal_font {fill:#000000; text-anchor:middle;
    font-family:Times; font-size:14pt; font-weight:regular; font-style:normal;}
.title_font {fill:#000000; text-anchor:middle;
    font-family:Sans; font-size:22pt; font-weight:bold; font-style:normal;}
.bubble_font {fill:#000000; text-anchor:middle;
    font-family:Sans; font-size:14pt; font-weight:regular; font-style:normal;}
.token_font {fill:#000000; text-anchor:middle;
    font-family:Sans; font-size:16pt; font-weight:regular; font-style:normal;}
.label {fill:#000;
  text-anchor:middle;
  font-size:16pt; font-weight:bold; font-family:Sans;}
.link {fill: #0D47A1;}
.link:hover {fill: #0D47A1; text-decoration:underline;}
.link:visited {fill: #4A148C;}
]]>
</style>
<defs>
  <marker id="arrow" markerWidth="5" markerHeight="4" refX="2.5" refY="2" orient="auto" markerUnits="strokeWidth">
    <path d="M0,0 L0.5,2 L0,4 L4.5,2 z" fill="#000000" />
  </marker>
</defs>
<rect width="100%" height="100%" fill="white"/><path d="M47.0,77.0 A13.0,13.0 0 0,1 47.0,51.0 H72.0 A13.0,13.0 0 0,1 72.0,77.0 z" stroke="none" fill-opacity="0.498039215686" fill="#000000"/>
<rect x="104.0" y="51.0" width="90.0" height="26.0" stroke="none" fill-opacity="0.498039215686" fill="#000000"/>
<path d="M244.0,77.0 A13.0,13.0 0 0,1 244.0,51.0 H321.0 A13.0,13.0 0 0,1 321.0,77.0 z" stroke="none" fill-opacity="0.498039215686" fill="#000000"/>
<path d="M394.0,77.0 A13.0,13.0 0 0,1 394.0,51.0 H439.0 A13.0,13.0 0 0,1 439.0,77.0 z" stroke="none" fill-opacity="0.498039215686" fill="#000000"/>
<path d="M394.0,109.0 A13.0,13.0 0 0,1 394.0,83.0 H445.0 A13.0,13.0 0 0,1 445.0,109.0 z" stroke="none" fill-opacity="0.498039215686" fill="#000000"/>
<circle cx="10" cy="60.0" r="3" stroke="#000000" stroke-width="2" fill="#FFFFFF"/>
<path d="M44.0,74.0 A13.0,13.0 0 0,1 44.0,48.0 H69.0 A13.0,13.0 0 0,1 69.0,74.0 z" stroke="#000000" stroke-width="2" fill="#FFFFFF"/>
<text class="bubble_font" x="56.5" y="67.0">BIT</text>
<rect x="101.0" y="48.0" width="90.0" height="26.0" stroke="#000000" stroke-width="2" fill="#FFFFFF"/>
<a xlink:href=".#nullability" target="_parent">
  <text class="box_font link" x="146.0" y="66.5">nullability</text></a>
<line x1="82.0" y1="60.0" x2="96.0" y2="60.0" stroke="#000000" stroke-width="2" marker-end="url(#arrow)" />
<path d="M241.0,74.0 A13.0,13.0 0 0,1 241.0,48.0 H318.0 A13.0,13.0 0 0,1 318.0,74.0 z" stroke="#000000" stroke-width="2" fill="#FFFFFF"/>
<text class="bubble_font" x="279.5" y="67.0">DEFAULT</text>
<path d="M391.0,74.0 A13.0,13.0 0 0,1 391.0,48.0 H436.0 A13.0,13.0 0 0,1 436.0,74.0 z" stroke="#000000" stroke-width="2" fill="#FFFFFF"/>
<text class="bubble_font" x="413.5" y="67.0">TRUE</text>
<path d="M391.0,106.0 A13.0,13.0 0 0,1 391.0,80.0 H442.0 A13.0,13.0 0 0,1 442.0,106.0 z" stroke="#000000" stroke-width="2" fill="#FFFFFF"/>
<text class="bubble_font" x="416.5" y="99.0">FALSE</text>
<line x1="349.0" y1="60.0" x2="373.0" y2="60.0" stroke="#000000" stroke-width="2" marker-end="url(#arrow)" />
<line x1="450.0" y1="60.0" x2="485.0" y2="60.0" stroke="#000000" stroke-width="2" />
<path d="M358.0,69.0 A9.0,9.0 0 0,0 349.0,60.0" stroke="#000000" stroke-width="2" fill="none"/>
<line x1="367.0" y1="92.0" x2="373.0" y2="92.0" stroke="#000000" stroke-width="2" marker-end="url(#arrow)" />
<line x1="456.0" y1="92.0" x2="466.0" y2="92.0" stroke="#000000" stroke-width="2" />
<path d="M358.0,83.0 A9.0,9.0 0 0,0 367.0,92.0" stroke="#000000" stroke-width="2" fill="none"/>
<path d="M466.0,92.0 A9.0,9.0 0 0,0 475.0,83.0" stroke="#000000" stroke-width="2" fill="none"/>
<path d="M484.0,60.0 A9.0,9.0 0 0,0 475.0,69.0" stroke="#000000" stroke-width="2" fill="none"/>
<line x1="358.0" y1="83.0" x2="358.0" y2="69.0" stroke="#000000" stroke-width="2" />
<line x1="475.0" y1="83.0" x2="475.0" y2="69.0" stroke="#000000" stroke-width="2" />
<line x1="331.0" y1="60.0" x2="345.0" y2="60.0" stroke="#000000" stroke-width="2" marker-end="url(#arrow)" />
<line x1="355.0" y1="112.0" x2="356.0" y2="112.0" stroke="#000000" stroke-width="2" />
<line x1="209.0" y1="60.0" x2="227.0" y2="60.0" stroke="#000000" stroke-width="2" />
<line x1="484.0" y1="60.0" x2="505.0" y2="60.0" stroke="#000000" stroke-width="2" />
<path d="M218.0,69.0 A9.0,9.0 0 0,0 209.0,60.0" stroke="#000000" stroke-width="2" fill="none"/>
<line x1="227.0" y1="112.0" x2="351.0" y2="112.0" stroke="#000000" stroke-width="2" marker-end="url(#arrow)" />
<line x1="356.0" y1="112.0" x2="486.0" y2="112.0" stroke="#000000" stroke-width="2" />
<path d="M218.0,103.0 A9.0,9.0 0 0,0 227.0,112.0" stroke="#000000" stroke-width="2" fill="none"/>
<path d="M486.0,112.0 A9.0,9.0 0 0,0 495.0,103.0" stroke="#000000" stroke-width="2" fill="none"/>
<path d="M504.0,60.0 A9.0,9.0 0 0,0 495.0,69.0" stroke="#000000" stroke-width="2" fill="none"/>
<line x1="218.0" y1="103.0" x2="218.0" y2="69.0" stroke="#000000" stroke-width="2" />
<line x1="495.0" y1="103.0" x2="495.0" y2="69.0" stroke="#000000" stroke-width="2" />
<line x1="191.0" y1="60.0" x2="205.0" y2="60.0" stroke="#000000" stroke-width="2" marker-end="url(#arrow)" />
<line x1="12" y1="60.0" x2="26.0" y2="60.0" stroke="#000000" stroke-width="2" marker-end="url(#arrow)" />
<circle cx="524.0" cy="60.0" r="3.0" stroke="#000000" stroke-width="2" fill="#FFFFFF"/>
<line x1="503.0" y1="60.0" x2="517.0" y2="60.0" stroke="#000000" stroke-width="2" marker-end="url(#arrow)" />
<text class="title_font" x="72.5" y="30.0">bit_field</text>
</svg>