<?xml version="1.0" encoding="UTF-8" standalone="no"?>
<!-- Created by Syntax-Trax http://kevinpt.github.io/syntax-trax -->
<svg xmlns="http://www.w3.org/2000/svg"
xmlns:xlink="http://www.w3.org/1999/xlink"
xml:space="preserve"
width="534" height="86" version="1.1">
<style type="text/css">
<![CDATA[
.box_font {fill:#000000; text-anchor:middle;
    font-family:Times; font-size:14pt; font-weight:regular; font-style:normal;}
.literal_font {fill:#000000; text-anchor:middle;
    font-family:Times; font-size:14pt; font-weight:regular; font-style:normal;}
.title_font {fill:#000000; text-anchor:middle;
    font-family:Sans; font-size:22pt; font-weight:bold; font-style:normal;}
.bubble_font {fill:#000000; text-anchor:middle;
    font-family:Sans; font-size:14pt; font-weight:regular; font-style:normal;}
.token_font {fill:#000000; text-anchor:middle;
    font-family:Sans; font-size:16pt; font-weight:regular; font-style:normal;}
.label {fill:#000;
  text-anchor:middle;
  font-size:16pt; font-weight:bold; font-family:Sans;}
.link {fill: #0D47A1;}
.link:hover {fill: #0D47A1; text-decoration:underline;}
.link:visited {fill: #4A148C;}
]]>
</style>
<defs>
  <marker id="arrow" markerWidth="5" markerHeight="4" refX="2.5" refY="2" orient="auto" markerUnits="strokeWidth">
    <path d="M0,0 L0.5,2 L0,4 L4.5,2 z" fill="#000000" />
  </marker>
</defs>
<rect width="100%" height="100%" fill="white"/><path d="M47.0,77.0 A13.0,13.0 0 0,1 47.0,51.0 H92.0 A13.0,13.0 0 0,1 92.0,77.0 z" stroke="none" fill-opacity="0.498039215686" fill="#000000"/>
<rect x="124.0" y="51.0" width="90.0" height="26.0" stroke="none" fill-opacity="0.498039215686" fill="#000000"/>
<path d="M264.0,77.0 A13.0,13.0 0 0,1 264.0,51.0 H341.0 A13.0,13.0 0 0,1 341.0,77.0 z" stroke="none" fill-opacity="0.498039215686" fill="#000000"/>
<path d="M379.5,77.0 H482.5 L489.0,64.0 L482.5,51.0 H379.5 L373.0,64.0 z" stroke="none" fill-opacity="0.498039215686" fill="#000000"/>
<circle cx="10" cy="60.0" r="3" stroke="#000000" stroke-width="2" fill="#FFFFFF"/>
<path d="M44.0,74.0 A13.0,13.0 0 0,1 44.0,48.0 H89.0 A13.0,13.0 0 0,1 89.0,74.0 z" stroke="#000000" stroke-width="2" fill="#FFFFFF"/>
<text class="bubble_font" x="66.5" y="67.0">BLOB</text>
<rect x="121.0" y="48.0" width="90.0" height="26.0" stroke="#000000" stroke-width="2" fill="#FFFFFF"/>
<a xlink:href=".#nullability" target="_parent">
  <text class="box_font link" x="166.0" y="66.5">nullability</text></a>
<line x1="102.0" y1="60.0" x2="116.0" y2="60.0" stroke="#000000" stroke-width="2" marker-end="url(#arrow)" />
<path d="M261.0,74.0 A13.0,13.0 0 0,1 261.0,48.0 H338.0 A13.0,13.0 0 0,1 338.0,74.0 z" stroke="#000000" stroke-width="2" fill="#FFFFFF"/>
<text class="bubble_font" x="299.5" y="67.0">DEFAULT</text>
<path d="M376.5,74.0 H479.5 L486.0,61.0 L479.5,48.0 H376.5 L370.0,61.0 z" stroke="#000000" stroke-width="2" fill="#FFFFFF"/>
<text class="literal_font" x="428.0" y="66.5">binary literal</text>
<line x1="351.0" y1="60.0" x2="365.0" y2="60.0" stroke="#000000" stroke-width="2" marker-end="url(#arrow)" />
<line x1="365.5" y1="80.0" x2="366.5" y2="80.0" stroke="#000000" stroke-width="2" />
<line x1="229.0" y1="60.0" x2="247.0" y2="60.0" stroke="#000000" stroke-width="2" />
<line x1="487.0" y1="60.0" x2="506.0" y2="60.0" stroke="#000000" stroke-width="2" />
<path d="M238.0,69.0 A9.0,9.0 0 0,0 229.0,60.0" stroke="#000000" stroke-width="2" fill="none"/>
<line x1="247.0" y1="80.0" x2="361.5" y2="80.0" stroke="#000000" stroke-width="2" marker-end="url(#arrow)" />
<line x1="366.5" y1="80.0" x2="487.0" y2="80.0" stroke="#000000" stroke-width="2" />
<path d="M238.0,71.0 A9.0,9.0 0 0,0 247.0,80.0" stroke="#000000" stroke-width="2" fill="none"/>
<path d="M487.0,80.0 A9.0,9.0 0 0,0 496.0,71.0" stroke="#000000" stroke-width="2" fill="none"/>
<path d="M505.0,60.0 A9.0,9.0 0 0,0 496.0,69.0" stroke="#000000" stroke-width="2" fill="none"/>
<line x1="238.0" y1="71.0" x2="238.0" y2="69.0" stroke="#000000" stroke-width="2" />
<line x1="496.0" y1="71.0" x2="496.0" y2="69.0" stroke="#000000" stroke-width="2" />
<line x1="211.0" y1="60.0" x2="225.0" y2="60.0" stroke="#000000" stroke-width="2" marker-end="url(#arrow)" />
<line x1="12" y1="60.0" x2="26.0" y2="60.0" stroke="#000000" stroke-width="2" marker-end="url(#arrow)" />
<circle cx="525.0" cy="60.0" r="3.0" stroke="#000000" stroke-width="2" fill="#FFFFFF"/>
<line x1="504.0" y1="60.0" x2="518.0" y2="60.0" stroke="#000000" stroke-width="2" marker-end="url(#arrow)" />
<text class="title_font" x="86.0" y="30.0">blob_field</text>
</svg>