<?xml version="1.0" encoding="UTF-8" standalone="no"?>
<!-- Created by Syntax-Trax http://kevinpt.github.io/syntax-trax -->
<svg xmlns="http://www.w3.org/2000/svg"
xmlns:xlink="http://www.w3.org/1999/xlink"
xml:space="preserve"
width="554" height="180" version="1.1">
<style type="text/css">
<![CDATA[
.box_font {fill:#000000; text-anchor:middle;
    font-family:Times; font-size:14pt; font-weight:regular; font-style:normal;}
.literal_font {fill:#000000; text-anchor:middle;
    font-family:Times; font-size:14pt; font-weight:regular; font-style:normal;}
.title_font {fill:#000000; text-anchor:middle;
    font-family:Sans; font-size:22pt; font-weight:bold; font-style:normal;}
.bubble_font {fill:#000000; text-anchor:middle;
    font-family:Sans; font-size:14pt; font-weight:regular; font-style:normal;}
.token_font {fill:#000000; text-anchor:middle;
    font-family:Sans; font-size:16pt; font-weight:regular; font-style:normal;}
.label {fill:#000;
  text-anchor:middle;
  font-size:16pt; font-weight:bold; font-family:Sans;}
.link {fill: #0D47A1;}
.link:hover {fill: #0D47A1; text-decoration:underline;}
.link:visited {fill: #4A148C;}
]]>
</style>
<defs>
  <marker id="arrow" markerWidth="5" markerHeight="4" refX="2.5" refY="2" orient="auto" markerUnits="strokeWidth">
    <path d="M0,0 L0.5,2 L0,4 L4.5,2 z" fill="#000000" />
  </marker>
</defs>
<rect width="100%" height="100%" fill="white"/><path d="M47.0,77.0 A13.0,13.0 0 0,1 47.0,51.0 H115.0 A13.0,13.0 0 0,1 115.0,77.0 z" stroke="none" fill-opacity="0.498039215686" fill="#000000"/>
<path d="M160.0,77.0 A13.0,13.0 0 0,1 160.0,51.0 H253.0 A13.0,13.0 0 0,1 253.0,77.0 z" stroke="none" fill-opacity="0.498039215686" fill="#000000"/>
<path d="M291.5,77.0 H408.5 L415.0,64.0 L408.5,51.0 H291.5 L285.0,64.0 z" stroke="none" fill-opacity="0.498039215686" fill="#000000"/>
<circle cx="136.0" cy="132.0" r="15.0" stroke="none" fill-opacity="0.498039215686" fill="#000000"/>
<rect x="187.0" y="119.0" width="143.0" height="26.0" stroke="none" fill-opacity="0.498039215686" fill="#000000"/>
<circle cx="258.5" cy="162.0" r="15.0" stroke="none" fill-opacity="0.498039215686" fill="#000000"/>
<circle cx="373.0" cy="132.0" r="15.0" stroke="none" fill-opacity="0.498039215686" fill="#000000"/>
<path d="M420.0,145.0 A13.0,13.0 0 0,1 420.0,119.0 H439.0 A13.0,13.0 0 0,1 439.0,145.0 z" stroke="none" fill-opacity="0.498039215686" fill="#000000"/>
<rect x="471.0" y="119.0" width="56.0" height="26.0" stroke="none" fill-opacity="0.498039215686" fill="#000000"/>
<circle cx="10" cy="60.0" r="3" stroke="#000000" stroke-width="2" fill="#FFFFFF"/>
<path d="M44.0,74.0 A13.0,13.0 0 0,1 44.0,48.0 H112.0 A13.0,13.0 0 0,1 112.0,74.0 z" stroke="#000000" stroke-width="2" fill="#FFFFFF"/>
<text class="bubble_font" x="78.0" y="67.0">CREATE</text>
<path d="M157.0,74.0 A13.0,13.0 0 0,1 157.0,48.0 H250.0 A13.0,13.0 0 0,1 250.0,74.0 z" stroke="#000000" stroke-width="2" fill="#FFFFFF"/>
<text class="bubble_font" x="203.5" y="67.0">FUNCTION</text>
<line x1="125.0" y1="60.0" x2="139.0" y2="60.0" stroke="#000000" stroke-width="2" marker-end="url(#arrow)" />
<path d="M288.5,74.0 H405.5 L412.0,61.0 L405.5,48.0 H288.5 L282.0,61.0 z" stroke="#000000" stroke-width="2" fill="#FFFFFF"/>
<text class="literal_font" x="347.0" y="66.5">function name</text>
<line x1="263.0" y1="60.0" x2="277.0" y2="60.0" stroke="#000000" stroke-width="2" marker-end="url(#arrow)" />
<circle cx="133.0" cy="129.0" r="15.0" stroke="#000000" stroke-width="2" fill="#FFFFFF"/>
<text class="token_font" x="133.0" y="135.5">(</text>
<rect x="184.0" y="116.0" width="143.0" height="26.0" stroke="#000000" stroke-width="2" fill="#FFFFFF"/>
<a xlink:href=".#param_definition" target="_parent">
  <text class="box_font link" x="255.5" y="134.5">param_definition</text></a>
<circle cx="255.5" cy="159.0" r="15.0" stroke="#000000" stroke-width="2" fill="#FFFFFF"/>
<text class="token_font" x="255.5" y="165.5">,</text>
<line x1="183.0" y1="158.0" x2="239.5" y2="158.0" stroke="#000000" stroke-width="2" />
<line x1="328.0" y1="158.0" x2="275.5" y2="158.0" stroke="#000000" stroke-width="2" marker-end="url(#arrow)" />
<line x1="166.0" y1="128.0" x2="183.0" y2="128.0" stroke="#000000" stroke-width="2" />
<path d="M183.0,128.0 A9.0,9.0 0 0,0 174.0,137.0" stroke="#000000" stroke-width="2" fill="none"/>
<line x1="174.0" y1="137.0" x2="174.0" y2="149.0" stroke="#000000" stroke-width="2" />
<path d="M174.0,149.0 A9.0,9.0 0 0,0 183.0,158.0" stroke="#000000" stroke-width="2" fill="none"/>
<path d="M337.0,137.0 A9.0,9.0 0 0,0 328.0,128.0" stroke="#000000" stroke-width="2" fill="none"/>
<line x1="337.0" y1="137.0" x2="337.0" y2="149.0" stroke="#000000" stroke-width="2" />
<path d="M328.0,158.0 A9.0,9.0 0 0,0 337.0,149.0" stroke="#000000" stroke-width="2" fill="none"/>
<line x1="328.0" y1="128.0" x2="337.0" y2="128.0" stroke="#000000" stroke-width="2" />
<line x1="148.0" y1="128.0" x2="162.0" y2="128.0" stroke="#000000" stroke-width="2" marker-end="url(#arrow)" />
<circle cx="370.0" cy="129.0" r="15.0" stroke="#000000" stroke-width="2" fill="#FFFFFF"/>
<text class="token_font" x="370.0" y="135.5">)</text>
<line x1="336.0" y1="128.0" x2="350.0" y2="128.0" stroke="#000000" stroke-width="2" marker-end="url(#arrow)" />
<path d="M417.0,142.0 A13.0,13.0 0 0,1 417.0,116.0 H436.0 A13.0,13.0 0 0,1 436.0,142.0 z" stroke="#000000" stroke-width="2" fill="#FFFFFF"/>
<text class="bubble_font" x="426.5" y="135.0">AS</text>
<line x1="385.0" y1="128.0" x2="399.0" y2="128.0" stroke="#000000" stroke-width="2" marker-end="url(#arrow)" />
<rect x="468.0" y="116.0" width="56.0" height="26.0" stroke="#000000" stroke-width="2" fill="#FFFFFF"/>
<a xlink:href=".#query" target="_parent">
  <text class="box_font link" x="496.0" y="134.5">query</text></a>
<line x1="449.0" y1="128.0" x2="463.0" y2="128.0" stroke="#000000" stroke-width="2" marker-end="url(#arrow)" />
<line x1="413.0" y1="60.0" x2="431.0" y2="60.0" stroke="#000000" stroke-width="2" />
<path d="M440.0,69.0 A9.0,9.0 0 0,0 431.0,60.0" stroke="#000000" stroke-width="2" fill="none"/>
<line x1="440.0" y1="69.0" x2="440.0" y2="85.0" stroke="#000000" stroke-width="2" />
<path d="M431.0,94.0 A9.0,9.0 0 0,0 440.0,85.0" stroke="#000000" stroke-width="2" fill="none"/>
<line x1="431.0" y1="94.0" x2="269.0" y2="94.0" stroke="#000000" stroke-width="2" marker-end="url(#arrow)" />
<line x1="265.0" y1="94.0" x2="99" y2="94.0" stroke="#000000" stroke-width="2" />
<path d="M99.0,94.0 A9,9 0 0,0 90.0,103.0" stroke="#000000" stroke-width="2" fill="none"/>
<line x1="90" y1="103.0" x2="90" y2="119.0" stroke="#000000" stroke-width="2" />
<path d="M90.0,119.0 A9,9 0 0,0 99.0,128.0" stroke="#000000" stroke-width="2" fill="none"/>
<line x1="99" y1="128.0" x2="113.0" y2="128.0" stroke="#000000" stroke-width="2" marker-end="url(#arrow)" />
<line x1="12" y1="60.0" x2="26.0" y2="60.0" stroke="#000000" stroke-width="2" marker-end="url(#arrow)" />
<circle cx="545.0" cy="128.0" r="3.0" stroke="#000000" stroke-width="2" fill="#FFFFFF"/>
<line x1="524.0" y1="128.0" x2="538.0" y2="128.0" stroke="#000000" stroke-width="2" marker-end="url(#arrow)" />
<text class="title_font" x="134.5" y="30.0">create_function</text>
</svg>