<?xml version="1.0" encoding="UTF-8" standalone="no"?>
<!-- Created by Syntax-Trax http://kevinpt.github.io/syntax-trax -->
<svg xmlns="http://www.w3.org/2000/svg"
xmlns:xlink="http://www.w3.org/1999/xlink"
xml:space="preserve"
width="532" height="254" version="1.1">
<style type="text/css">
<![CDATA[
.box_font {fill:#000000; text-anchor:middle;
    font-family:Times; font-size:14pt; font-weight:regular; font-style:normal;}
.literal_font {fill:#000000; text-anchor:middle;
    font-family:Times; font-size:14pt; font-weight:regular; font-style:normal;}
.title_font {fill:#000000; text-anchor:middle;
    font-family:Sans; font-size:22pt; font-weight:bold; font-style:normal;}
.bubble_font {fill:#000000; text-anchor:middle;
    font-family:Sans; font-size:14pt; font-weight:regular; font-style:normal;}
.token_font {fill:#000000; text-anchor:middle;
    font-family:Sans; font-size:16pt; font-weight:regular; font-style:normal;}
.label {fill:#000;
  text-anchor:middle;
  font-size:16pt; font-weight:bold; font-family:Sans;}
.link {fill: #0D47A1;}
.link:hover {fill: #0D47A1; text-decoration:underline;}
.link:visited {fill: #4A148C;}
]]>
</style>
<defs>
  <marker id="arrow" markerWidth="5" markerHeight="4" refX="2.5" refY="2" orient="auto" markerUnits="strokeWidth">
    <path d="M0,0 L0.5,2 L0,4 L4.5,2 z" fill="#000000" />
  </marker>
</defs>
<rect width="100%" height="100%" fill="white"/><path d="M47.0,77.0 A13.0,13.0 0 0,1 47.0,51.0 H115.0 A13.0,13.0 0 0,1 115.0,77.0 z" stroke="none" fill-opacity="0.498039215686" fill="#000000"/>
<path d="M188.0,77.0 A13.0,13.0 0 0,1 188.0,51.0 H242.0 A13.0,13.0 0 0,1 242.0,77.0 z" stroke="none" fill-opacity="0.498039215686" fill="#000000"/>
<path d="M188.0,109.0 A13.0,13.0 0 0,1 188.0,83.0 H262.0 A13.0,13.0 0 0,1 262.0,109.0 z" stroke="none" fill-opacity="0.498039215686" fill="#000000"/>
<path d="M328.5,77.0 H425.5 L432.0,64.0 L425.5,51.0 H328.5 L322.0,64.0 z" stroke="none" fill-opacity="0.498039215686" fill="#000000"/>
<path d="M134.0,177.0 A13.0,13.0 0 0,1 134.0,151.0 H213.0 A13.0,13.0 0 0,1 213.0,177.0 z" stroke="none" fill-opacity="0.498039215686" fill="#000000"/>
<circle cx="260.0" cy="164.0" r="15.0" stroke="none" fill-opacity="0.498039215686" fill="#000000"/>
<path d="M300.5,177.0 H445.5 L452.0,164.0 L445.5,151.0 H300.5 L294.0,164.0 z" stroke="none" fill-opacity="0.498039215686" fill="#000000"/>
<circle cx="486.0" cy="164.0" r="15.0" stroke="none" fill-opacity="0.498039215686" fill="#000000"/>
<path d="M162.0,251.0 A13.0,13.0 0 0,1 162.0,225.0 H207.0 A13.0,13.0 0 0,1 207.0,251.0 z" stroke="none" fill-opacity="0.498039215686" fill="#000000"/>
<path d="M252.0,251.0 A13.0,13.0 0 0,1 252.0,225.0 H275.0 A13.0,13.0 0 0,1 275.0,251.0 z" stroke="none" fill-opacity="0.498039215686" fill="#000000"/>
<path d="M320.0,251.0 A13.0,13.0 0 0,1 320.0,225.0 H444.0 A13.0,13.0 0 0,1 444.0,251.0 z" stroke="none" fill-opacity="0.498039215686" fill="#000000"/>
<circle cx="10" cy="60.0" r="3" stroke="#000000" stroke-width="2" fill="#FFFFFF"/>
<path d="M44.0,74.0 A13.0,13.0 0 0,1 44.0,48.0 H112.0 A13.0,13.0 0 0,1 112.0,74.0 z" stroke="#000000" stroke-width="2" fill="#FFFFFF"/>
<text class="bubble_font" x="78.0" y="67.0">CREATE</text>
<path d="M185.0,74.0 A13.0,13.0 0 0,1 185.0,48.0 H239.0 A13.0,13.0 0 0,1 239.0,74.0 z" stroke="#000000" stroke-width="2" fill="#FFFFFF"/>
<text class="bubble_font" x="212.0" y="67.0">GRAIN</text>
<path d="M185.0,106.0 A13.0,13.0 0 0,1 185.0,80.0 H259.0 A13.0,13.0 0 0,1 259.0,106.0 z" stroke="#000000" stroke-width="2" fill="#FFFFFF"/>
<text class="bubble_font" x="222.0" y="99.0">SCHEMA</text>
<line x1="143.0" y1="60.0" x2="167.0" y2="60.0" stroke="#000000" stroke-width="2" marker-end="url(#arrow)" />
<line x1="253.0" y1="60.0" x2="302.0" y2="60.0" stroke="#000000" stroke-width="2" />
<path d="M152.0,69.0 A9.0,9.0 0 0,0 143.0,60.0" stroke="#000000" stroke-width="2" fill="none"/>
<line x1="161.0" y1="92.0" x2="167.0" y2="92.0" stroke="#000000" stroke-width="2" marker-end="url(#arrow)" />
<line x1="273.0" y1="92.0" x2="283.0" y2="92.0" stroke="#000000" stroke-width="2" />
<path d="M152.0,83.0 A9.0,9.0 0 0,0 161.0,92.0" stroke="#000000" stroke-width="2" fill="none"/>
<path d="M283.0,92.0 A9.0,9.0 0 0,0 292.0,83.0" stroke="#000000" stroke-width="2" fill="none"/>
<path d="M301.0,60.0 A9.0,9.0 0 0,0 292.0,69.0" stroke="#000000" stroke-width="2" fill="none"/>
<line x1="152.0" y1="83.0" x2="152.0" y2="69.0" stroke="#000000" stroke-width="2" />
<line x1="292.0" y1="83.0" x2="292.0" y2="69.0" stroke="#000000" stroke-width="2" />
<line x1="125.0" y1="60.0" x2="139.0" y2="60.0" stroke="#000000" stroke-width="2" marker-end="url(#arrow)" />
<path d="M325.5,74.0 H422.5 L429.0,61.0 L422.5,48.0 H325.5 L319.0,61.0 z" stroke="#000000" stroke-width="2" fill="#FFFFFF"/>
<text class="literal_font" x="374.0" y="66.5">grain_name</text>
<line x1="300.0" y1="60.0" x2="314.0" y2="60.0" stroke="#000000" stroke-width="2" marker-end="url(#arrow)" />
<path d="M131.0,174.0 A13.0,13.0 0 0,1 131.0,148.0 H210.0 A13.0,13.0 0 0,1 210.0,174.0 z" stroke="#000000" stroke-width="2" fill="#FFFFFF"/>
<text class="bubble_font" x="170.5" y="167.0">VERSION</text>
<circle cx="257.0" cy="161.0" r="15.0" stroke="#000000" stroke-width="2" fill="#FFFFFF"/>
<text class="token_font" x="257.0" y="167.5">'</text>
<line x1="223.0" y1="160.0" x2="237.0" y2="160.0" stroke="#000000" stroke-width="2" marker-end="url(#arrow)" />
<path d="M297.5,174.0 H442.5 L449.0,161.0 L442.5,148.0 H297.5 L291.0,161.0 z" stroke="#000000" stroke-width="2" fill="#FFFFFF"/>
<text class="literal_font" x="370.0" y="166.5">grain_version_tag</text>
<line x1="272.0" y1="160.0" x2="286.0" y2="160.0" stroke="#000000" stroke-width="2" marker-end="url(#arrow)" />
<circle cx="483.0" cy="161.0" r="15.0" stroke="#000000" stroke-width="2" fill="#FFFFFF"/>
<text class="token_font" x="483.0" y="167.5">'</text>
<line x1="449.0" y1="160.0" x2="463.0" y2="160.0" stroke="#000000" stroke-width="2" marker-end="url(#arrow)" />
<line x1="430.0" y1="60.0" x2="448.0" y2="60.0" stroke="#000000" stroke-width="2" />
<path d="M457.0,69.0 A9.0,9.0 0 0,0 448.0,60.0" stroke="#000000" stroke-width="2" fill="none"/>
<line x1="457.0" y1="69.0" x2="457.0" y2="89.0" stroke="#000000" stroke-width="2" marker-end="url(#arrow)" />
<line x1="457.0" y1="93.0" x2="457.0" y2="117.0" stroke="#000000" stroke-width="2" />
<path d="M448.0,126.0 A9.0,9.0 0 0,0 457.0,117.0" stroke="#000000" stroke-width="2" fill="none"/>
<line x1="448.0" y1="126.0" x2="277.5" y2="126.0" stroke="#000000" stroke-width="2" marker-end="url(#arrow)" />
<line x1="273.5" y1="126.0" x2="99" y2="126.0" stroke="#000000" stroke-width="2" />
<path d="M99.0,126.0 A9,9 0 0,0 90.0,135.0" stroke="#000000" stroke-width="2" fill="none"/>
<line x1="90" y1="135.0" x2="90" y2="151.0" stroke="#000000" stroke-width="2" />
<path d="M90.0,151.0 A9,9 0 0,0 99.0,160.0" stroke="#000000" stroke-width="2" fill="none"/>
<line x1="99" y1="160.0" x2="113.0" y2="160.0" stroke="#000000" stroke-width="2" marker-end="url(#arrow)" />
<line x1="298.5" y1="216.0" x2="299.5" y2="216.0" stroke="#000000" stroke-width="2" />
<path d="M159.0,248.0 A13.0,13.0 0 0,1 159.0,222.0 H204.0 A13.0,13.0 0 0,1 204.0,248.0 z" stroke="#000000" stroke-width="2" fill="#FFFFFF"/>
<text class="bubble_font" x="181.5" y="241.0">WITH</text>
<path d="M249.0,248.0 A13.0,13.0 0 0,1 249.0,222.0 H272.0 A13.0,13.0 0 0,1 272.0,248.0 z" stroke="#000000" stroke-width="2" fill="#FFFFFF"/>
<text class="bubble_font" x="260.5" y="241.0">NO</text>
<line x1="217.0" y1="234.0" x2="231.0" y2="234.0" stroke="#000000" stroke-width="2" marker-end="url(#arrow)" />
<path d="M317.0,248.0 A13.0,13.0 0 0,1 317.0,222.0 H441.0 A13.0,13.0 0 0,1 441.0,248.0 z" stroke="#000000" stroke-width="2" fill="#FFFFFF"/>
<text class="bubble_font" x="379.0" y="241.0">AUTOUPDATE</text>
<line x1="285.0" y1="234.0" x2="299.0" y2="234.0" stroke="#000000" stroke-width="2" marker-end="url(#arrow)" />
<line x1="117" y1="216.0" x2="294.5" y2="216.0" stroke="#000000" stroke-width="2" marker-end="url(#arrow)" />
<line x1="299.5" y1="216.0" x2="484.0" y2="216.0" stroke="#000000" stroke-width="2" />
<path d="M126.0,225.0 A9,9 0 0,0 117.0,216.0" stroke="#000000" stroke-width="2" fill="none"/>
<line x1="135" y1="234.0" x2="141.0" y2="234.0" stroke="#000000" stroke-width="2" marker-end="url(#arrow)" />
<line x1="455.0" y1="234.0" x2="465.0" y2="234.0" stroke="#000000" stroke-width="2" />
<path d="M126.0,225.0 A9,9 0 0,0 135.0,234.0" stroke="#000000" stroke-width="2" fill="none"/>
<path d="M465.0,234.0 A9.0,9.0 0 0,0 474.0,225.0" stroke="#000000" stroke-width="2" fill="none"/>
<path d="M483.0,216.0 A9.0,9.0 0 0,0 474.0,225.0" stroke="#000000" stroke-width="2" fill="none"/>
<line x1="126" y1="225.0" x2="126" y2="225.0" stroke="#000000" stroke-width="2" />
<line x1="474.0" y1="225.0" x2="474.0" y2="225.0" stroke="#000000" stroke-width="2" />
<line x1="499.0" y1="160.0" x2="517.0" y2="160.0" stroke="#000000" stroke-width="2" />
<path d="M526.0,169.0 A9.0,9.0 0 0,0 517.0,160.0" stroke="#000000" stroke-width="2" fill="none"/>
<line x1="526.0" y1="169.0" x2="526.0" y2="187.0" stroke="#000000" stroke-width="2" />
<path d="M517.0,196.0 A9.0,9.0 0 0,0 526.0,187.0" stroke="#000000" stroke-width="2" fill="none"/>
<line x1="517.0" y1="196.0" x2="312.0" y2="196.0" stroke="#000000" stroke-width="2" marker-end="url(#arrow)" />
<line x1="308.0" y1="196.0" x2="99" y2="196.0" stroke="#000000" stroke-width="2" />
<path d="M99.0,196.0 A10.0,10.0 0 0,0 99.0,216.0" stroke="#000000" stroke-width="2" fill="none"/>
<line x1="99" y1="216.0" x2="113.0" y2="216.0" stroke="#000000" stroke-width="2" marker-end="url(#arrow)" />
<line x1="12" y1="60.0" x2="26.0" y2="60.0" stroke="#000000" stroke-width="2" marker-end="url(#arrow)" />
<circle cx="503.0" cy="216.0" r="3.0" stroke="#000000" stroke-width="2" fill="#FFFFFF"/>
<line x1="482.0" y1="216.0" x2="496.0" y2="216.0" stroke="#000000" stroke-width="2" marker-end="url(#arrow)" />
<text class="title_font" x="109.0" y="30.0">create_grain</text>
</svg>