<?xml version="1.0" encoding="UTF-8" standalone="no"?>
<!-- Created by Syntax-Trax http://kevinpt.github.io/syntax-trax -->
<svg xmlns="http://www.w3.org/2000/svg"
xmlns:xlink="http://www.w3.org/1999/xlink"
xml:space="preserve"
width="603" height="180" version="1.1">
<style type="text/css">
<![CDATA[
.box_font {fill:#000000; text-anchor:middle;
    font-family:Times; font-size:14pt; font-weight:regular; font-style:normal;}
.literal_font {fill:#000000; text-anchor:middle;
    font-family:Times; font-size:14pt; font-weight:regular; font-style:normal;}
.title_font {fill:#000000; text-anchor:middle;
    font-family:Sans; font-size:22pt; font-weight:bold; font-style:normal;}
.bubble_font {fill:#000000; text-anchor:middle;
    font-family:Sans; font-size:14pt; font-weight:regular; font-style:normal;}
.token_font {fill:#000000; text-anchor:middle;
    font-family:Sans; font-size:16pt; font-weight:regular; font-style:normal;}
.label {fill:#000;
  text-anchor:middle;
  font-size:16pt; font-weight:bold; font-family:Sans;}
.link {fill: #0D47A1;}
.link:hover {fill: #0D47A1; text-decoration:underline;}
.link:visited {fill: #4A148C;}
]]>
</style>
<defs>
  <marker id="arrow" markerWidth="5" markerHeight="4" refX="2.5" refY="2" orient="auto" markerUnits="strokeWidth">
    <path d="M0,0 L0.5,2 L0,4 L4.5,2 z" fill="#000000" />
  </marker>
</defs>
<rect width="100%" height="100%" fill="white"/><path d="M47.0,77.0 A13.0,13.0 0 0,1 47.0,51.0 H115.0 A13.0,13.0 0 0,1 115.0,77.0 z" stroke="none" fill-opacity="0.498039215686" fill="#000000"/>
<path d="M160.0,77.0 A13.0,13.0 0 0,1 160.0,51.0 H214.0 A13.0,13.0 0 0,1 214.0,77.0 z" stroke="none" fill-opacity="0.498039215686" fill="#000000"/>
<path d="M252.5,77.0 H346.5 L353.0,64.0 L346.5,51.0 H252.5 L246.0,64.0 z" stroke="none" fill-opacity="0.498039215686" fill="#000000"/>
<circle cx="136.0" cy="132.0" r="15.0" stroke="none" fill-opacity="0.498039215686" fill="#000000"/>
<rect x="187.0" y="119.0" width="141.0" height="26.0" stroke="none" fill-opacity="0.498039215686" fill="#000000"/>
<circle cx="257.5" cy="162.0" r="15.0" stroke="none" fill-opacity="0.498039215686" fill="#000000"/>
<circle cx="371.0" cy="132.0" r="15.0" stroke="none" fill-opacity="0.498039215686" fill="#000000"/>
<rect x="433.0" y="137.0" width="115.0" height="26.0" stroke="none" fill-opacity="0.498039215686" fill="#000000"/>
<circle cx="10" cy="60.0" r="3" stroke="#000000" stroke-width="2" fill="#FFFFFF"/>
<path d="M44.0,74.0 A13.0,13.0 0 0,1 44.0,48.0 H112.0 A13.0,13.0 0 0,1 112.0,74.0 z" stroke="#000000" stroke-width="2" fill="#FFFFFF"/>
<text class="bubble_font" x="78.0" y="67.0">CREATE</text>
<path d="M157.0,74.0 A13.0,13.0 0 0,1 157.0,48.0 H211.0 A13.0,13.0 0 0,1 211.0,74.0 z" stroke="#000000" stroke-width="2" fill="#FFFFFF"/>
<text class="bubble_font" x="184.0" y="67.0">TABLE</text>
<line x1="125.0" y1="60.0" x2="139.0" y2="60.0" stroke="#000000" stroke-width="2" marker-end="url(#arrow)" />
<path d="M249.5,74.0 H343.5 L350.0,61.0 L343.5,48.0 H249.5 L243.0,61.0 z" stroke="#000000" stroke-width="2" fill="#FFFFFF"/>
<text class="literal_font" x="296.5" y="66.5">table_name</text>
<line x1="224.0" y1="60.0" x2="238.0" y2="60.0" stroke="#000000" stroke-width="2" marker-end="url(#arrow)" />
<circle cx="133.0" cy="129.0" r="15.0" stroke="#000000" stroke-width="2" fill="#FFFFFF"/>
<text class="token_font" x="133.0" y="135.5">(</text>
<rect x="184.0" y="116.0" width="141.0" height="26.0" stroke="#000000" stroke-width="2" fill="#FFFFFF"/>
<a xlink:href=".#table_constituent" target="_parent">
  <text class="box_font link" x="254.5" y="134.5">table_constituent</text></a>
<circle cx="254.5" cy="159.0" r="15.0" stroke="#000000" stroke-width="2" fill="#FFFFFF"/>
<text class="token_font" x="254.5" y="165.5">,</text>
<line x1="183.0" y1="158.0" x2="238.5" y2="158.0" stroke="#000000" stroke-width="2" />
<line x1="326.0" y1="158.0" x2="274.5" y2="158.0" stroke="#000000" stroke-width="2" marker-end="url(#arrow)" />
<line x1="166.0" y1="128.0" x2="183.0" y2="128.0" stroke="#000000" stroke-width="2" />
<path d="M183.0,128.0 A9.0,9.0 0 0,0 174.0,137.0" stroke="#000000" stroke-width="2" fill="none"/>
<line x1="174.0" y1="137.0" x2="174.0" y2="149.0" stroke="#000000" stroke-width="2" />
<path d="M174.0,149.0 A9.0,9.0 0 0,0 183.0,158.0" stroke="#000000" stroke-width="2" fill="none"/>
<path d="M335.0,137.0 A9.0,9.0 0 0,0 326.0,128.0" stroke="#000000" stroke-width="2" fill="none"/>
<line x1="335.0" y1="137.0" x2="335.0" y2="149.0" stroke="#000000" stroke-width="2" />
<path d="M326.0,158.0 A9.0,9.0 0 0,0 335.0,149.0" stroke="#000000" stroke-width="2" fill="none"/>
<line x1="326.0" y1="128.0" x2="335.0" y2="128.0" stroke="#000000" stroke-width="2" />
<line x1="148.0" y1="128.0" x2="162.0" y2="128.0" stroke="#000000" stroke-width="2" marker-end="url(#arrow)" />
<circle cx="368.0" cy="129.0" r="15.0" stroke="#000000" stroke-width="2" fill="#FFFFFF"/>
<text class="token_font" x="368.0" y="135.5">)</text>
<line x1="334.0" y1="128.0" x2="348.0" y2="128.0" stroke="#000000" stroke-width="2" marker-end="url(#arrow)" />
<line x1="486.0" y1="128.0" x2="487.0" y2="128.0" stroke="#000000" stroke-width="2" />
<rect x="430.0" y="134.0" width="115.0" height="26.0" stroke="#000000" stroke-width="2" fill="#FFFFFF"/>
<a xlink:href=".#table_options" target="_parent">
  <text class="box_font link" x="487.5" y="152.5">table_options</text></a>
<line x1="401.0" y1="128.0" x2="482.0" y2="128.0" stroke="#000000" stroke-width="2" marker-end="url(#arrow)" />
<line x1="487.0" y1="128.0" x2="575.0" y2="128.0" stroke="#000000" stroke-width="2" />
<path d="M410.0,137.0 A9.0,9.0 0 0,0 401.0,128.0" stroke="#000000" stroke-width="2" fill="none"/>
<line x1="419.0" y1="146.0" x2="425.0" y2="146.0" stroke="#000000" stroke-width="2" marker-end="url(#arrow)" />
<line x1="546.0" y1="146.0" x2="556.0" y2="146.0" stroke="#000000" stroke-width="2" />
<path d="M410.0,137.0 A9.0,9.0 0 0,0 419.0,146.0" stroke="#000000" stroke-width="2" fill="none"/>
<path d="M556.0,146.0 A9.0,9.0 0 0,0 565.0,137.0" stroke="#000000" stroke-width="2" fill="none"/>
<path d="M574.0,128.0 A9.0,9.0 0 0,0 565.0,137.0" stroke="#000000" stroke-width="2" fill="none"/>
<line x1="410.0" y1="137.0" x2="410.0" y2="137.0" stroke="#000000" stroke-width="2" />
<line x1="565.0" y1="137.0" x2="565.0" y2="137.0" stroke="#000000" stroke-width="2" />
<line x1="383.0" y1="128.0" x2="397.0" y2="128.0" stroke="#000000" stroke-width="2" marker-end="url(#arrow)" />
<line x1="351.0" y1="60.0" x2="369.0" y2="60.0" stroke="#000000" stroke-width="2" />
<path d="M378.0,69.0 A9.0,9.0 0 0,0 369.0,60.0" stroke="#000000" stroke-width="2" fill="none"/>
<line x1="378.0" y1="69.0" x2="378.0" y2="85.0" stroke="#000000" stroke-width="2" />
<path d="M369.0,94.0 A9.0,9.0 0 0,0 378.0,85.0" stroke="#000000" stroke-width="2" fill="none"/>
<line x1="369.0" y1="94.0" x2="238.0" y2="94.0" stroke="#000000" stroke-width="2" marker-end="url(#arrow)" />
<line x1="234.0" y1="94.0" x2="99" y2="94.0" stroke="#000000" stroke-width="2" />
<path d="M99.0,94.0 A9,9 0 0,0 90.0,103.0" stroke="#000000" stroke-width="2" fill="none"/>
<line x1="90" y1="103.0" x2="90" y2="119.0" stroke="#000000" stroke-width="2" />
<path d="M90.0,119.0 A9,9 0 0,0 99.0,128.0" stroke="#000000" stroke-width="2" fill="none"/>
<line x1="99" y1="128.0" x2="113.0" y2="128.0" stroke="#000000" stroke-width="2" marker-end="url(#arrow)" />
<line x1="12" y1="60.0" x2="26.0" y2="60.0" stroke="#000000" stroke-width="2" marker-end="url(#arrow)" />
<circle cx="594.0" cy="128.0" r="3.0" stroke="#000000" stroke-width="2" fill="#FFFFFF"/>
<line x1="573.0" y1="128.0" x2="587.0" y2="128.0" stroke="#000000" stroke-width="2" marker-end="url(#arrow)" />
<text class="title_font" x="108.5" y="30.0">create_table</text>
</svg>