<?xml version="1.0" encoding="UTF-8" standalone="no"?>
<!-- Created by Syntax-Trax http://kevinpt.github.io/syntax-trax -->
<svg xmlns="http://www.w3.org/2000/svg"
xmlns:xlink="http://www.w3.org/1999/xlink"
xml:space="preserve"
width="555" height="311" version="1.1">
<style type="text/css">
<![CDATA[
.box_font {fill:#000000; text-anchor:middle;
    font-family:Times; font-size:14pt; font-weight:regular; font-style:normal;}
.literal_font {fill:#000000; text-anchor:middle;
    font-family:Times; font-size:14pt; font-weight:regular; font-style:normal;}
.title_font {fill:#000000; text-anchor:middle;
    font-family:Sans; font-size:22pt; font-weight:bold; font-style:normal;}
.bubble_font {fill:#000000; text-anchor:middle;
    font-family:Sans; font-size:14pt; font-weight:regular; font-style:normal;}
.token_font {fill:#000000; text-anchor:middle;
    font-family:Sans; font-size:16pt; font-weight:regular; font-style:normal;}
.label {fill:#000;
  text-anchor:middle;
  font-size:16pt; font-weight:bold; font-family:Sans;}
.link {fill: #0D47A1;}
.link:hover {fill: #0D47A1; text-decoration:underline;}
.link:visited {fill: #4A148C;}
]]>
</style>
<defs>
  <marker id="arrow" markerWidth="5" markerHeight="4" refX="2.5" refY="2" orient="auto" markerUnits="strokeWidth">
    <path d="M0,0 L0.5,2 L0,4 L4.5,2 z" fill="#000000" />
  </marker>
</defs>
<rect width="100%" height="100%" fill="white"/><path d="M67.0,81.0 A15.0,15.0 0 0,1 67.0,51.0 H80.0 A15.0,15.0 0 0,1 80.0,81.0 z" stroke="none" fill-opacity="0.498039215686" fill="#000000"/>
<path d="M173.0,79.0 A13.0,13.0 0 0,1 173.0,53.0 H201.0 A13.0,13.0 0 0,1 201.0,79.0 z" stroke="none" fill-opacity="0.498039215686" fill="#000000"/>
<path d="M166.5,113.0 H248.5 L255.0,100.0 L248.5,87.0 H166.5 L160.0,100.0 z" stroke="none" fill-opacity="0.498039215686" fill="#000000"/>
<path d="M307.0,115.0 A15.0,15.0 0 0,1 307.0,85.0 H313.0 A15.0,15.0 0 0,1 313.0,115.0 z" stroke="none" fill-opacity="0.498039215686" fill="#000000"/>
<path d="M371.5,113.0 H453.5 L460.0,100.0 L453.5,87.0 H371.5 L365.0,100.0 z" stroke="none" fill-opacity="0.498039215686" fill="#000000"/>
<path d="M203.0,161.0 A15.0,15.0 0 0,1 203.0,131.0 H209.0 A15.0,15.0 0 0,1 209.0,161.0 z" stroke="none" fill-opacity="0.498039215686" fill="#000000"/>
<path d="M203.0,197.0 A15.0,15.0 0 0,1 203.0,167.0 H213.0 A15.0,15.0 0 0,1 213.0,197.0 z" stroke="none" fill-opacity="0.498039215686" fill="#000000"/>
<path d="M203.0,233.0 A15.0,15.0 0 0,1 203.0,203.0 H213.0 A15.0,15.0 0 0,1 213.0,233.0 z" stroke="none" fill-opacity="0.498039215686" fill="#000000"/>
<path d="M281.5,159.0 H363.5 L370.0,146.0 L363.5,133.0 H281.5 L275.0,146.0 z" stroke="none" fill-opacity="0.498039215686" fill="#000000"/>
<path d="M193.0,269.0 A15.0,15.0 0 0,1 193.0,239.0 H205.0 A15.0,15.0 0 0,1 205.0,269.0 z" stroke="none" fill-opacity="0.498039215686" fill="#000000"/>
<path d="M280.5,267.0 H362.5 L369.0,254.0 L362.5,241.0 H280.5 L274.0,254.0 z" stroke="none" fill-opacity="0.498039215686" fill="#000000"/>
<path d="M315.5,308.0 A15.0,15.0 0 0,1 315.5,278.0 H327.5 A15.0,15.0 0 0,1 327.5,308.0 z" stroke="none" fill-opacity="0.498039215686" fill="#000000"/>
<path d="M430.0,269.0 A15.0,15.0 0 0,1 430.0,239.0 H442.0 A15.0,15.0 0 0,1 442.0,269.0 z" stroke="none" fill-opacity="0.498039215686" fill="#000000"/>
<circle cx="10" cy="62.0" r="3" stroke="#000000" stroke-width="2" fill="#FFFFFF"/>
<path d="M64.0,78.0 A15.0,15.0 0 0,1 64.0,48.0 H77.0 A15.0,15.0 0 0,1 77.0,78.0 z" stroke="#000000" stroke-width="2" fill="#FFFFFF"/>
<text class="token_font" x="70.5" y="69.5">@</text>
<line x1="69.0" y1="84.0" x2="70.0" y2="84.0" stroke="#000000" stroke-width="2" />
<line x1="30" y1="62.0" x2="48.0" y2="62.0" stroke="#000000" stroke-width="2" />
<line x1="93.0" y1="62.0" x2="112.0" y2="62.0" stroke="#000000" stroke-width="2" />
<path d="M39.0,71.0 A9,9 0 0,0 30.0,62.0" stroke="#000000" stroke-width="2" fill="none"/>
<line x1="48" y1="84.0" x2="65.0" y2="84.0" stroke="#000000" stroke-width="2" marker-end="url(#arrow)" />
<line x1="70.0" y1="84.0" x2="93.0" y2="84.0" stroke="#000000" stroke-width="2" />
<path d="M39.0,75.0 A9,9 0 0,0 48.0,84.0" stroke="#000000" stroke-width="2" fill="none"/>
<path d="M93.0,84.0 A9.0,9.0 0 0,0 102.0,75.0" stroke="#000000" stroke-width="2" fill="none"/>
<path d="M111.0,62.0 A9.0,9.0 0 0,0 102.0,71.0" stroke="#000000" stroke-width="2" fill="none"/>
<line x1="39" y1="75.0" x2="39" y2="71.0" stroke="#000000" stroke-width="2" />
<line x1="102.0" y1="75.0" x2="102.0" y2="71.0" stroke="#000000" stroke-width="2" />
<path d="M170.0,76.0 A13.0,13.0 0 0,1 170.0,50.0 H198.0 A13.0,13.0 0 0,1 198.0,76.0 z" stroke="#000000" stroke-width="2" fill="#FFFFFF"/>
<text class="bubble_font" x="184.0" y="69.0">null</text>
<path d="M163.5,110.0 H245.5 L252.0,97.0 L245.5,84.0 H163.5 L157.0,97.0 z" stroke="#000000" stroke-width="2" fill="#FFFFFF"/>
<text class="literal_font" x="204.5" y="102.5">text literal</text>
<path d="M304.0,112.0 A15.0,15.0 0 0,1 304.0,82.0 H310.0 A15.0,15.0 0 0,1 310.0,112.0 z" stroke="#000000" stroke-width="2" fill="#FFFFFF"/>
<text class="token_font" x="307.0" y="103.5">..</text>
<path d="M368.5,110.0 H450.5 L457.0,97.0 L450.5,84.0 H368.5 L362.0,97.0 z" stroke="#000000" stroke-width="2" fill="#FFFFFF"/>
<text class="literal_font" x="409.5" y="102.5">text literal</text>
<line x1="408.0" y1="116.0" x2="409.0" y2="116.0" stroke="#000000" stroke-width="2" />
<line x1="343.0" y1="96.0" x2="361.0" y2="96.0" stroke="#000000" stroke-width="2" />
<line x1="458.0" y1="96.0" x2="477.0" y2="96.0" stroke="#000000" stroke-width="2" />
<path d="M352.0,105.0 A9.0,9.0 0 0,0 343.0,96.0" stroke="#000000" stroke-width="2" fill="none"/>
<line x1="361.0" y1="116.0" x2="404.0" y2="116.0" stroke="#000000" stroke-width="2" marker-end="url(#arrow)" />
<line x1="409.0" y1="116.0" x2="458.0" y2="116.0" stroke="#000000" stroke-width="2" />
<path d="M352.0,107.0 A9.0,9.0 0 0,0 361.0,116.0" stroke="#000000" stroke-width="2" fill="none"/>
<path d="M458.0,116.0 A9.0,9.0 0 0,0 467.0,107.0" stroke="#000000" stroke-width="2" fill="none"/>
<path d="M476.0,96.0 A9.0,9.0 0 0,0 467.0,105.0" stroke="#000000" stroke-width="2" fill="none"/>
<line x1="352.0" y1="107.0" x2="352.0" y2="105.0" stroke="#000000" stroke-width="2" />
<line x1="467.0" y1="107.0" x2="467.0" y2="105.0" stroke="#000000" stroke-width="2" />
<line x1="325.0" y1="96.0" x2="339.0" y2="96.0" stroke="#000000" stroke-width="2" marker-end="url(#arrow)" />
<line x1="381.5" y1="122.0" x2="382.5" y2="122.0" stroke="#000000" stroke-width="2" />
<line x1="270.0" y1="96.0" x2="288.0" y2="96.0" stroke="#000000" stroke-width="2" />
<line x1="476.0" y1="96.0" x2="497.0" y2="96.0" stroke="#000000" stroke-width="2" />
<path d="M279.0,105.0 A9.0,9.0 0 0,0 270.0,96.0" stroke="#000000" stroke-width="2" fill="none"/>
<line x1="288.0" y1="122.0" x2="377.5" y2="122.0" stroke="#000000" stroke-width="2" marker-end="url(#arrow)" />
<line x1="382.5" y1="122.0" x2="478.0" y2="122.0" stroke="#000000" stroke-width="2" />
<path d="M279.0,113.0 A9.0,9.0 0 0,0 288.0,122.0" stroke="#000000" stroke-width="2" fill="none"/>
<path d="M478.0,122.0 A9.0,9.0 0 0,0 487.0,113.0" stroke="#000000" stroke-width="2" fill="none"/>
<path d="M496.0,96.0 A9.0,9.0 0 0,0 487.0,105.0" stroke="#000000" stroke-width="2" fill="none"/>
<line x1="279.0" y1="113.0" x2="279.0" y2="105.0" stroke="#000000" stroke-width="2" />
<line x1="487.0" y1="113.0" x2="487.0" y2="105.0" stroke="#000000" stroke-width="2" />
<line x1="252.0" y1="96.0" x2="266.0" y2="96.0" stroke="#000000" stroke-width="2" marker-end="url(#arrow)" />
<path d="M200.0,158.0 A15.0,15.0 0 0,1 200.0,128.0 H206.0 A15.0,15.0 0 0,1 206.0,158.0 z" stroke="#000000" stroke-width="2" fill="#FFFFFF"/>
<text class="token_font" x="203.0" y="149.5">..</text>
<path d="M200.0,194.0 A15.0,15.0 0 0,1 200.0,164.0 H210.0 A15.0,15.0 0 0,1 210.0,194.0 z" stroke="#000000" stroke-width="2" fill="#FFFFFF"/>
<text class="token_font" x="205.0" y="185.5">&gt;</text>
<path d="M200.0,230.0 A15.0,15.0 0 0,1 200.0,200.0 H210.0 A15.0,15.0 0 0,1 210.0,230.0 z" stroke="#000000" stroke-width="2" fill="#FFFFFF"/>
<text class="token_font" x="205.0" y="221.5">&lt;</text>
<line x1="156.0" y1="142.0" x2="180.0" y2="142.0" stroke="#000000" stroke-width="2" marker-end="url(#arrow)" />
<line x1="222.0" y1="142.0" x2="255.0" y2="142.0" stroke="#000000" stroke-width="2" />
<path d="M165.0,151.0 A9.0,9.0 0 0,0 156.0,142.0" stroke="#000000" stroke-width="2" fill="none"/>
<line x1="174.0" y1="178.0" x2="180.0" y2="178.0" stroke="#000000" stroke-width="2" marker-end="url(#arrow)" />
<line x1="226.0" y1="178.0" x2="236.0" y2="178.0" stroke="#000000" stroke-width="2" />
<path d="M165.0,169.0 A9.0,9.0 0 0,0 174.0,178.0" stroke="#000000" stroke-width="2" fill="none"/>
<path d="M236.0,178.0 A9.0,9.0 0 0,0 245.0,169.0" stroke="#000000" stroke-width="2" fill="none"/>
<line x1="174.0" y1="214.0" x2="180.0" y2="214.0" stroke="#000000" stroke-width="2" marker-end="url(#arrow)" />
<line x1="226.0" y1="214.0" x2="236.0" y2="214.0" stroke="#000000" stroke-width="2" />
<path d="M165.0,205.0 A9.0,9.0 0 0,0 174.0,214.0" stroke="#000000" stroke-width="2" fill="none"/>
<path d="M236.0,214.0 A9.0,9.0 0 0,0 245.0,205.0" stroke="#000000" stroke-width="2" fill="none"/>
<path d="M254.0,142.0 A9.0,9.0 0 0,0 245.0,151.0" stroke="#000000" stroke-width="2" fill="none"/>
<line x1="165.0" y1="205.0" x2="165.0" y2="151.0" stroke="#000000" stroke-width="2" />
<line x1="245.0" y1="205.0" x2="245.0" y2="151.0" stroke="#000000" stroke-width="2" />
<path d="M278.5,156.0 H360.5 L367.0,143.0 L360.5,130.0 H278.5 L272.0,143.0 z" stroke="#000000" stroke-width="2" fill="#FFFFFF"/>
<text class="literal_font" x="319.5" y="148.5">text literal</text>
<line x1="253.0" y1="142.0" x2="267.0" y2="142.0" stroke="#000000" stroke-width="2" marker-end="url(#arrow)" />
<path d="M190.0,266.0 A15.0,15.0 0 0,1 190.0,236.0 H202.0 A15.0,15.0 0 0,1 202.0,266.0 z" stroke="#000000" stroke-width="2" fill="#FFFFFF"/>
<text class="token_font" x="196.0" y="257.5">%</text>
<line x1="194.5" y1="272.0" x2="195.5" y2="272.0" stroke="#000000" stroke-width="2" />
<line x1="156.0" y1="250.0" x2="174.0" y2="250.0" stroke="#000000" stroke-width="2" />
<line x1="218.0" y1="250.0" x2="237.0" y2="250.0" stroke="#000000" stroke-width="2" />
<path d="M165.0,259.0 A9.0,9.0 0 0,0 156.0,250.0" stroke="#000000" stroke-width="2" fill="none"/>
<line x1="174.0" y1="272.0" x2="190.5" y2="272.0" stroke="#000000" stroke-width="2" marker-end="url(#arrow)" />
<line x1="195.5" y1="272.0" x2="218.0" y2="272.0" stroke="#000000" stroke-width="2" />
<path d="M165.0,263.0 A9.0,9.0 0 0,0 174.0,272.0" stroke="#000000" stroke-width="2" fill="none"/>
<path d="M218.0,272.0 A9.0,9.0 0 0,0 227.0,263.0" stroke="#000000" stroke-width="2" fill="none"/>
<path d="M236.0,250.0 A9.0,9.0 0 0,0 227.0,259.0" stroke="#000000" stroke-width="2" fill="none"/>
<line x1="165.0" y1="263.0" x2="165.0" y2="259.0" stroke="#000000" stroke-width="2" />
<line x1="227.0" y1="263.0" x2="227.0" y2="259.0" stroke="#000000" stroke-width="2" />
<path d="M277.5,264.0 H359.5 L366.0,251.0 L359.5,238.0 H277.5 L271.0,251.0 z" stroke="#000000" stroke-width="2" fill="#FFFFFF"/>
<text class="literal_font" x="318.5" y="256.5">text literal</text>
<path d="M312.5,305.0 A15.0,15.0 0 0,1 312.5,275.0 H324.5 A15.0,15.0 0 0,1 324.5,305.0 z" stroke="#000000" stroke-width="2" fill="#FFFFFF"/>
<text class="token_font" x="318.5" y="296.5">%</text>
<line x1="270.0" y1="289.0" x2="296.5" y2="289.0" stroke="#000000" stroke-width="2" />
<line x1="367.0" y1="289.0" x2="344.5" y2="289.0" stroke="#000000" stroke-width="2" marker-end="url(#arrow)" />
<line x1="253.0" y1="250.0" x2="270.0" y2="250.0" stroke="#000000" stroke-width="2" />
<path d="M270.0,250.0 A9.0,9.0 0 0,0 261.0,259.0" stroke="#000000" stroke-width="2" fill="none"/>
<line x1="261.0" y1="280.0" x2="261.0" y2="273.5" stroke="#000000" stroke-width="2" marker-end="url(#arrow)" />
<line x1="261.0" y1="269.5" x2="261.0" y2="259.0" stroke="#000000" stroke-width="2" />
<path d="M261.0,280.0 A9.0,9.0 0 0,0 270.0,289.0" stroke="#000000" stroke-width="2" fill="none"/>
<path d="M376.0,259.0 A9.0,9.0 0 0,0 367.0,250.0" stroke="#000000" stroke-width="2" fill="none"/>
<line x1="376.0" y1="259.0" x2="376.0" y2="265.5" stroke="#000000" stroke-width="2" marker-end="url(#arrow)" />
<line x1="376.0" y1="269.5" x2="376.0" y2="280.0" stroke="#000000" stroke-width="2" />
<path d="M367.0,289.0 A9.0,9.0 0 0,0 376.0,280.0" stroke="#000000" stroke-width="2" fill="none"/>
<line x1="367.0" y1="250.0" x2="376.0" y2="250.0" stroke="#000000" stroke-width="2" />
<line x1="235.0" y1="250.0" x2="249.0" y2="250.0" stroke="#000000" stroke-width="2" marker-end="url(#arrow)" />
<path d="M427.0,266.0 A15.0,15.0 0 0,1 427.0,236.0 H439.0 A15.0,15.0 0 0,1 439.0,266.0 z" stroke="#000000" stroke-width="2" fill="#FFFFFF"/>
<text class="token_font" x="433.0" y="257.5">%</text>
<line x1="431.5" y1="272.0" x2="432.5" y2="272.0" stroke="#000000" stroke-width="2" />
<line x1="393.0" y1="250.0" x2="411.0" y2="250.0" stroke="#000000" stroke-width="2" />
<line x1="455.0" y1="250.0" x2="474.0" y2="250.0" stroke="#000000" stroke-width="2" />
<path d="M402.0,259.0 A9.0,9.0 0 0,0 393.0,250.0" stroke="#000000" stroke-width="2" fill="none"/>
<line x1="411.0" y1="272.0" x2="427.5" y2="272.0" stroke="#000000" stroke-width="2" marker-end="url(#arrow)" />
<line x1="432.5" y1="272.0" x2="455.0" y2="272.0" stroke="#000000" stroke-width="2" />
<path d="M402.0,263.0 A9.0,9.0 0 0,0 411.0,272.0" stroke="#000000" stroke-width="2" fill="none"/>
<path d="M455.0,272.0 A9.0,9.0 0 0,0 464.0,263.0" stroke="#000000" stroke-width="2" fill="none"/>
<path d="M473.0,250.0 A9.0,9.0 0 0,0 464.0,259.0" stroke="#000000" stroke-width="2" fill="none"/>
<line x1="402.0" y1="263.0" x2="402.0" y2="259.0" stroke="#000000" stroke-width="2" />
<line x1="464.0" y1="263.0" x2="464.0" y2="259.0" stroke="#000000" stroke-width="2" />
<line x1="375.0" y1="250.0" x2="389.0" y2="250.0" stroke="#000000" stroke-width="2" marker-end="url(#arrow)" />
<line x1="128.0" y1="62.0" x2="152.0" y2="62.0" stroke="#000000" stroke-width="2" marker-end="url(#arrow)" />
<line x1="212.0" y1="62.0" x2="527.0" y2="62.0" stroke="#000000" stroke-width="2" />
<path d="M137.0,71.0 A9.0,9.0 0 0,0 128.0,62.0" stroke="#000000" stroke-width="2" fill="none"/>
<line x1="146.0" y1="96.0" x2="152.0" y2="96.0" stroke="#000000" stroke-width="2" marker-end="url(#arrow)" />
<line x1="496.0" y1="96.0" x2="508.0" y2="96.0" stroke="#000000" stroke-width="2" />
<path d="M137.0,87.0 A9.0,9.0 0 0,0 146.0,96.0" stroke="#000000" stroke-width="2" fill="none"/>
<path d="M508.0,96.0 A9.0,9.0 0 0,0 517.0,87.0" stroke="#000000" stroke-width="2" fill="none"/>
<line x1="146.0" y1="142.0" x2="152.0" y2="142.0" stroke="#000000" stroke-width="2" marker-end="url(#arrow)" />
<line x1="368.0" y1="142.0" x2="508.0" y2="142.0" stroke="#000000" stroke-width="2" />
<path d="M137.0,133.0 A9.0,9.0 0 0,0 146.0,142.0" stroke="#000000" stroke-width="2" fill="none"/>
<path d="M508.0,142.0 A9.0,9.0 0 0,0 517.0,133.0" stroke="#000000" stroke-width="2" fill="none"/>
<line x1="146.0" y1="250.0" x2="152.0" y2="250.0" stroke="#000000" stroke-width="2" marker-end="url(#arrow)" />
<line x1="473.0" y1="250.0" x2="508.0" y2="250.0" stroke="#000000" stroke-width="2" />
<path d="M137.0,241.0 A9.0,9.0 0 0,0 146.0,250.0" stroke="#000000" stroke-width="2" fill="none"/>
<path d="M508.0,250.0 A9.0,9.0 0 0,0 517.0,241.0" stroke="#000000" stroke-width="2" fill="none"/>
<path d="M526.0,62.0 A9.0,9.0 0 0,0 517.0,71.0" stroke="#000000" stroke-width="2" fill="none"/>
<line x1="137.0" y1="241.0" x2="137.0" y2="71.0" stroke="#000000" stroke-width="2" />
<line x1="517.0" y1="241.0" x2="517.0" y2="71.0" stroke="#000000" stroke-width="2" />
<line x1="110.0" y1="62.0" x2="124.0" y2="62.0" stroke="#000000" stroke-width="2" marker-end="url(#arrow)" />
<line x1="12" y1="62.0" x2="26.0" y2="62.0" stroke="#000000" stroke-width="2" marker-end="url(#arrow)" />
<circle cx="546.0" cy="62.0" r="3.0" stroke="#000000" stroke-width="2" fill="#FFFFFF"/>
<line x1="525.0" y1="62.0" x2="539.0" y2="62.0" stroke="#000000" stroke-width="2" marker-end="url(#arrow)" />
<text class="title_font" x="86.0" y="30.0">text_term</text>
</svg>