<?xml version="1.0" encoding="UTF-8" standalone="no"?>
<!-- Created by Syntax-Trax http://kevinpt.github.io/syntax-trax -->
<svg xmlns="http://www.w3.org/2000/svg"
xmlns:xlink="http://www.w3.org/1999/xlink"
xml:space="preserve"
width="568" height="86" version="1.1">
<style type="text/css">
<![CDATA[
.box_font {fill:#000000; text-anchor:middle;
    font-family:Times; font-size:14pt; font-weight:regular; font-style:normal;}
.literal_font {fill:#000000; text-anchor:middle;
    font-family:Times; font-size:14pt; font-weight:regular; font-style:normal;}
.title_font {fill:#000000; text-anchor:middle;
    font-family:Sans; font-size:22pt; font-weight:bold; font-style:normal;}
.bubble_font {fill:#000000; text-anchor:middle;
    font-family:Sans; font-size:14pt; font-weight:regular; font-style:normal;}
.token_font {fill:#000000; text-anchor:middle;
    font-family:Sans; font-size:16pt; font-weight:regular; font-style:normal;}
.label {fill:#000;
  text-anchor:middle;
  font-size:16pt; font-weight:bold; font-family:Sans;}
.link {fill: #0D47A1;}
.link:hover {fill: #0D47A1; text-decoration:underline;}
.link:visited {fill: #4A148C;}
]]>
</style>
<defs>
  <marker id="arrow" markerWidth="5" markerHeight="4" refX="2.5" refY="2" orient="auto" markerUnits="strokeWidth">
    <path d="M0,0 L0.5,2 L0,4 L4.5,2 z" fill="#000000" />
  </marker>
</defs>
<rect width="100%" height="100%" fill="white"/><path d="M47.0,77.0 A13.0,13.0 0 0,1 47.0,51.0 H90.0 A13.0,13.0 0 0,1 90.0,77.0 z" stroke="none" fill-opacity="0.498039215686" fill="#000000"/>
<rect x="122.0" y="51.0" width="90.0" height="26.0" stroke="none" fill-opacity="0.498039215686" fill="#000000"/>
<path d="M262.0,77.0 A13.0,13.0 0 0,1 262.0,51.0 H339.0 A13.0,13.0 0 0,1 339.0,77.0 z" stroke="none" fill-opacity="0.498039215686" fill="#000000"/>
<path d="M377.5,77.0 H516.5 L523.0,64.0 L516.5,51.0 H377.5 L371.0,64.0 z" stroke="none" fill-opacity="0.498039215686" fill="#000000"/>
<circle cx="10" cy="60.0" r="3" stroke="#000000" stroke-width="2" fill="#FFFFFF"/>
<path d="M44.0,74.0 A13.0,13.0 0 0,1 44.0,48.0 H87.0 A13.0,13.0 0 0,1 87.0,74.0 z" stroke="#000000" stroke-width="2" fill="#FFFFFF"/>
<text class="bubble_font" x="65.5" y="67.0">REAL</text>
<rect x="119.0" y="48.0" width="90.0" height="26.0" stroke="#000000" stroke-width="2" fill="#FFFFFF"/>
<a xlink:href=".#nullability" target="_parent">
  <text class="box_font link" x="164.0" y="66.5">nullability</text></a>
<line x1="100.0" y1="60.0" x2="114.0" y2="60.0" stroke="#000000" stroke-width="2" marker-end="url(#arrow)" />
<path d="M259.0,74.0 A13.0,13.0 0 0,1 259.0,48.0 H336.0 A13.0,13.0 0 0,1 336.0,74.0 z" stroke="#000000" stroke-width="2" fill="#FFFFFF"/>
<text class="bubble_font" x="297.5" y="67.0">DEFAULT</text>
<path d="M374.5,74.0 H513.5 L520.0,61.0 L513.5,48.0 H374.5 L368.0,61.0 z" stroke="#000000" stroke-width="2" fill="#FFFFFF"/>
<text class="literal_font" x="444.0" y="66.5">float.-point literal</text>
<line x1="349.0" y1="60.0" x2="363.0" y2="60.0" stroke="#000000" stroke-width="2" marker-end="url(#arrow)" />
<line x1="381.5" y1="80.0" x2="382.5" y2="80.0" stroke="#000000" stroke-width="2" />
<line x1="227.0" y1="60.0" x2="245.0" y2="60.0" stroke="#000000" stroke-width="2" />
<line x1="521.0" y1="60.0" x2="540.0" y2="60.0" stroke="#000000" stroke-width="2" />
<path d="M236.0,69.0 A9.0,9.0 0 0,0 227.0,60.0" stroke="#000000" stroke-width="2" fill="none"/>
<line x1="245.0" y1="80.0" x2="377.5" y2="80.0" stroke="#000000" stroke-width="2" marker-end="url(#arrow)" />
<line x1="382.5" y1="80.0" x2="521.0" y2="80.0" stroke="#000000" stroke-width="2" />
<path d="M236.0,71.0 A9.0,9.0 0 0,0 245.0,80.0" stroke="#000000" stroke-width="2" fill="none"/>
<path d="M521.0,80.0 A9.0,9.0 0 0,0 530.0,71.0" stroke="#000000" stroke-width="2" fill="none"/>
<path d="M539.0,60.0 A9.0,9.0 0 0,0 530.0,69.0" stroke="#000000" stroke-width="2" fill="none"/>
<line x1="236.0" y1="71.0" x2="236.0" y2="69.0" stroke="#000000" stroke-width="2" />
<line x1="530.0" y1="71.0" x2="530.0" y2="69.0" stroke="#000000" stroke-width="2" />
<line x1="209.0" y1="60.0" x2="223.0" y2="60.0" stroke="#000000" stroke-width="2" marker-end="url(#arrow)" />
<line x1="12" y1="60.0" x2="26.0" y2="60.0" stroke="#000000" stroke-width="2" marker-end="url(#arrow)" />
<circle cx="559.0" cy="60.0" r="3.0" stroke="#000000" stroke-width="2" fill="#FFFFFF"/>
<line x1="538.0" y1="60.0" x2="552.0" y2="60.0" stroke="#000000" stroke-width="2" marker-end="url(#arrow)" />
<text class="title_font" x="114.0" y="30.0">floating_field</text>
</svg>