<?xml version="1.0" encoding="UTF-8" standalone="no"?>
<!-- Created by Syntax-Trax http://kevinpt.github.io/syntax-trax -->
<svg xmlns="http://www.w3.org/2000/svg"
xmlns:xlink="http://www.w3.org/1999/xlink"
xml:space="preserve"
width="517" height="120" version="1.1">
<style type="text/css">
<![CDATA[
.box_font {fill:#000000; text-anchor:middle;
    font-family:Times; font-size:14pt; font-weight:regular; font-style:normal;}
.literal_font {fill:#000000; text-anchor:middle;
    font-family:Times; font-size:14pt; font-weight:regular; font-style:normal;}
.title_font {fill:#000000; text-anchor:middle;
    font-family:Sans; font-size:22pt; font-weight:bold; font-style:normal;}
.bubble_font {fill:#000000; text-anchor:middle;
    font-family:Sans; font-size:14pt; font-weight:regular; font-style:normal;}
.token_font {fill:#000000; text-anchor:middle;
    font-family:Sans; font-size:16pt; font-weight:regular; font-style:normal;}
.label {fill:#000;
  text-anchor:middle;
  font-size:16pt; font-weight:bold; font-family:Sans;}
.link {fill: #0D47A1;}
.link:hover {fill: #0D47A1; text-decoration:underline;}
.link:visited {fill: #4A148C;}
]]>
</style>
<defs>
  <marker id="arrow" markerWidth="5" markerHeight="4" refX="2.5" refY="2" orient="auto" markerUnits="strokeWidth">
    <path d="M0,0 L0.5,2 L0,4 L4.5,2 z" fill="#000000" />
  </marker>
</defs>
<rect width="100%" height="100%" fill="white"/><path d="M68.5,79.0 A13.0,13.0 0 0,1 68.5,53.0 H130.5 A13.0,13.0 0 0,1 130.5,79.0 z" stroke="none" fill-opacity="0.498039215686" fill="#000000"/>
<circle cx="177.5" cy="66.0" r="15.0" stroke="none" fill-opacity="0.498039215686" fill="#000000"/>
<path d="M226.5,81.0 A15.0,15.0 0 0,1 226.5,51.0 H229.5 A15.0,15.0 0 0,1 229.5,81.0 z" stroke="none" fill-opacity="0.498039215686" fill="#000000"/>
<circle cx="278.5" cy="66.0" r="15.0" stroke="none" fill-opacity="0.498039215686" fill="#000000"/>
<path d="M75.0,115.0 A13.0,13.0 0 0,1 75.0,89.0 H111.0 A13.0,13.0 0 0,1 111.0,115.0 z" stroke="none" fill-opacity="0.498039215686" fill="#000000"/>
<circle cx="158.0" cy="102.0" r="15.0" stroke="none" fill-opacity="0.498039215686" fill="#000000"/>
<rect x="192.0" y="89.0" width="46.0" height="26.0" stroke="none" fill-opacity="0.498039215686" fill="#000000"/>
<circle cx="272.0" cy="102.0" r="15.0" stroke="none" fill-opacity="0.498039215686" fill="#000000"/>
<path d="M347.0,79.0 A13.0,13.0 0 0,1 347.0,53.0 H366.0 A13.0,13.0 0 0,1 366.0,79.0 z" stroke="none" fill-opacity="0.498039215686" fill="#000000"/>
<path d="M404.5,79.0 H483.5 L490.0,66.0 L483.5,53.0 H404.5 L398.0,66.0 z" stroke="none" fill-opacity="0.498039215686" fill="#000000"/>
<circle cx="10" cy="62.0" r="3" stroke="#000000" stroke-width="2" fill="#FFFFFF"/>
<path d="M65.5,76.0 A13.0,13.0 0 0,1 65.5,50.0 H127.5 A13.0,13.0 0 0,1 127.5,76.0 z" stroke="#000000" stroke-width="2" fill="#FFFFFF"/>
<text class="bubble_font" x="96.5" y="69.0">COUNT</text>
<circle cx="174.5" cy="63.0" r="15.0" stroke="#000000" stroke-width="2" fill="#FFFFFF"/>
<text class="token_font" x="174.5" y="69.5">(</text>
<line x1="140.5" y1="62.0" x2="154.5" y2="62.0" stroke="#000000" stroke-width="2" marker-end="url(#arrow)" />
<path d="M223.5,78.0 A15.0,15.0 0 0,1 223.5,48.0 H226.5 A15.0,15.0 0 0,1 226.5,78.0 z" stroke="#000000" stroke-width="2" fill="#FFFFFF"/>
<text class="token_font" x="225.0" y="69.5">*</text>
<line x1="189.5" y1="62.0" x2="203.5" y2="62.0" stroke="#000000" stroke-width="2" marker-end="url(#arrow)" />
<circle cx="275.5" cy="63.0" r="15.0" stroke="#000000" stroke-width="2" fill="#FFFFFF"/>
<text class="token_font" x="275.5" y="69.5">)</text>
<line x1="241.5" y1="62.0" x2="255.5" y2="62.0" stroke="#000000" stroke-width="2" marker-end="url(#arrow)" />
<path d="M72.0,112.0 A13.0,13.0 0 0,1 72.0,86.0 H108.0 A13.0,13.0 0 0,1 108.0,112.0 z" stroke="#000000" stroke-width="2" fill="#FFFFFF"/>
<text class="bubble_font" x="90.0" y="105.0">SUM</text>
<circle cx="155.0" cy="99.0" r="15.0" stroke="#000000" stroke-width="2" fill="#FFFFFF"/>
<text class="token_font" x="155.0" y="105.5">(</text>
<line x1="121.0" y1="98.0" x2="135.0" y2="98.0" stroke="#000000" stroke-width="2" marker-end="url(#arrow)" />
<rect x="189.0" y="86.0" width="46.0" height="26.0" stroke="#000000" stroke-width="2" fill="#FFFFFF"/>
<a xlink:href=".#term" target="_parent">
  <text class="box_font link" x="212.0" y="104.5">term</text></a>
<line x1="170.0" y1="98.0" x2="184.0" y2="98.0" stroke="#000000" stroke-width="2" marker-end="url(#arrow)" />
<circle cx="269.0" cy="99.0" r="15.0" stroke="#000000" stroke-width="2" fill="#FFFFFF"/>
<text class="token_font" x="269.0" y="105.5">)</text>
<line x1="235.0" y1="98.0" x2="249.0" y2="98.0" stroke="#000000" stroke-width="2" marker-end="url(#arrow)" />
<line x1="30" y1="62.0" x2="47.5" y2="62.0" stroke="#000000" stroke-width="2" marker-end="url(#arrow)" />
<line x1="291.5" y1="62.0" x2="314.0" y2="62.0" stroke="#000000" stroke-width="2" />
<path d="M39.0,71.0 A9,9 0 0,0 30.0,62.0" stroke="#000000" stroke-width="2" fill="none"/>
<line x1="48" y1="98.0" x2="54.0" y2="98.0" stroke="#000000" stroke-width="2" marker-end="url(#arrow)" />
<line x1="285.0" y1="98.0" x2="295.0" y2="98.0" stroke="#000000" stroke-width="2" />
<path d="M39.0,89.0 A9,9 0 0,0 48.0,98.0" stroke="#000000" stroke-width="2" fill="none"/>
<path d="M295.0,98.0 A9.0,9.0 0 0,0 304.0,89.0" stroke="#000000" stroke-width="2" fill="none"/>
<path d="M313.0,62.0 A9.0,9.0 0 0,0 304.0,71.0" stroke="#000000" stroke-width="2" fill="none"/>
<line x1="39" y1="89.0" x2="39" y2="71.0" stroke="#000000" stroke-width="2" />
<line x1="304.0" y1="89.0" x2="304.0" y2="71.0" stroke="#000000" stroke-width="2" />
<path d="M344.0,76.0 A13.0,13.0 0 0,1 344.0,50.0 H363.0 A13.0,13.0 0 0,1 363.0,76.0 z" stroke="#000000" stroke-width="2" fill="#FFFFFF"/>
<text class="bubble_font" x="353.5" y="69.0">AS</text>
<line x1="312.0" y1="62.0" x2="326.0" y2="62.0" stroke="#000000" stroke-width="2" marker-end="url(#arrow)" />
<path d="M401.5,76.0 H480.5 L487.0,63.0 L480.5,50.0 H401.5 L395.0,63.0 z" stroke="#000000" stroke-width="2" fill="#FFFFFF"/>
<text class="literal_font" x="441.0" y="68.5">field alias</text>
<line x1="376.0" y1="62.0" x2="390.0" y2="62.0" stroke="#000000" stroke-width="2" marker-end="url(#arrow)" />
<line x1="12" y1="62.0" x2="26.0" y2="62.0" stroke="#000000" stroke-width="2" marker-end="url(#arrow)" />
<circle cx="508.0" cy="62.0" r="3.0" stroke="#000000" stroke-width="2" fill="#FFFFFF"/>
<line x1="487.0" y1="62.0" x2="501.0" y2="62.0" stroke="#000000" stroke-width="2" marker-end="url(#arrow)" />
<text class="title_font" x="202.0" y="30.0">materialized_aggregate</text>
</svg>