<?xml version="1.0" encoding="UTF-8" standalone="no"?>
<!-- Created by Syntax-Trax http://kevinpt.github.io/syntax-trax -->
<svg xmlns="http://www.w3.org/2000/svg"
xmlns:xlink="http://www.w3.org/1999/xlink"
xml:space="preserve"
width="524" height="190" version="1.1">
<style type="text/css">
<![CDATA[
.box_font {fill:#000000; text-anchor:middle;
    font-family:Times; font-size:14pt; font-weight:regular; font-style:normal;}
.literal_font {fill:#000000; text-anchor:middle;
    font-family:Times; font-size:14pt; font-weight:regular; font-style:normal;}
.title_font {fill:#000000; text-anchor:middle;
    font-family:Sans; font-size:22pt; font-weight:bold; font-style:normal;}
.bubble_font {fill:#000000; text-anchor:middle;
    font-family:Sans; font-size:14pt; font-weight:regular; font-style:normal;}
.token_font {fill:#000000; text-anchor:middle;
    font-family:Sans; font-size:16pt; font-weight:regular; font-style:normal;}
.label {fill:#000;
  text-anchor:middle;
  font-size:16pt; font-weight:bold; font-family:Sans;}
.link {fill: #0D47A1;}
.link:hover {fill: #0D47A1; text-decoration:underline;}
.link:visited {fill: #4A148C;}
]]>
</style>
<defs>
  <marker id="arrow" markerWidth="5" markerHeight="4" refX="2.5" refY="2" orient="auto" markerUnits="strokeWidth">
    <path d="M0,0 L0.5,2 L0,4 L4.5,2 z" fill="#000000" />
  </marker>
</defs>
<rect width="100%" height="100%" fill="white"/><path d="M47.0,77.0 A13.0,13.0 0 0,1 47.0,51.0 H92.0 A13.0,13.0 0 0,1 92.0,77.0 z" stroke="none" fill-opacity="0.498039215686" fill="#000000"/>
<path d="M165.0,77.0 A13.0,13.0 0 0,1 165.0,51.0 H212.0 A13.0,13.0 0 0,1 212.0,77.0 z" stroke="none" fill-opacity="0.498039215686" fill="#000000"/>
<path d="M257.0,77.0 A13.0,13.0 0 0,1 257.0,51.0 H300.0 A13.0,13.0 0 0,1 300.0,77.0 z" stroke="none" fill-opacity="0.498039215686" fill="#000000"/>
<path d="M183.0,109.0 A13.0,13.0 0 0,1 183.0,83.0 H206.0 A13.0,13.0 0 0,1 206.0,109.0 z" stroke="none" fill-opacity="0.498039215686" fill="#000000"/>
<path d="M269.0,109.0 A13.0,13.0 0 0,1 269.0,83.0 H348.0 A13.0,13.0 0 0,1 348.0,109.0 z" stroke="none" fill-opacity="0.498039215686" fill="#000000"/>
<path d="M393.0,109.0 A13.0,13.0 0 0,1 393.0,83.0 H451.0 A13.0,13.0 0 0,1 451.0,109.0 z" stroke="none" fill-opacity="0.498039215686" fill="#000000"/>
<path d="M239.0,187.0 A13.0,13.0 0 0,1 239.0,161.0 H262.0 A13.0,13.0 0 0,1 262.0,187.0 z" stroke="none" fill-opacity="0.498039215686" fill="#000000"/>
<path d="M307.0,187.0 A13.0,13.0 0 0,1 307.0,161.0 H431.0 A13.0,13.0 0 0,1 431.0,187.0 z" stroke="none" fill-opacity="0.498039215686" fill="#000000"/>
<circle cx="10" cy="60.0" r="3" stroke="#000000" stroke-width="2" fill="#FFFFFF"/>
<path d="M44.0,74.0 A13.0,13.0 0 0,1 44.0,48.0 H89.0 A13.0,13.0 0 0,1 89.0,74.0 z" stroke="#000000" stroke-width="2" fill="#FFFFFF"/>
<text class="bubble_font" x="66.5" y="67.0">WITH</text>
<path d="M162.0,74.0 A13.0,13.0 0 0,1 162.0,48.0 H209.0 A13.0,13.0 0 0,1 209.0,74.0 z" stroke="#000000" stroke-width="2" fill="#FFFFFF"/>
<text class="bubble_font" x="185.5" y="67.0">READ</text>
<path d="M254.0,74.0 A13.0,13.0 0 0,1 254.0,48.0 H297.0 A13.0,13.0 0 0,1 297.0,74.0 z" stroke="#000000" stroke-width="2" fill="#FFFFFF"/>
<text class="bubble_font" x="275.5" y="67.0">ONLY</text>
<line x1="222.0" y1="60.0" x2="236.0" y2="60.0" stroke="#000000" stroke-width="2" marker-end="url(#arrow)" />
<path d="M180.0,106.0 A13.0,13.0 0 0,1 180.0,80.0 H203.0 A13.0,13.0 0 0,1 203.0,106.0 z" stroke="#000000" stroke-width="2" fill="#FFFFFF"/>
<text class="bubble_font" x="191.5" y="99.0">NO</text>
<line x1="190.0" y1="112.0" x2="191.0" y2="112.0" stroke="#000000" stroke-width="2" />
<line x1="148.0" y1="92.0" x2="166.0" y2="92.0" stroke="#000000" stroke-width="2" />
<line x1="217.0" y1="92.0" x2="236.0" y2="92.0" stroke="#000000" stroke-width="2" />
<path d="M157.0,101.0 A9.0,9.0 0 0,0 148.0,92.0" stroke="#000000" stroke-width="2" fill="none"/>
<line x1="166.0" y1="112.0" x2="186.0" y2="112.0" stroke="#000000" stroke-width="2" marker-end="url(#arrow)" />
<line x1="191.0" y1="112.0" x2="217.0" y2="112.0" stroke="#000000" stroke-width="2" />
<path d="M157.0,103.0 A9.0,9.0 0 0,0 166.0,112.0" stroke="#000000" stroke-width="2" fill="none"/>
<path d="M217.0,112.0 A9.0,9.0 0 0,0 226.0,103.0" stroke="#000000" stroke-width="2" fill="none"/>
<path d="M235.0,92.0 A9.0,9.0 0 0,0 226.0,101.0" stroke="#000000" stroke-width="2" fill="none"/>
<line x1="157.0" y1="103.0" x2="157.0" y2="101.0" stroke="#000000" stroke-width="2" />
<line x1="226.0" y1="103.0" x2="226.0" y2="101.0" stroke="#000000" stroke-width="2" />
<path d="M266.0,106.0 A13.0,13.0 0 0,1 266.0,80.0 H345.0 A13.0,13.0 0 0,1 345.0,106.0 z" stroke="#000000" stroke-width="2" fill="#FFFFFF"/>
<text class="bubble_font" x="305.5" y="99.0">VERSION</text>
<line x1="234.0" y1="92.0" x2="248.0" y2="92.0" stroke="#000000" stroke-width="2" marker-end="url(#arrow)" />
<path d="M390.0,106.0 A13.0,13.0 0 0,1 390.0,80.0 H448.0 A13.0,13.0 0 0,1 448.0,106.0 z" stroke="#000000" stroke-width="2" fill="#FFFFFF"/>
<text class="bubble_font" x="419.0" y="99.0">CHECK</text>
<line x1="358.0" y1="92.0" x2="372.0" y2="92.0" stroke="#000000" stroke-width="2" marker-end="url(#arrow)" />
<line x1="120.0" y1="60.0" x2="144.0" y2="60.0" stroke="#000000" stroke-width="2" marker-end="url(#arrow)" />
<line x1="311.0" y1="60.0" x2="492.0" y2="60.0" stroke="#000000" stroke-width="2" />
<path d="M129.0,69.0 A9.0,9.0 0 0,0 120.0,60.0" stroke="#000000" stroke-width="2" fill="none"/>
<line x1="138.0" y1="92.0" x2="144.0" y2="92.0" stroke="#000000" stroke-width="2" marker-end="url(#arrow)" />
<line x1="462.0" y1="92.0" x2="473.0" y2="92.0" stroke="#000000" stroke-width="2" />
<path d="M129.0,83.0 A9.0,9.0 0 0,0 138.0,92.0" stroke="#000000" stroke-width="2" fill="none"/>
<path d="M473.0,92.0 A9.0,9.0 0 0,0 482.0,83.0" stroke="#000000" stroke-width="2" fill="none"/>
<path d="M491.0,60.0 A9.0,9.0 0 0,0 482.0,69.0" stroke="#000000" stroke-width="2" fill="none"/>
<line x1="129.0" y1="83.0" x2="129.0" y2="69.0" stroke="#000000" stroke-width="2" />
<line x1="482.0" y1="83.0" x2="482.0" y2="69.0" stroke="#000000" stroke-width="2" />
<line x1="102.0" y1="60.0" x2="116.0" y2="60.0" stroke="#000000" stroke-width="2" marker-end="url(#arrow)" />
<line x1="330.5" y1="152.0" x2="331.5" y2="152.0" stroke="#000000" stroke-width="2" />
<path d="M236.0,184.0 A13.0,13.0 0 0,1 236.0,158.0 H259.0 A13.0,13.0 0 0,1 259.0,184.0 z" stroke="#000000" stroke-width="2" fill="#FFFFFF"/>
<text class="bubble_font" x="247.5" y="177.0">NO</text>
<path d="M304.0,184.0 A13.0,13.0 0 0,1 304.0,158.0 H428.0 A13.0,13.0 0 0,1 428.0,184.0 z" stroke="#000000" stroke-width="2" fill="#FFFFFF"/>
<text class="bubble_font" x="366.0" y="177.0">AUTOUPDATE</text>
<line x1="272.0" y1="170.0" x2="286.0" y2="170.0" stroke="#000000" stroke-width="2" marker-end="url(#arrow)" />
<line x1="194.0" y1="152.0" x2="326.5" y2="152.0" stroke="#000000" stroke-width="2" marker-end="url(#arrow)" />
<line x1="331.5" y1="152.0" x2="471.0" y2="152.0" stroke="#000000" stroke-width="2" />
<path d="M203.0,161.0 A9.0,9.0 0 0,0 194.0,152.0" stroke="#000000" stroke-width="2" fill="none"/>
<line x1="212.0" y1="170.0" x2="218.0" y2="170.0" stroke="#000000" stroke-width="2" marker-end="url(#arrow)" />
<line x1="442.0" y1="170.0" x2="452.0" y2="170.0" stroke="#000000" stroke-width="2" />
<path d="M203.0,161.0 A9.0,9.0 0 0,0 212.0,170.0" stroke="#000000" stroke-width="2" fill="none"/>
<path d="M452.0,170.0 A9.0,9.0 0 0,0 461.0,161.0" stroke="#000000" stroke-width="2" fill="none"/>
<path d="M470.0,152.0 A9.0,9.0 0 0,0 461.0,161.0" stroke="#000000" stroke-width="2" fill="none"/>
<line x1="203.0" y1="161.0" x2="203.0" y2="161.0" stroke="#000000" stroke-width="2" />
<line x1="461.0" y1="161.0" x2="461.0" y2="161.0" stroke="#000000" stroke-width="2" />
<line x1="491.0" y1="60.0" x2="509.0" y2="60.0" stroke="#000000" stroke-width="2" />
<path d="M518.0,69.0 A9.0,9.0 0 0,0 509.0,60.0" stroke="#000000" stroke-width="2" fill="none"/>
<line x1="518.0" y1="69.0" x2="518.0" y2="92.0" stroke="#000000" stroke-width="2" marker-end="url(#arrow)" />
<line x1="518.0" y1="96.0" x2="518.0" y2="123.0" stroke="#000000" stroke-width="2" />
<path d="M509.0,132.0 A9.0,9.0 0 0,0 518.0,123.0" stroke="#000000" stroke-width="2" fill="none"/>
<line x1="509.0" y1="132.0" x2="346.5" y2="132.0" stroke="#000000" stroke-width="2" marker-end="url(#arrow)" />
<line x1="342.5" y1="132.0" x2="176.0" y2="132.0" stroke="#000000" stroke-width="2" />
<path d="M176.0,132.0 A10.0,10.0 0 0,0 176.0,152.0" stroke="#000000" stroke-width="2" fill="none"/>
<line x1="176.0" y1="152.0" x2="190.0" y2="152.0" stroke="#000000" stroke-width="2" marker-end="url(#arrow)" />
<line x1="12" y1="60.0" x2="26.0" y2="60.0" stroke="#000000" stroke-width="2" marker-end="url(#arrow)" />
<circle cx="490.0" cy="152.0" r="3.0" stroke="#000000" stroke-width="2" fill="#FFFFFF"/>
<line x1="469.0" y1="152.0" x2="483.0" y2="152.0" stroke="#000000" stroke-width="2" marker-end="url(#arrow)" />
<text class="title_font" x="117.5" y="30.0">table_options</text>
</svg>