<?xml version="1.0" encoding="UTF-8" standalone="no"?>
<!-- Created by Syntax-Trax http://kevinpt.github.io/syntax-trax -->
<svg xmlns="http://www.w3.org/2000/svg"
xmlns:xlink="http://www.w3.org/1999/xlink"
xml:space="preserve"
width="615" height="156" version="1.1">
<style type="text/css">
<![CDATA[
.box_font {fill:#000000; text-anchor:middle;
    font-family:Times; font-size:14pt; font-weight:regular; font-style:normal;}
.literal_font {fill:#000000; text-anchor:middle;
    font-family:Times; font-size:14pt; font-weight:regular; font-style:normal;}
.title_font {fill:#000000; text-anchor:middle;
    font-family:Sans; font-size:22pt; font-weight:bold; font-style:normal;}
.bubble_font {fill:#000000; text-anchor:middle;
    font-family:Sans; font-size:14pt; font-weight:regular; font-style:normal;}
.token_font {fill:#000000; text-anchor:middle;
    font-family:Sans; font-size:16pt; font-weight:regular; font-style:normal;}
.label {fill:#000;
  text-anchor:middle;
  font-size:16pt; font-weight:bold; font-family:Sans;}
.link {fill: #0D47A1;}
.link:hover {fill: #0D47A1; text-decoration:underline;}
.link:visited {fill: #4A148C;}
]]>
</style>
<defs>
  <marker id="arrow" markerWidth="5" markerHeight="4" refX="2.5" refY="2" orient="auto" markerUnits="strokeWidth">
    <path d="M0,0 L0.5,2 L0,4 L4.5,2 z" fill="#000000" />
  </marker>
</defs>
<rect width="100%" height="100%" fill="white"/><rect x="62.0" y="51.0" width="130.0" height="26.0" stroke="none" fill-opacity="0.498039215686" fill="#000000"/>
<path d="M93.0,109.0 A13.0,13.0 0 0,1 93.0,83.0 H210.0 A13.0,13.0 0 0,1 210.0,109.0 z" stroke="none" fill-opacity="0.498039215686" fill="#000000"/>
<path d="M248.5,109.0 H321.5 L328.0,96.0 L321.5,83.0 H248.5 L242.0,96.0 z" stroke="none" fill-opacity="0.498039215686" fill="#000000"/>
<rect x="365.0" y="83.0" width="194.0" height="26.0" stroke="none" fill-opacity="0.498039215686" fill="#000000"/>
<path d="M93.0,147.0 A13.0,13.0 0 0,1 93.0,121.0 H210.0 A13.0,13.0 0 0,1 210.0,147.0 z" stroke="none" fill-opacity="0.498039215686" fill="#000000"/>
<path d="M248.5,147.0 H317.5 L324.0,134.0 L317.5,121.0 H248.5 L242.0,134.0 z" stroke="none" fill-opacity="0.498039215686" fill="#000000"/>
<rect x="361.0" y="121.0" width="189.0" height="26.0" stroke="none" fill-opacity="0.498039215686" fill="#000000"/>
<circle cx="10" cy="60.0" r="3" stroke="#000000" stroke-width="2" fill="#FFFFFF"/>
<rect x="59.0" y="48.0" width="130.0" height="26.0" stroke="#000000" stroke-width="2" fill="#FFFFFF"/>
<a xlink:href=".#field_definition" target="_parent">
  <text class="box_font link" x="124.0" y="66.5">field_definition</text></a>
<path d="M90.0,106.0 A13.0,13.0 0 0,1 90.0,80.0 H207.0 A13.0,13.0 0 0,1 207.0,106.0 z" stroke="#000000" stroke-width="2" fill="#FFFFFF"/>
<text class="bubble_font" x="148.5" y="99.0">CONSTRAINT</text>
<path d="M245.5,106.0 H318.5 L325.0,93.0 L318.5,80.0 H245.5 L239.0,93.0 z" stroke="#000000" stroke-width="2" fill="#FFFFFF"/>
<text class="literal_font" x="282.0" y="98.5">pk name</text>
<line x1="220.0" y1="92.0" x2="234.0" y2="92.0" stroke="#000000" stroke-width="2" marker-end="url(#arrow)" />
<line x1="199.5" y1="112.0" x2="200.5" y2="112.0" stroke="#000000" stroke-width="2" />
<line x1="58.0" y1="92.0" x2="76.0" y2="92.0" stroke="#000000" stroke-width="2" />
<line x1="326.0" y1="92.0" x2="345.0" y2="92.0" stroke="#000000" stroke-width="2" />
<path d="M67.0,101.0 A9.0,9.0 0 0,0 58.0,92.0" stroke="#000000" stroke-width="2" fill="none"/>
<line x1="76.0" y1="112.0" x2="195.5" y2="112.0" stroke="#000000" stroke-width="2" marker-end="url(#arrow)" />
<line x1="200.5" y1="112.0" x2="326.0" y2="112.0" stroke="#000000" stroke-width="2" />
<path d="M67.0,103.0 A9.0,9.0 0 0,0 76.0,112.0" stroke="#000000" stroke-width="2" fill="none"/>
<path d="M326.0,112.0 A9.0,9.0 0 0,0 335.0,103.0" stroke="#000000" stroke-width="2" fill="none"/>
<path d="M344.0,92.0 A9.0,9.0 0 0,0 335.0,101.0" stroke="#000000" stroke-width="2" fill="none"/>
<line x1="67.0" y1="103.0" x2="67.0" y2="101.0" stroke="#000000" stroke-width="2" />
<line x1="335.0" y1="103.0" x2="335.0" y2="101.0" stroke="#000000" stroke-width="2" />
<rect x="362.0" y="80.0" width="194.0" height="26.0" stroke="#000000" stroke-width="2" fill="#FFFFFF"/>
<a xlink:href=".#primary_key_definition" target="_parent">
  <text class="box_font link" x="459.0" y="98.5">primary_key_definition</text></a>
<line x1="343.0" y1="92.0" x2="357.0" y2="92.0" stroke="#000000" stroke-width="2" marker-end="url(#arrow)" />
<path d="M90.0,144.0 A13.0,13.0 0 0,1 90.0,118.0 H207.0 A13.0,13.0 0 0,1 207.0,144.0 z" stroke="#000000" stroke-width="2" fill="#FFFFFF"/>
<text class="bubble_font" x="148.5" y="137.0">CONSTRAINT</text>
<path d="M245.5,144.0 H314.5 L321.0,131.0 L314.5,118.0 H245.5 L239.0,131.0 z" stroke="#000000" stroke-width="2" fill="#FFFFFF"/>
<text class="literal_font" x="280.0" y="136.5">fk name</text>
<line x1="220.0" y1="130.0" x2="234.0" y2="130.0" stroke="#000000" stroke-width="2" marker-end="url(#arrow)" />
<line x1="197.5" y1="150.0" x2="198.5" y2="150.0" stroke="#000000" stroke-width="2" />
<line x1="58" y1="130.0" x2="76.0" y2="130.0" stroke="#000000" stroke-width="2" />
<line x1="322.0" y1="130.0" x2="341.0" y2="130.0" stroke="#000000" stroke-width="2" />
<path d="M67.0,139.0 A9,9 0 0,0 58.0,130.0" stroke="#000000" stroke-width="2" fill="none"/>
<line x1="76" y1="150.0" x2="193.5" y2="150.0" stroke="#000000" stroke-width="2" marker-end="url(#arrow)" />
<line x1="198.5" y1="150.0" x2="322.0" y2="150.0" stroke="#000000" stroke-width="2" />
<path d="M67.0,141.0 A9,9 0 0,0 76.0,150.0" stroke="#000000" stroke-width="2" fill="none"/>
<path d="M322.0,150.0 A9.0,9.0 0 0,0 331.0,141.0" stroke="#000000" stroke-width="2" fill="none"/>
<path d="M340.0,130.0 A9.0,9.0 0 0,0 331.0,139.0" stroke="#000000" stroke-width="2" fill="none"/>
<line x1="67" y1="141.0" x2="67" y2="139.0" stroke="#000000" stroke-width="2" />
<line x1="331.0" y1="141.0" x2="331.0" y2="139.0" stroke="#000000" stroke-width="2" />
<rect x="358.0" y="118.0" width="189.0" height="26.0" stroke="#000000" stroke-width="2" fill="#FFFFFF"/>
<a xlink:href=".#foreign_key_definition" target="_parent">
  <text class="box_font link" x="452.5" y="136.5">foreign_key_definition</text></a>
<line x1="339.0" y1="130.0" x2="353.0" y2="130.0" stroke="#000000" stroke-width="2" marker-end="url(#arrow)" />
<line x1="30" y1="60.0" x2="54.0" y2="60.0" stroke="#000000" stroke-width="2" marker-end="url(#arrow)" />
<line x1="190.0" y1="60.0" x2="587.0" y2="60.0" stroke="#000000" stroke-width="2" />
<path d="M39.0,69.0 A9,9 0 0,0 30.0,60.0" stroke="#000000" stroke-width="2" fill="none"/>
<line x1="48" y1="92.0" x2="54.0" y2="92.0" stroke="#000000" stroke-width="2" marker-end="url(#arrow)" />
<line x1="557.0" y1="92.0" x2="568.0" y2="92.0" stroke="#000000" stroke-width="2" />
<path d="M39.0,83.0 A9,9 0 0,0 48.0,92.0" stroke="#000000" stroke-width="2" fill="none"/>
<path d="M568.0,92.0 A9.0,9.0 0 0,0 577.0,83.0" stroke="#000000" stroke-width="2" fill="none"/>
<line x1="48" y1="130.0" x2="54.0" y2="130.0" stroke="#000000" stroke-width="2" marker-end="url(#arrow)" />
<line x1="548.0" y1="130.0" x2="568.0" y2="130.0" stroke="#000000" stroke-width="2" />
<path d="M39.0,121.0 A9,9 0 0,0 48.0,130.0" stroke="#000000" stroke-width="2" fill="none"/>
<path d="M568.0,130.0 A9.0,9.0 0 0,0 577.0,121.0" stroke="#000000" stroke-width="2" fill="none"/>
<path d="M586.0,60.0 A9.0,9.0 0 0,0 577.0,69.0" stroke="#000000" stroke-width="2" fill="none"/>
<line x1="39" y1="121.0" x2="39" y2="69.0" stroke="#000000" stroke-width="2" />
<line x1="577.0" y1="121.0" x2="577.0" y2="69.0" stroke="#000000" stroke-width="2" />
<line x1="12" y1="60.0" x2="26.0" y2="60.0" stroke="#000000" stroke-width="2" marker-end="url(#arrow)" />
<circle cx="606.0" cy="60.0" r="3.0" stroke="#000000" stroke-width="2" fill="#FFFFFF"/>
<line x1="585.0" y1="60.0" x2="599.0" y2="60.0" stroke="#000000" stroke-width="2" marker-end="url(#arrow)" />
<text class="title_font" x="150.5" y="30.0">table_constituent</text>
</svg>