<?xml version="1.0" encoding="UTF-8" standalone="no"?>
<!-- Created by Syntax-Trax http://kevinpt.github.io/syntax-trax -->
<svg xmlns="http://www.w3.org/2000/svg"
xmlns:xlink="http://www.w3.org/1999/xlink"
xml:space="preserve"
width="392" height="301" version="1.1">
<style type="text/css">
<![CDATA[
.box_font {fill:#000000; text-anchor:middle;
    font-family:Times; font-size:14pt; font-weight:regular; font-style:normal;}
.literal_font {fill:#000000; text-anchor:middle;
    font-family:Times; font-size:14pt; font-weight:regular; font-style:normal;}
.title_font {fill:#000000; text-anchor:middle;
    font-family:Sans; font-size:22pt; font-weight:bold; font-style:normal;}
.bubble_font {fill:#000000; text-anchor:middle;
    font-family:Sans; font-size:14pt; font-weight:regular; font-style:normal;}
.token_font {fill:#000000; text-anchor:middle;
    font-family:Sans; font-size:16pt; font-weight:regular; font-style:normal;}
.label {fill:#000;
  text-anchor:middle;
  font-size:16pt; font-weight:bold; font-family:Sans;}
.link {fill: #0D47A1;}
.link:hover {fill: #0D47A1; text-decoration:underline;}
.link:visited {fill: #4A148C;}
]]>
</style>
<defs>
  <marker id="arrow" markerWidth="5" markerHeight="4" refX="2.5" refY="2" orient="auto" markerUnits="strokeWidth">
    <path d="M0,0 L0.5,2 L0,4 L4.5,2 z" fill="#000000" />
  </marker>
</defs>
<rect width="100%" height="100%" fill="white"/><circle cx="94.0" cy="84.0" r="15.0" stroke="none" fill-opacity="0.498039215686" fill="#000000"/>
<rect x="184.0" y="51.0" width="116.0" height="26.0" stroke="none" fill-opacity="0.498039215686" fill="#000000"/>
<circle cx="199.0" cy="98.0" r="15.0" stroke="none" fill-opacity="0.498039215686" fill="#000000"/>
<rect x="233.0" y="85.0" width="46.0" height="26.0" stroke="none" fill-opacity="0.498039215686" fill="#000000"/>
<circle cx="313.0" cy="98.0" r="15.0" stroke="none" fill-opacity="0.498039215686" fill="#000000"/>
<path d="M197.0,154.0 A15.0,15.0 0 0,1 197.0,124.0 H207.0 A15.0,15.0 0 0,1 207.0,154.0 z" stroke="none" fill-opacity="0.498039215686" fill="#000000"/>
<circle cx="199.0" cy="175.0" r="15.0" stroke="none" fill-opacity="0.498039215686" fill="#000000"/>
<path d="M199.0,226.0 A15.0,15.0 0 0,1 199.0,196.0 H202.0 A15.0,15.0 0 0,1 202.0,226.0 z" stroke="none" fill-opacity="0.498039215686" fill="#000000"/>
<circle cx="199.0" cy="247.0" r="15.0" stroke="none" fill-opacity="0.498039215686" fill="#000000"/>
<path d="M199.0,298.0 A15.0,15.0 0 0,1 199.0,268.0 H205.0 A15.0,15.0 0 0,1 205.0,298.0 z" stroke="none" fill-opacity="0.498039215686" fill="#000000"/>
<circle cx="10" cy="60.0" r="3" stroke="#000000" stroke-width="2" fill="#FFFFFF"/>
<line x1="89.5" y1="60.0" x2="90.5" y2="60.0" stroke="#000000" stroke-width="2" />
<circle cx="91.0" cy="81.0" r="15.0" stroke="#000000" stroke-width="2" fill="#FFFFFF"/>
<text class="token_font" x="91.0" y="87.5">-</text>
<line x1="47" y1="60.0" x2="85.5" y2="60.0" stroke="#000000" stroke-width="2" marker-end="url(#arrow)" />
<line x1="90.5" y1="60.0" x2="136.0" y2="60.0" stroke="#000000" stroke-width="2" />
<path d="M56.0,69.0 A9,9 0 0,0 47.0,60.0" stroke="#000000" stroke-width="2" fill="none"/>
<line x1="65" y1="80.0" x2="71.0" y2="80.0" stroke="#000000" stroke-width="2" marker-end="url(#arrow)" />
<line x1="107.0" y1="80.0" x2="117.0" y2="80.0" stroke="#000000" stroke-width="2" />
<path d="M56.0,71.0 A9,9 0 0,0 65.0,80.0" stroke="#000000" stroke-width="2" fill="none"/>
<path d="M117.0,80.0 A9.0,9.0 0 0,0 126.0,71.0" stroke="#000000" stroke-width="2" fill="none"/>
<path d="M135.0,60.0 A9.0,9.0 0 0,0 126.0,69.0" stroke="#000000" stroke-width="2" fill="none"/>
<line x1="56" y1="71.0" x2="56" y2="69.0" stroke="#000000" stroke-width="2" />
<line x1="126.0" y1="71.0" x2="126.0" y2="69.0" stroke="#000000" stroke-width="2" />
<rect x="181.0" y="48.0" width="116.0" height="26.0" stroke="#000000" stroke-width="2" fill="#FFFFFF"/>
<a xlink:href=".#primary_term" target="_parent">
  <text class="box_font link" x="239.0" y="66.5">primary_term</text></a>
<circle cx="196.0" cy="95.0" r="15.0" stroke="#000000" stroke-width="2" fill="#FFFFFF"/>
<text class="token_font" x="196.0" y="101.5">(</text>
<rect x="230.0" y="82.0" width="46.0" height="26.0" stroke="#000000" stroke-width="2" fill="#FFFFFF"/>
<a xlink:href=".#term" target="_parent">
  <text class="box_font link" x="253.0" y="100.5">term</text></a>
<line x1="211.0" y1="94.0" x2="225.0" y2="94.0" stroke="#000000" stroke-width="2" marker-end="url(#arrow)" />
<circle cx="310.0" cy="95.0" r="15.0" stroke="#000000" stroke-width="2" fill="#FFFFFF"/>
<text class="token_font" x="310.0" y="101.5">)</text>
<line x1="276.0" y1="94.0" x2="290.0" y2="94.0" stroke="#000000" stroke-width="2" marker-end="url(#arrow)" />
<line x1="152.0" y1="60.0" x2="176.0" y2="60.0" stroke="#000000" stroke-width="2" marker-end="url(#arrow)" />
<line x1="298.0" y1="60.0" x2="355.0" y2="60.0" stroke="#000000" stroke-width="2" />
<path d="M161.0,69.0 A9.0,9.0 0 0,0 152.0,60.0" stroke="#000000" stroke-width="2" fill="none"/>
<line x1="170.0" y1="94.0" x2="176.0" y2="94.0" stroke="#000000" stroke-width="2" marker-end="url(#arrow)" />
<line x1="326.0" y1="94.0" x2="336.0" y2="94.0" stroke="#000000" stroke-width="2" />
<path d="M161.0,85.0 A9.0,9.0 0 0,0 170.0,94.0" stroke="#000000" stroke-width="2" fill="none"/>
<path d="M336.0,94.0 A9.0,9.0 0 0,0 345.0,85.0" stroke="#000000" stroke-width="2" fill="none"/>
<path d="M354.0,60.0 A9.0,9.0 0 0,0 345.0,69.0" stroke="#000000" stroke-width="2" fill="none"/>
<line x1="161.0" y1="85.0" x2="161.0" y2="69.0" stroke="#000000" stroke-width="2" />
<line x1="345.0" y1="85.0" x2="345.0" y2="69.0" stroke="#000000" stroke-width="2" />
<line x1="134.0" y1="60.0" x2="148.0" y2="60.0" stroke="#000000" stroke-width="2" marker-end="url(#arrow)" />
<path d="M194.0,151.0 A15.0,15.0 0 0,1 194.0,121.0 H204.0 A15.0,15.0 0 0,1 204.0,151.0 z" stroke="#000000" stroke-width="2" fill="#FFFFFF"/>
<text class="token_font" x="199.0" y="142.5">+</text>
<circle cx="196.0" cy="172.0" r="15.0" stroke="#000000" stroke-width="2" fill="#FFFFFF"/>
<text class="token_font" x="196.0" y="178.5">-</text>
<path d="M196.0,223.0 A15.0,15.0 0 0,1 196.0,193.0 H199.0 A15.0,15.0 0 0,1 199.0,223.0 z" stroke="#000000" stroke-width="2" fill="#FFFFFF"/>
<text class="token_font" x="197.5" y="214.5">*</text>
<circle cx="196.0" cy="244.0" r="15.0" stroke="#000000" stroke-width="2" fill="#FFFFFF"/>
<text class="token_font" x="196.0" y="250.5">/</text>
<path d="M196.0,295.0 A15.0,15.0 0 0,1 196.0,265.0 H202.0 A15.0,15.0 0 0,1 202.0,295.0 z" stroke="#000000" stroke-width="2" fill="#FFFFFF"/>
<text class="token_font" x="199.0" y="286.5">||</text>
<line x1="152.0" y1="135.0" x2="178.0" y2="135.0" stroke="#000000" stroke-width="2" />
<line x1="247.0" y1="135.0" x2="224.0" y2="135.0" stroke="#000000" stroke-width="2" marker-end="url(#arrow)" />
<path d="M161.0,144.0 A9.0,9.0 0 0,0 152.0,135.0" stroke="#000000" stroke-width="2" fill="none"/>
<line x1="170.0" y1="171.0" x2="180.0" y2="171.0" stroke="#000000" stroke-width="2" />
<line x1="228.0" y1="171.0" x2="216.0" y2="171.0" stroke="#000000" stroke-width="2" marker-end="url(#arrow)" />
<path d="M161.0,162.0 A9.0,9.0 0 0,0 170.0,171.0" stroke="#000000" stroke-width="2" fill="none"/>
<path d="M228.0,171.0 A9.0,9.0 0 0,0 237.0,162.0" stroke="#000000" stroke-width="2" fill="none"/>
<line x1="170.0" y1="207.0" x2="180.0" y2="207.0" stroke="#000000" stroke-width="2" />
<line x1="228.0" y1="207.0" x2="219.0" y2="207.0" stroke="#000000" stroke-width="2" marker-end="url(#arrow)" />
<path d="M161.0,198.0 A9.0,9.0 0 0,0 170.0,207.0" stroke="#000000" stroke-width="2" fill="none"/>
<path d="M228.0,207.0 A9.0,9.0 0 0,0 237.0,198.0" stroke="#000000" stroke-width="2" fill="none"/>
<line x1="170.0" y1="243.0" x2="180.0" y2="243.0" stroke="#000000" stroke-width="2" />
<line x1="228.0" y1="243.0" x2="216.0" y2="243.0" stroke="#000000" stroke-width="2" marker-end="url(#arrow)" />
<path d="M161.0,234.0 A9.0,9.0 0 0,0 170.0,243.0" stroke="#000000" stroke-width="2" fill="none"/>
<path d="M228.0,243.0 A9.0,9.0 0 0,0 237.0,234.0" stroke="#000000" stroke-width="2" fill="none"/>
<line x1="170.0" y1="279.0" x2="180.0" y2="279.0" stroke="#000000" stroke-width="2" />
<line x1="228.0" y1="279.0" x2="222.0" y2="279.0" stroke="#000000" stroke-width="2" marker-end="url(#arrow)" />
<path d="M161.0,270.0 A9.0,9.0 0 0,0 170.0,279.0" stroke="#000000" stroke-width="2" fill="none"/>
<path d="M228.0,279.0 A9.0,9.0 0 0,0 237.0,270.0" stroke="#000000" stroke-width="2" fill="none"/>
<path d="M246.0,135.0 A9.0,9.0 0 0,0 237.0,144.0" stroke="#000000" stroke-width="2" fill="none"/>
<line x1="161.0" y1="270.0" x2="161.0" y2="144.0" stroke="#000000" stroke-width="2" />
<line x1="237.0" y1="270.0" x2="237.0" y2="144.0" stroke="#000000" stroke-width="2" />
<line x1="47" y1="135.0" x2="152.0" y2="135.0" stroke="#000000" stroke-width="2" />
<line x1="354.0" y1="135.0" x2="250.0" y2="135.0" stroke="#000000" stroke-width="2" marker-end="url(#arrow)" />
<line x1="30" y1="60.0" x2="47" y2="60.0" stroke="#000000" stroke-width="2" />
<path d="M47.0,60.0 A9,9 0 0,0 38.0,69.0" stroke="#000000" stroke-width="2" fill="none"/>
<line x1="38" y1="126.0" x2="38.0" y2="101.5" stroke="#000000" stroke-width="2" marker-end="url(#arrow)" />
<line x1="38" y1="97.5" x2="38" y2="69.0" stroke="#000000" stroke-width="2" />
<path d="M38.0,126.0 A9,9 0 0,0 47.0,135.0" stroke="#000000" stroke-width="2" fill="none"/>
<path d="M363.0,69.0 A9.0,9.0 0 0,0 354.0,60.0" stroke="#000000" stroke-width="2" fill="none"/>
<line x1="363.0" y1="69.0" x2="363.0" y2="93.5" stroke="#000000" stroke-width="2" marker-end="url(#arrow)" />
<line x1="363.0" y1="97.5" x2="363.0" y2="126.0" stroke="#000000" stroke-width="2" />
<path d="M354.0,135.0 A9.0,9.0 0 0,0 363.0,126.0" stroke="#000000" stroke-width="2" fill="none"/>
<line x1="354.0" y1="60.0" x2="363.0" y2="60.0" stroke="#000000" stroke-width="2" />
<line x1="12" y1="60.0" x2="26.0" y2="60.0" stroke="#000000" stroke-width="2" marker-end="url(#arrow)" />
<circle cx="383.0" cy="60.0" r="3.0" stroke="#000000" stroke-width="2" fill="#FFFFFF"/>
<line x1="362.0" y1="60.0" x2="376.0" y2="60.0" stroke="#000000" stroke-width="2" marker-end="url(#arrow)" />
<text class="title_font" x="45.0" y="30.0">term</text>
</svg>