<?xml version="1.0" encoding="UTF-8" standalone="no"?>
<!-- Created by Syntax-Trax http://kevinpt.github.io/syntax-trax -->
<svg xmlns="http://www.w3.org/2000/svg"
xmlns:xlink="http://www.w3.org/1999/xlink"
xml:space="preserve"
width="239" height="90" version="1.1">
<style type="text/css">
<![CDATA[
.box_font {fill:#000000; text-anchor:middle;
    font-family:Times; font-size:14pt; font-weight:regular; font-style:normal;}
.literal_font {fill:#000000; text-anchor:middle;
    font-family:Times; font-size:14pt; font-weight:regular; font-style:normal;}
.title_font {fill:#000000; text-anchor:middle;
    font-family:Sans; font-size:22pt; font-weight:bold; font-style:normal;}
.bubble_font {fill:#000000; text-anchor:middle;
    font-family:Sans; font-size:14pt; font-weight:regular; font-style:normal;}
.token_font {fill:#000000; text-anchor:middle;
    font-family:Sans; font-size:16pt; font-weight:regular; font-style:normal;}
.label {fill:#000;
  text-anchor:middle;
  font-size:16pt; font-weight:bold; font-family:Sans;}
.link {fill: #0D47A1;}
.link:hover {fill: #0D47A1; text-decoration:underline;}
.link:visited {fill: #4A148C;}
]]>
</style>
<defs>
  <marker id="arrow" markerWidth="5" markerHeight="4" refX="2.5" refY="2" orient="auto" markerUnits="strokeWidth">
    <path d="M0,0 L0.5,2 L0,4 L4.5,2 z" fill="#000000" />
  </marker>
</defs>
<rect width="100%" height="100%" fill="white"/><circle cx="67.0" cy="66.0" r="15.0" stroke="none" fill-opacity="0.498039215686" fill="#000000"/>
<path d="M132.0,79.0 A13.0,13.0 0 0,1 132.0,53.0 H160.0 A13.0,13.0 0 0,1 160.0,79.0 z" stroke="none" fill-opacity="0.498039215686" fill="#000000"/>
<circle cx="10" cy="62.0" r="3" stroke="#000000" stroke-width="2" fill="#FFFFFF"/>
<circle cx="64.0" cy="63.0" r="15.0" stroke="#000000" stroke-width="2" fill="#FFFFFF"/>
<text class="token_font" x="64.0" y="69.5">!</text>
<line x1="62.5" y1="84.0" x2="63.5" y2="84.0" stroke="#000000" stroke-width="2" />
<line x1="30" y1="62.0" x2="48.0" y2="62.0" stroke="#000000" stroke-width="2" />
<line x1="80.0" y1="62.0" x2="99.0" y2="62.0" stroke="#000000" stroke-width="2" />
<path d="M39.0,71.0 A9,9 0 0,0 30.0,62.0" stroke="#000000" stroke-width="2" fill="none"/>
<line x1="48" y1="84.0" x2="58.5" y2="84.0" stroke="#000000" stroke-width="2" marker-end="url(#arrow)" />
<line x1="63.5" y1="84.0" x2="80.0" y2="84.0" stroke="#000000" stroke-width="2" />
<path d="M39.0,75.0 A9,9 0 0,0 48.0,84.0" stroke="#000000" stroke-width="2" fill="none"/>
<path d="M80.0,84.0 A9.0,9.0 0 0,0 89.0,75.0" stroke="#000000" stroke-width="2" fill="none"/>
<path d="M98.0,62.0 A9.0,9.0 0 0,0 89.0,71.0" stroke="#000000" stroke-width="2" fill="none"/>
<line x1="39" y1="75.0" x2="39" y2="71.0" stroke="#000000" stroke-width="2" />
<line x1="89.0" y1="75.0" x2="89.0" y2="71.0" stroke="#000000" stroke-width="2" />
<path d="M129.0,76.0 A13.0,13.0 0 0,1 129.0,50.0 H157.0 A13.0,13.0 0 0,1 157.0,76.0 z" stroke="#000000" stroke-width="2" fill="#FFFFFF"/>
<text class="bubble_font" x="143.0" y="69.0">null</text>
<line x1="97.0" y1="62.0" x2="111.0" y2="62.0" stroke="#000000" stroke-width="2" marker-end="url(#arrow)" />
<line x1="12" y1="62.0" x2="26.0" y2="62.0" stroke="#000000" stroke-width="2" marker-end="url(#arrow)" />
<circle cx="191.0" cy="62.0" r="3.0" stroke="#000000" stroke-width="2" fill="#FFFFFF"/>
<line x1="170.0" y1="62.0" x2="184.0" y2="62.0" stroke="#000000" stroke-width="2" marker-end="url(#arrow)" />
<text class="title_font" x="119.5" y="30.0">bit_blob_filter</text>
</svg>