<?xml version="1.0" encoding="UTF-8" standalone="no"?>
<!-- Created by Syntax-Trax http://kevinpt.github.io/syntax-trax -->
<svg xmlns="http://www.w3.org/2000/svg"
xmlns:xlink="http://www.w3.org/1999/xlink"
xml:space="preserve"
width="442" height="185" version="1.1">
<style type="text/css">
<![CDATA[
.box_font {fill:#000000; text-anchor:middle;
    font-family:Times; font-size:14pt; font-weight:regular; font-style:normal;}
.literal_font {fill:#000000; text-anchor:middle;
    font-family:Times; font-size:14pt; font-weight:regular; font-style:normal;}
.title_font {fill:#000000; text-anchor:middle;
    font-family:Sans; font-size:22pt; font-weight:bold; font-style:normal;}
.bubble_font {fill:#000000; text-anchor:middle;
    font-family:Sans; font-size:14pt; font-weight:regular; font-style:normal;}
.token_font {fill:#000000; text-anchor:middle;
    font-family:Sans; font-size:16pt; font-weight:regular; font-style:normal;}
.label {fill:#000;
  text-anchor:middle;
  font-size:16pt; font-weight:bold; font-family:Sans;}
.link {fill: #0D47A1;}
.link:hover {fill: #0D47A1; text-decoration:underline;}
.link:visited {fill: #4A148C;}
]]>
</style>
<defs>
  <marker id="arrow" markerWidth="5" markerHeight="4" refX="2.5" refY="2" orient="auto" markerUnits="strokeWidth">
    <path d="M0,0 L0.5,2 L0,4 L4.5,2 z" fill="#000000" />
  </marker>
</defs>
<rect width="100%" height="100%" fill="white"/><path d="M82.0,77.0 A13.0,13.0 0 0,1 82.0,51.0 H117.0 A13.0,13.0 0 0,1 117.0,77.0 z" stroke="none" fill-opacity="0.498039215686" fill="#000000"/>
<rect x="195.0" y="51.0" width="80.0" height="26.0" stroke="none" fill-opacity="0.498039215686" fill="#000000"/>
<circle cx="210.0" cy="98.0" r="15.0" stroke="none" fill-opacity="0.498039215686" fill="#000000"/>
<rect x="244.0" y="85.0" width="85.0" height="26.0" stroke="none" fill-opacity="0.498039215686" fill="#000000"/>
<circle cx="363.0" cy="98.0" r="15.0" stroke="none" fill-opacity="0.498039215686" fill="#000000"/>
<path d="M209.0,150.0 A13.0,13.0 0 0,1 209.0,124.0 H245.0 A13.0,13.0 0 0,1 245.0,150.0 z" stroke="none" fill-opacity="0.498039215686" fill="#000000"/>
<path d="M216.0,182.0 A13.0,13.0 0 0,1 216.0,156.0 H238.0 A13.0,13.0 0 0,1 238.0,182.0 z" stroke="none" fill-opacity="0.498039215686" fill="#000000"/>
<circle cx="10" cy="60.0" r="3" stroke="#000000" stroke-width="2" fill="#FFFFFF"/>
<path d="M79.0,74.0 A13.0,13.0 0 0,1 79.0,48.0 H114.0 A13.0,13.0 0 0,1 114.0,74.0 z" stroke="#000000" stroke-width="2" fill="#FFFFFF"/>
<text class="bubble_font" x="96.5" y="67.0">NOT</text>
<line x1="95.0" y1="80.0" x2="96.0" y2="80.0" stroke="#000000" stroke-width="2" />
<line x1="47" y1="60.0" x2="65.0" y2="60.0" stroke="#000000" stroke-width="2" />
<line x1="128.0" y1="60.0" x2="147.0" y2="60.0" stroke="#000000" stroke-width="2" />
<path d="M56.0,69.0 A9,9 0 0,0 47.0,60.0" stroke="#000000" stroke-width="2" fill="none"/>
<line x1="65" y1="80.0" x2="91.0" y2="80.0" stroke="#000000" stroke-width="2" marker-end="url(#arrow)" />
<line x1="96.0" y1="80.0" x2="128.0" y2="80.0" stroke="#000000" stroke-width="2" />
<path d="M56.0,71.0 A9,9 0 0,0 65.0,80.0" stroke="#000000" stroke-width="2" fill="none"/>
<path d="M128.0,80.0 A9.0,9.0 0 0,0 137.0,71.0" stroke="#000000" stroke-width="2" fill="none"/>
<path d="M146.0,60.0 A9.0,9.0 0 0,0 137.0,69.0" stroke="#000000" stroke-width="2" fill="none"/>
<line x1="56" y1="71.0" x2="56" y2="69.0" stroke="#000000" stroke-width="2" />
<line x1="137.0" y1="71.0" x2="137.0" y2="69.0" stroke="#000000" stroke-width="2" />
<rect x="192.0" y="48.0" width="80.0" height="26.0" stroke="#000000" stroke-width="2" fill="#FFFFFF"/>
<a xlink:href=".#predicate" target="_parent">
  <text class="box_font link" x="232.0" y="66.5">predicate</text></a>
<circle cx="207.0" cy="95.0" r="15.0" stroke="#000000" stroke-width="2" fill="#FFFFFF"/>
<text class="token_font" x="207.0" y="101.5">(</text>
<rect x="241.0" y="82.0" width="85.0" height="26.0" stroke="#000000" stroke-width="2" fill="#FFFFFF"/>
<a xlink:href=".#condition" target="_parent">
  <text class="box_font link" x="283.5" y="100.5">condition</text></a>
<line x1="222.0" y1="94.0" x2="236.0" y2="94.0" stroke="#000000" stroke-width="2" marker-end="url(#arrow)" />
<circle cx="360.0" cy="95.0" r="15.0" stroke="#000000" stroke-width="2" fill="#FFFFFF"/>
<text class="token_font" x="360.0" y="101.5">)</text>
<line x1="326.0" y1="94.0" x2="340.0" y2="94.0" stroke="#000000" stroke-width="2" marker-end="url(#arrow)" />
<line x1="163.0" y1="60.0" x2="187.0" y2="60.0" stroke="#000000" stroke-width="2" marker-end="url(#arrow)" />
<line x1="273.0" y1="60.0" x2="405.0" y2="60.0" stroke="#000000" stroke-width="2" />
<path d="M172.0,69.0 A9.0,9.0 0 0,0 163.0,60.0" stroke="#000000" stroke-width="2" fill="none"/>
<line x1="181.0" y1="94.0" x2="187.0" y2="94.0" stroke="#000000" stroke-width="2" marker-end="url(#arrow)" />
<line x1="376.0" y1="94.0" x2="386.0" y2="94.0" stroke="#000000" stroke-width="2" />
<path d="M172.0,85.0 A9.0,9.0 0 0,0 181.0,94.0" stroke="#000000" stroke-width="2" fill="none"/>
<path d="M386.0,94.0 A9.0,9.0 0 0,0 395.0,85.0" stroke="#000000" stroke-width="2" fill="none"/>
<path d="M404.0,60.0 A9.0,9.0 0 0,0 395.0,69.0" stroke="#000000" stroke-width="2" fill="none"/>
<line x1="172.0" y1="85.0" x2="172.0" y2="69.0" stroke="#000000" stroke-width="2" />
<line x1="395.0" y1="85.0" x2="395.0" y2="69.0" stroke="#000000" stroke-width="2" />
<line x1="145.0" y1="60.0" x2="159.0" y2="60.0" stroke="#000000" stroke-width="2" marker-end="url(#arrow)" />
<path d="M206.0,147.0 A13.0,13.0 0 0,1 206.0,121.0 H242.0 A13.0,13.0 0 0,1 242.0,147.0 z" stroke="#000000" stroke-width="2" fill="#FFFFFF"/>
<text class="bubble_font" x="224.0" y="140.0">AND</text>
<path d="M213.0,179.0 A13.0,13.0 0 0,1 213.0,153.0 H235.0 A13.0,13.0 0 0,1 235.0,179.0 z" stroke="#000000" stroke-width="2" fill="#FFFFFF"/>
<text class="bubble_font" x="224.0" y="172.0">OR</text>
<line x1="171.0" y1="133.0" x2="192.0" y2="133.0" stroke="#000000" stroke-width="2" />
<line x1="278.0" y1="133.0" x2="260.0" y2="133.0" stroke="#000000" stroke-width="2" marker-end="url(#arrow)" />
<path d="M180.0,142.0 A9.0,9.0 0 0,0 171.0,133.0" stroke="#000000" stroke-width="2" fill="none"/>
<line x1="189.0" y1="165.0" x2="199.0" y2="165.0" stroke="#000000" stroke-width="2" />
<line x1="259.0" y1="165.0" x2="253.0" y2="165.0" stroke="#000000" stroke-width="2" marker-end="url(#arrow)" />
<path d="M180.0,156.0 A9.0,9.0 0 0,0 189.0,165.0" stroke="#000000" stroke-width="2" fill="none"/>
<path d="M259.0,165.0 A9.0,9.0 0 0,0 268.0,156.0" stroke="#000000" stroke-width="2" fill="none"/>
<path d="M277.0,133.0 A9.0,9.0 0 0,0 268.0,142.0" stroke="#000000" stroke-width="2" fill="none"/>
<line x1="180.0" y1="156.0" x2="180.0" y2="142.0" stroke="#000000" stroke-width="2" />
<line x1="268.0" y1="156.0" x2="268.0" y2="142.0" stroke="#000000" stroke-width="2" />
<line x1="47" y1="133.0" x2="171.0" y2="133.0" stroke="#000000" stroke-width="2" />
<line x1="404.0" y1="133.0" x2="281.0" y2="133.0" stroke="#000000" stroke-width="2" marker-end="url(#arrow)" />
<line x1="30" y1="60.0" x2="47" y2="60.0" stroke="#000000" stroke-width="2" />
<path d="M47.0,60.0 A9,9 0 0,0 38.0,69.0" stroke="#000000" stroke-width="2" fill="none"/>
<line x1="38" y1="124.0" x2="38.0" y2="100.5" stroke="#000000" stroke-width="2" marker-end="url(#arrow)" />
<line x1="38" y1="96.5" x2="38" y2="69.0" stroke="#000000" stroke-width="2" />
<path d="M38.0,124.0 A9,9 0 0,0 47.0,133.0" stroke="#000000" stroke-width="2" fill="none"/>
<path d="M413.0,69.0 A9.0,9.0 0 0,0 404.0,60.0" stroke="#000000" stroke-width="2" fill="none"/>
<line x1="413.0" y1="69.0" x2="413.0" y2="92.5" stroke="#000000" stroke-width="2" marker-end="url(#arrow)" />
<line x1="413.0" y1="96.5" x2="413.0" y2="124.0" stroke="#000000" stroke-width="2" />
<path d="M404.0,133.0 A9.0,9.0 0 0,0 413.0,124.0" stroke="#000000" stroke-width="2" fill="none"/>
<line x1="404.0" y1="60.0" x2="413.0" y2="60.0" stroke="#000000" stroke-width="2" />
<line x1="12" y1="60.0" x2="26.0" y2="60.0" stroke="#000000" stroke-width="2" marker-end="url(#arrow)" />
<circle cx="433.0" cy="60.0" r="3.0" stroke="#000000" stroke-width="2" fill="#FFFFFF"/>
<line x1="412.0" y1="60.0" x2="426.0" y2="60.0" stroke="#000000" stroke-width="2" marker-end="url(#arrow)" />
<text class="title_font" x="83.0" y="30.0">condition</text>
</svg>