<?xml version="1.0" encoding="UTF-8" standalone="no"?>
<!-- Created by Syntax-Trax http://kevinpt.github.io/syntax-trax -->
<svg xmlns="http://www.w3.org/2000/svg"
xmlns:xlink="http://www.w3.org/1999/xlink"
xml:space="preserve"
width="505" height="80" version="1.1">
<style type="text/css">
<![CDATA[
.box_font {fill:#000000; text-anchor:middle;
    font-family:Times; font-size:14pt; font-weight:regular; font-style:normal;}
.literal_font {fill:#000000; text-anchor:middle;
    font-family:Times; font-size:14pt; font-weight:regular; font-style:normal;}
.title_font {fill:#000000; text-anchor:middle;
    font-family:Sans; font-size:22pt; font-weight:bold; font-style:normal;}
.bubble_font {fill:#000000; text-anchor:middle;
    font-family:Sans; font-size:14pt; font-weight:regular; font-style:normal;}
.token_font {fill:#000000; text-anchor:middle;
    font-family:Sans; font-size:16pt; font-weight:regular; font-style:normal;}
.label {fill:#000;
  text-anchor:middle;
  font-size:16pt; font-weight:bold; font-family:Sans;}
.link {fill: #0D47A1;}
.link:hover {fill: #0D47A1; text-decoration:underline;}
.link:visited {fill: #4A148C;}
]]>
</style>
<defs>
  <marker id="arrow" markerWidth="5" markerHeight="4" refX="2.5" refY="2" orient="auto" markerUnits="strokeWidth">
    <path d="M0,0 L0.5,2 L0,4 L4.5,2 z" fill="#000000" />
  </marker>
</defs>
<rect width="100%" height="100%" fill="white"/><path d="M47.0,77.0 A13.0,13.0 0 0,1 47.0,51.0 H115.0 A13.0,13.0 0 0,1 115.0,77.0 z" stroke="none" fill-opacity="0.498039215686" fill="#000000"/>
<path d="M160.0,77.0 A13.0,13.0 0 0,1 160.0,51.0 H204.0 A13.0,13.0 0 0,1 204.0,77.0 z" stroke="none" fill-opacity="0.498039215686" fill="#000000"/>
<path d="M242.5,77.0 H332.5 L339.0,64.0 L332.5,51.0 H242.5 L236.0,64.0 z" stroke="none" fill-opacity="0.498039215686" fill="#000000"/>
<path d="M371.0,77.0 A13.0,13.0 0 0,1 371.0,51.0 H390.0 A13.0,13.0 0 0,1 390.0,77.0 z" stroke="none" fill-opacity="0.498039215686" fill="#000000"/>
<rect x="422.0" y="51.0" width="56.0" height="26.0" stroke="none" fill-opacity="0.498039215686" fill="#000000"/>
<circle cx="10" cy="60.0" r="3" stroke="#000000" stroke-width="2" fill="#FFFFFF"/>
<path d="M44.0,74.0 A13.0,13.0 0 0,1 44.0,48.0 H112.0 A13.0,13.0 0 0,1 112.0,74.0 z" stroke="#000000" stroke-width="2" fill="#FFFFFF"/>
<text class="bubble_font" x="78.0" y="67.0">CREATE</text>
<path d="M157.0,74.0 A13.0,13.0 0 0,1 157.0,48.0 H201.0 A13.0,13.0 0 0,1 201.0,74.0 z" stroke="#000000" stroke-width="2" fill="#FFFFFF"/>
<text class="bubble_font" x="179.0" y="67.0">VIEW</text>
<line x1="125.0" y1="60.0" x2="139.0" y2="60.0" stroke="#000000" stroke-width="2" marker-end="url(#arrow)" />
<path d="M239.5,74.0 H329.5 L336.0,61.0 L329.5,48.0 H239.5 L233.0,61.0 z" stroke="#000000" stroke-width="2" fill="#FFFFFF"/>
<text class="literal_font" x="284.5" y="66.5">view name</text>
<line x1="214.0" y1="60.0" x2="228.0" y2="60.0" stroke="#000000" stroke-width="2" marker-end="url(#arrow)" />
<path d="M368.0,74.0 A13.0,13.0 0 0,1 368.0,48.0 H387.0 A13.0,13.0 0 0,1 387.0,74.0 z" stroke="#000000" stroke-width="2" fill="#FFFFFF"/>
<text class="bubble_font" x="377.5" y="67.0">AS</text>
<line x1="336.0" y1="60.0" x2="350.0" y2="60.0" stroke="#000000" stroke-width="2" marker-end="url(#arrow)" />
<rect x="419.0" y="48.0" width="56.0" height="26.0" stroke="#000000" stroke-width="2" fill="#FFFFFF"/>
<a xlink:href=".#query" target="_parent">
  <text class="box_font link" x="447.0" y="66.5">query</text></a>
<line x1="400.0" y1="60.0" x2="414.0" y2="60.0" stroke="#000000" stroke-width="2" marker-end="url(#arrow)" />
<line x1="12" y1="60.0" x2="26.0" y2="60.0" stroke="#000000" stroke-width="2" marker-end="url(#arrow)" />
<circle cx="496.0" cy="60.0" r="3.0" stroke="#000000" stroke-width="2" fill="#FFFFFF"/>
<line x1="475.0" y1="60.0" x2="489.0" y2="60.0" stroke="#000000" stroke-width="2" marker-end="url(#arrow)" />
<text class="title_font" x="104.0" y="30.0">create_view</text>
</svg>