<?xml version="1.0" encoding="UTF-8" standalone="no"?>
<!-- Created by Syntax-Trax http://kevinpt.github.io/syntax-trax -->
<svg xmlns="http://www.w3.org/2000/svg"
xmlns:xlink="http://www.w3.org/1999/xlink"
xml:space="preserve"
width="555" height="80" version="1.1">
<style type="text/css">
<![CDATA[
.box_font {fill:#000000; text-anchor:middle;
    font-family:Times; font-size:14pt; font-weight:regular; font-style:normal;}
.literal_font {fill:#000000; text-anchor:middle;
    font-family:Times; font-size:14pt; font-weight:regular; font-style:normal;}
.title_font {fill:#000000; text-anchor:middle;
    font-family:Sans; font-size:22pt; font-weight:bold; font-style:normal;}
.bubble_font {fill:#000000; text-anchor:middle;
    font-family:Sans; font-size:14pt; font-weight:regular; font-style:normal;}
.token_font {fill:#000000; text-anchor:middle;
    font-family:Sans; font-size:16pt; font-weight:regular; font-style:normal;}
.label {fill:#000;
  text-anchor:middle;
  font-size:16pt; font-weight:bold; font-family:Sans;}
.link {fill: #0D47A1;}
.link:hover {fill: #0D47A1; text-decoration:underline;}
.link:visited {fill: #4A148C;}
]]>
</style>
<defs>
  <marker id="arrow" markerWidth="5" markerHeight="4" refX="2.5" refY="2" orient="auto" markerUnits="strokeWidth">
    <path d="M0,0 L0.5,2 L0,4 L4.5,2 z" fill="#000000" />
  </marker>
</defs>
<rect width="100%" height="100%" fill="white"/><path d="M47.0,77.0 A13.0,13.0 0 0,1 47.0,51.0 H138.0 A13.0,13.0 0 0,1 138.0,77.0 z" stroke="none" fill-opacity="0.498039215686" fill="#000000"/>
<path d="M183.0,77.0 A13.0,13.0 0 0,1 183.0,51.0 H228.0 A13.0,13.0 0 0,1 228.0,77.0 z" stroke="none" fill-opacity="0.498039215686" fill="#000000"/>
<path d="M273.0,77.0 A13.0,13.0 0 0,1 273.0,51.0 H313.0 A13.0,13.0 0 0,1 313.0,77.0 z" stroke="none" fill-opacity="0.498039215686" fill="#000000"/>
<path d="M358.0,77.0 A13.0,13.0 0 0,1 358.0,51.0 H406.0 A13.0,13.0 0 0,1 406.0,77.0 z" stroke="none" fill-opacity="0.498039215686" fill="#000000"/>
<rect x="438.0" y="51.0" width="90.0" height="26.0" stroke="none" fill-opacity="0.498039215686" fill="#000000"/>
<circle cx="10" cy="60.0" r="3" stroke="#000000" stroke-width="2" fill="#FFFFFF"/>
<path d="M44.0,74.0 A13.0,13.0 0 0,1 44.0,48.0 H135.0 A13.0,13.0 0 0,1 135.0,74.0 z" stroke="#000000" stroke-width="2" fill="#FFFFFF"/>
<text class="bubble_font" x="89.5" y="67.0">DATETIME</text>
<path d="M180.0,74.0 A13.0,13.0 0 0,1 180.0,48.0 H225.0 A13.0,13.0 0 0,1 225.0,74.0 z" stroke="#000000" stroke-width="2" fill="#FFFFFF"/>
<text class="bubble_font" x="202.5" y="67.0">WITH</text>
<line x1="148.0" y1="60.0" x2="162.0" y2="60.0" stroke="#000000" stroke-width="2" marker-end="url(#arrow)" />
<path d="M270.0,74.0 A13.0,13.0 0 0,1 270.0,48.0 H310.0 A13.0,13.0 0 0,1 310.0,74.0 z" stroke="#000000" stroke-width="2" fill="#FFFFFF"/>
<text class="bubble_font" x="290.0" y="67.0">TIME</text>
<line x1="238.0" y1="60.0" x2="252.0" y2="60.0" stroke="#000000" stroke-width="2" marker-end="url(#arrow)" />
<path d="M355.0,74.0 A13.0,13.0 0 0,1 355.0,48.0 H403.0 A13.0,13.0 0 0,1 403.0,74.0 z" stroke="#000000" stroke-width="2" fill="#FFFFFF"/>
<text class="bubble_font" x="379.0" y="67.0">ZONE</text>
<line x1="323.0" y1="60.0" x2="337.0" y2="60.0" stroke="#000000" stroke-width="2" marker-end="url(#arrow)" />
<rect x="435.0" y="48.0" width="90.0" height="26.0" stroke="#000000" stroke-width="2" fill="#FFFFFF"/>
<a xlink:href=".#nullability" target="_parent">
  <text class="box_font link" x="480.0" y="66.5">nullability</text></a>
<line x1="416.0" y1="60.0" x2="430.0" y2="60.0" stroke="#000000" stroke-width="2" marker-end="url(#arrow)" />
<line x1="12" y1="60.0" x2="26.0" y2="60.0" stroke="#000000" stroke-width="2" marker-end="url(#arrow)" />
<circle cx="546.0" cy="60.0" r="3.0" stroke="#000000" stroke-width="2" fill="#FFFFFF"/>
<line x1="525.0" y1="60.0" x2="539.0" y2="60.0" stroke="#000000" stroke-width="2" marker-end="url(#arrow)" />
<text class="title_font" x="259.0" y="30.0">datetime_with_time_zone_field</text>
</svg>