<?xml version="1.0" encoding="UTF-8" standalone="no"?>
<!-- Created by Syntax-Trax http://kevinpt.github.io/syntax-trax -->
<svg xmlns="http://www.w3.org/2000/svg"
xmlns:xlink="http://www.w3.org/1999/xlink"
xml:space="preserve"
width="816" height="122" version="1.1">
<style type="text/css">
<![CDATA[
.box_font {fill:#000000; text-anchor:middle;
    font-family:Times; font-size:14pt; font-weight:regular; font-style:normal;}
.literal_font {fill:#000000; text-anchor:middle;
    font-family:Times; font-size:14pt; font-weight:regular; font-style:normal;}
.title_font {fill:#000000; text-anchor:middle;
    font-family:Sans; font-size:22pt; font-weight:bold; font-style:normal;}
.bubble_font {fill:#000000; text-anchor:middle;
    font-family:Sans; font-size:14pt; font-weight:regular; font-style:normal;}
.token_font {fill:#000000; text-anchor:middle;
    font-family:Sans; font-size:16pt; font-weight:regular; font-style:normal;}
.label {fill:#000;
  text-anchor:middle;
  font-size:16pt; font-weight:bold; font-family:Sans;}
.link {fill: #0D47A1;}
.link:hover {fill: #0D47A1; text-decoration:underline;}
.link:visited {fill: #4A148C;}
]]>
</style>
<defs>
  <marker id="arrow" markerWidth="5" markerHeight="4" refX="2.5" refY="2" orient="auto" markerUnits="strokeWidth">
    <path d="M0,0 L0.5,2 L0,4 L4.5,2 z" fill="#000000" />
  </marker>
</defs>
<rect width="100%" height="100%" fill="white"/><path d="M47.0,77.0 A13.0,13.0 0 0,1 47.0,51.0 H73.0 A13.0,13.0 0 0,1 73.0,77.0 z" stroke="none" fill-opacity="0.498039215686" fill="#000000"/>
<rect x="105.0" y="51.0" width="90.0" height="26.0" stroke="none" fill-opacity="0.498039215686" fill="#000000"/>
<path d="M245.0,77.0 A13.0,13.0 0 0,1 245.0,51.0 H322.0 A13.0,13.0 0 0,1 322.0,77.0 z" stroke="none" fill-opacity="0.498039215686" fill="#000000"/>
<path d="M388.5,77.0 H494.5 L501.0,64.0 L494.5,51.0 H388.5 L382.0,64.0 z" stroke="none" fill-opacity="0.498039215686" fill="#000000"/>
<path d="M395.0,111.0 A13.0,13.0 0 0,1 395.0,85.0 H476.0 A13.0,13.0 0 0,1 476.0,111.0 z" stroke="none" fill-opacity="0.498039215686" fill="#000000"/>
<circle cx="523.0" cy="98.0" r="15.0" stroke="none" fill-opacity="0.498039215686" fill="#000000"/>
<path d="M563.5,111.0 H685.5 L692.0,98.0 L685.5,85.0 H563.5 L557.0,98.0 z" stroke="none" fill-opacity="0.498039215686" fill="#000000"/>
<circle cx="726.0" cy="98.0" r="15.0" stroke="none" fill-opacity="0.498039215686" fill="#000000"/>
<circle cx="10" cy="60.0" r="3" stroke="#000000" stroke-width="2" fill="#FFFFFF"/>
<path d="M44.0,74.0 A13.0,13.0 0 0,1 44.0,48.0 H70.0 A13.0,13.0 0 0,1 70.0,74.0 z" stroke="#000000" stroke-width="2" fill="#FFFFFF"/>
<text class="bubble_font" x="57.0" y="67.0">INT</text>
<rect x="102.0" y="48.0" width="90.0" height="26.0" stroke="#000000" stroke-width="2" fill="#FFFFFF"/>
<a xlink:href=".#nullability" target="_parent">
  <text class="box_font link" x="147.0" y="66.5">nullability</text></a>
<line x1="83.0" y1="60.0" x2="97.0" y2="60.0" stroke="#000000" stroke-width="2" marker-end="url(#arrow)" />
<path d="M242.0,74.0 A13.0,13.0 0 0,1 242.0,48.0 H319.0 A13.0,13.0 0 0,1 319.0,74.0 z" stroke="#000000" stroke-width="2" fill="#FFFFFF"/>
<text class="bubble_font" x="280.5" y="67.0">DEFAULT</text>
<path d="M385.5,74.0 H491.5 L498.0,61.0 L491.5,48.0 H385.5 L379.0,61.0 z" stroke="#000000" stroke-width="2" fill="#FFFFFF"/>
<text class="literal_font" x="438.5" y="66.5">integer literal</text>
<path d="M392.0,108.0 A13.0,13.0 0 0,1 392.0,82.0 H473.0 A13.0,13.0 0 0,1 473.0,108.0 z" stroke="#000000" stroke-width="2" fill="#FFFFFF"/>
<text class="bubble_font" x="432.5" y="101.0">NEXTVAL</text>
<circle cx="520.0" cy="95.0" r="15.0" stroke="#000000" stroke-width="2" fill="#FFFFFF"/>
<text class="token_font" x="520.0" y="101.5">(</text>
<line x1="486.0" y1="94.0" x2="500.0" y2="94.0" stroke="#000000" stroke-width="2" marker-end="url(#arrow)" />
<path d="M560.5,108.0 H682.5 L689.0,95.0 L682.5,82.0 H560.5 L554.0,95.0 z" stroke="#000000" stroke-width="2" fill="#FFFFFF"/>
<text class="literal_font" x="621.5" y="100.5">sequence name</text>
<line x1="535.0" y1="94.0" x2="549.0" y2="94.0" stroke="#000000" stroke-width="2" marker-end="url(#arrow)" />
<circle cx="723.0" cy="95.0" r="15.0" stroke="#000000" stroke-width="2" fill="#FFFFFF"/>
<text class="token_font" x="723.0" y="101.5">)</text>
<line x1="689.0" y1="94.0" x2="703.0" y2="94.0" stroke="#000000" stroke-width="2" marker-end="url(#arrow)" />
<line x1="350.0" y1="60.0" x2="374.0" y2="60.0" stroke="#000000" stroke-width="2" marker-end="url(#arrow)" />
<line x1="499.0" y1="60.0" x2="768.0" y2="60.0" stroke="#000000" stroke-width="2" />
<path d="M359.0,69.0 A9.0,9.0 0 0,0 350.0,60.0" stroke="#000000" stroke-width="2" fill="none"/>
<line x1="368.0" y1="94.0" x2="374.0" y2="94.0" stroke="#000000" stroke-width="2" marker-end="url(#arrow)" />
<line x1="739.0" y1="94.0" x2="749.0" y2="94.0" stroke="#000000" stroke-width="2" />
<path d="M359.0,85.0 A9.0,9.0 0 0,0 368.0,94.0" stroke="#000000" stroke-width="2" fill="none"/>
<path d="M749.0,94.0 A9.0,9.0 0 0,0 758.0,85.0" stroke="#000000" stroke-width="2" fill="none"/>
<path d="M767.0,60.0 A9.0,9.0 0 0,0 758.0,69.0" stroke="#000000" stroke-width="2" fill="none"/>
<line x1="359.0" y1="85.0" x2="359.0" y2="69.0" stroke="#000000" stroke-width="2" />
<line x1="758.0" y1="85.0" x2="758.0" y2="69.0" stroke="#000000" stroke-width="2" />
<line x1="332.0" y1="60.0" x2="346.0" y2="60.0" stroke="#000000" stroke-width="2" marker-end="url(#arrow)" />
<line x1="497.0" y1="116.0" x2="498.0" y2="116.0" stroke="#000000" stroke-width="2" />
<line x1="210.0" y1="60.0" x2="228.0" y2="60.0" stroke="#000000" stroke-width="2" />
<line x1="767.0" y1="60.0" x2="788.0" y2="60.0" stroke="#000000" stroke-width="2" />
<path d="M219.0,69.0 A9.0,9.0 0 0,0 210.0,60.0" stroke="#000000" stroke-width="2" fill="none"/>
<line x1="228.0" y1="116.0" x2="493.0" y2="116.0" stroke="#000000" stroke-width="2" marker-end="url(#arrow)" />
<line x1="498.0" y1="116.0" x2="769.0" y2="116.0" stroke="#000000" stroke-width="2" />
<path d="M219.0,107.0 A9.0,9.0 0 0,0 228.0,116.0" stroke="#000000" stroke-width="2" fill="none"/>
<path d="M769.0,116.0 A9.0,9.0 0 0,0 778.0,107.0" stroke="#000000" stroke-width="2" fill="none"/>
<path d="M787.0,60.0 A9.0,9.0 0 0,0 778.0,69.0" stroke="#000000" stroke-width="2" fill="none"/>
<line x1="219.0" y1="107.0" x2="219.0" y2="69.0" stroke="#000000" stroke-width="2" />
<line x1="778.0" y1="107.0" x2="778.0" y2="69.0" stroke="#000000" stroke-width="2" />
<line x1="192.0" y1="60.0" x2="206.0" y2="60.0" stroke="#000000" stroke-width="2" marker-end="url(#arrow)" />
<line x1="12" y1="60.0" x2="26.0" y2="60.0" stroke="#000000" stroke-width="2" marker-end="url(#arrow)" />
<circle cx="807.0" cy="60.0" r="3.0" stroke="#000000" stroke-width="2" fill="#FFFFFF"/>
<line x1="786.0" y1="60.0" x2="800.0" y2="60.0" stroke="#000000" stroke-width="2" marker-end="url(#arrow)" />
<text class="title_font" x="72.5" y="30.0">int_field</text>
</svg>