<?xml version="1.0" encoding="UTF-8" standalone="no"?>
<!-- Created by Syntax-Trax http://kevinpt.github.io/syntax-trax -->
<svg xmlns="http://www.w3.org/2000/svg"
xmlns:xlink="http://www.w3.org/1999/xlink"
xml:space="preserve"
width="482" height="114" version="1.1">
<style type="text/css">
<![CDATA[
.box_font {fill:#000000; text-anchor:middle;
    font-family:Times; font-size:14pt; font-weight:regular; font-style:normal;}
.literal_font {fill:#000000; text-anchor:middle;
    font-family:Times; font-size:14pt; font-weight:regular; font-style:normal;}
.title_font {fill:#000000; text-anchor:middle;
    font-family:Sans; font-size:22pt; font-weight:bold; font-style:normal;}
.bubble_font {fill:#000000; text-anchor:middle;
    font-family:Sans; font-size:14pt; font-weight:regular; font-style:normal;}
.token_font {fill:#000000; text-anchor:middle;
    font-family:Sans; font-size:16pt; font-weight:regular; font-style:normal;}
.label {fill:#000;
  text-anchor:middle;
  font-size:16pt; font-weight:bold; font-family:Sans;}
.link {fill: #0D47A1;}
.link:hover {fill: #0D47A1; text-decoration:underline;}
.link:visited {fill: #4A148C;}
]]>
</style>
<defs>
  <marker id="arrow" markerWidth="5" markerHeight="4" refX="2.5" refY="2" orient="auto" markerUnits="strokeWidth">
    <path d="M0,0 L0.5,2 L0,4 L4.5,2 z" fill="#000000" />
  </marker>
</defs>
<rect width="100%" height="100%" fill="white"/><path d="M47.0,79.0 A13.0,13.0 0 0,1 47.0,53.0 H124.0 A13.0,13.0 0 0,1 124.0,79.0 z" stroke="none" fill-opacity="0.498039215686" fill="#000000"/>
<path d="M169.0,79.0 A13.0,13.0 0 0,1 169.0,53.0 H199.0 A13.0,13.0 0 0,1 199.0,79.0 z" stroke="none" fill-opacity="0.498039215686" fill="#000000"/>
<circle cx="246.0" cy="66.0" r="15.0" stroke="none" fill-opacity="0.498039215686" fill="#000000"/>
<path d="M303.5,79.0 H390.5 L397.0,66.0 L390.5,53.0 H303.5 L297.0,66.0 z" stroke="none" fill-opacity="0.498039215686" fill="#000000"/>
<circle cx="347.0" cy="96.0" r="15.0" stroke="none" fill-opacity="0.498039215686" fill="#000000"/>
<circle cx="440.0" cy="66.0" r="15.0" stroke="none" fill-opacity="0.498039215686" fill="#000000"/>
<circle cx="10" cy="62.0" r="3" stroke="#000000" stroke-width="2" fill="#FFFFFF"/>
<path d="M44.0,76.0 A13.0,13.0 0 0,1 44.0,50.0 H121.0 A13.0,13.0 0 0,1 121.0,76.0 z" stroke="#000000" stroke-width="2" fill="#FFFFFF"/>
<text class="bubble_font" x="82.5" y="69.0">PRIMARY</text>
<path d="M166.0,76.0 A13.0,13.0 0 0,1 166.0,50.0 H196.0 A13.0,13.0 0 0,1 196.0,76.0 z" stroke="#000000" stroke-width="2" fill="#FFFFFF"/>
<text class="bubble_font" x="181.0" y="69.0">KEY</text>
<line x1="134.0" y1="62.0" x2="148.0" y2="62.0" stroke="#000000" stroke-width="2" marker-end="url(#arrow)" />
<circle cx="243.0" cy="63.0" r="15.0" stroke="#000000" stroke-width="2" fill="#FFFFFF"/>
<text class="token_font" x="243.0" y="69.5">(</text>
<line x1="209.0" y1="62.0" x2="223.0" y2="62.0" stroke="#000000" stroke-width="2" marker-end="url(#arrow)" />
<path d="M300.5,76.0 H387.5 L394.0,63.0 L387.5,50.0 H300.5 L294.0,63.0 z" stroke="#000000" stroke-width="2" fill="#FFFFFF"/>
<text class="literal_font" x="344.0" y="68.5">field name</text>
<circle cx="344.0" cy="93.0" r="15.0" stroke="#000000" stroke-width="2" fill="#FFFFFF"/>
<text class="token_font" x="344.0" y="99.5">,</text>
<line x1="293.0" y1="92.0" x2="328.0" y2="92.0" stroke="#000000" stroke-width="2" />
<line x1="395.0" y1="92.0" x2="364.0" y2="92.0" stroke="#000000" stroke-width="2" marker-end="url(#arrow)" />
<line x1="276.0" y1="62.0" x2="293.0" y2="62.0" stroke="#000000" stroke-width="2" />
<path d="M293.0,62.0 A9.0,9.0 0 0,0 284.0,71.0" stroke="#000000" stroke-width="2" fill="none"/>
<line x1="284.0" y1="71.0" x2="284.0" y2="83.0" stroke="#000000" stroke-width="2" />
<path d="M284.0,83.0 A9.0,9.0 0 0,0 293.0,92.0" stroke="#000000" stroke-width="2" fill="none"/>
<path d="M404.0,71.0 A9.0,9.0 0 0,0 395.0,62.0" stroke="#000000" stroke-width="2" fill="none"/>
<line x1="404.0" y1="71.0" x2="404.0" y2="83.0" stroke="#000000" stroke-width="2" />
<path d="M395.0,92.0 A9.0,9.0 0 0,0 404.0,83.0" stroke="#000000" stroke-width="2" fill="none"/>
<line x1="395.0" y1="62.0" x2="404.0" y2="62.0" stroke="#000000" stroke-width="2" />
<line x1="258.0" y1="62.0" x2="272.0" y2="62.0" stroke="#000000" stroke-width="2" marker-end="url(#arrow)" />
<circle cx="437.0" cy="63.0" r="15.0" stroke="#000000" stroke-width="2" fill="#FFFFFF"/>
<text class="token_font" x="437.0" y="69.5">)</text>
<line x1="403.0" y1="62.0" x2="417.0" y2="62.0" stroke="#000000" stroke-width="2" marker-end="url(#arrow)" />
<line x1="12" y1="62.0" x2="26.0" y2="62.0" stroke="#000000" stroke-width="2" marker-end="url(#arrow)" />
<circle cx="473.0" cy="62.0" r="3.0" stroke="#000000" stroke-width="2" fill="#FFFFFF"/>
<line x1="452.0" y1="62.0" x2="466.0" y2="62.0" stroke="#000000" stroke-width="2" marker-end="url(#arrow)" />
<text class="title_font" x="193.0" y="30.0">primary_key_definition</text>
</svg>