<?xml version="1.0" encoding="UTF-8" standalone="no"?>
<!-- Created by Syntax-Trax http://kevinpt.github.io/syntax-trax -->
<svg xmlns="http://www.w3.org/2000/svg"
xmlns:xlink="http://www.w3.org/1999/xlink"
xml:space="preserve"
width="468" height="271" version="1.1">
<style type="text/css">
<![CDATA[
.box_font {fill:#000000; text-anchor:middle;
    font-family:Times; font-size:14pt; font-weight:regular; font-style:normal;}
.literal_font {fill:#000000; text-anchor:middle;
    font-family:Times; font-size:14pt; font-weight:regular; font-style:normal;}
.title_font {fill:#000000; text-anchor:middle;
    font-family:Sans; font-size:22pt; font-weight:bold; font-style:normal;}
.bubble_font {fill:#000000; text-anchor:middle;
    font-family:Sans; font-size:14pt; font-weight:regular; font-style:normal;}
.token_font {fill:#000000; text-anchor:middle;
    font-family:Sans; font-size:16pt; font-weight:regular; font-style:normal;}
.label {fill:#000;
  text-anchor:middle;
  font-size:16pt; font-weight:bold; font-family:Sans;}
.link {fill: #0D47A1;}
.link:hover {fill: #0D47A1; text-decoration:underline;}
.link:visited {fill: #4A148C;}
]]>
</style>
<defs>
  <marker id="arrow" markerWidth="5" markerHeight="4" refX="2.5" refY="2" orient="auto" markerUnits="strokeWidth">
    <path d="M0,0 L0.5,2 L0,4 L4.5,2 z" fill="#000000" />
  </marker>
</defs>
<rect width="100%" height="100%" fill="white"/><rect x="33.0" y="11.0" width="104.0" height="26.0" stroke="none" fill-opacity="0.498039215686" fill="#000000"/>
<circle cx="304.0" cy="24.0" r="15.0" stroke="none" fill-opacity="0.498039215686" fill="#000000"/>
<rect x="201.0" y="50.0" width="134.0" height="26.0" stroke="none" fill-opacity="0.498039215686" fill="#000000"/>
<rect x="201.0" y="82.0" width="101.0" height="26.0" stroke="none" fill-opacity="0.498039215686" fill="#000000"/>
<rect x="201.0" y="114.0" width="143.0" height="26.0" stroke="none" fill-opacity="0.498039215686" fill="#000000"/>
<rect x="201.0" y="146.0" width="108.0" height="26.0" stroke="none" fill-opacity="0.498039215686" fill="#000000"/>
<rect x="201.0" y="178.0" width="102.0" height="26.0" stroke="none" fill-opacity="0.498039215686" fill="#000000"/>
<rect x="201.0" y="210.0" width="203.0" height="26.0" stroke="none" fill-opacity="0.498039215686" fill="#000000"/>
<rect x="201.0" y="242.0" width="129.0" height="26.0" stroke="none" fill-opacity="0.498039215686" fill="#000000"/>
<circle cx="9" cy="20.0" r="3" stroke="#000000" stroke-width="2" fill="#FFFFFF"/>
<rect x="30.0" y="8.0" width="104.0" height="26.0" stroke="#000000" stroke-width="2" fill="#FFFFFF"/>
<a xlink:href=".#create_grain" target="_parent">
  <text class="box_font link" x="82.0" y="26.5">create_grain</text></a>
<circle cx="301.0" cy="21.0" r="15.0" stroke="#000000" stroke-width="2" fill="#FFFFFF"/>
<text class="token_font" x="301.0" y="27.5">;</text>
<rect x="198.0" y="47.0" width="134.0" height="26.0" stroke="#000000" stroke-width="2" fill="#FFFFFF"/>
<a xlink:href=".#create_sequence" target="_parent">
  <text class="box_font link" x="265.0" y="65.5">create_sequence</text></a>
<rect x="198.0" y="79.0" width="101.0" height="26.0" stroke="#000000" stroke-width="2" fill="#FFFFFF"/>
<a xlink:href=".#create_table" target="_parent">
  <text class="box_font link" x="248.5" y="97.5">create_table</text></a>
<rect x="198.0" y="111.0" width="143.0" height="26.0" stroke="#000000" stroke-width="2" fill="#FFFFFF"/>
<a xlink:href=".#add_foreign_key" target="_parent">
  <text class="box_font link" x="269.5" y="129.5">add_foreign_key</text></a>
<rect x="198.0" y="143.0" width="108.0" height="26.0" stroke="#000000" stroke-width="2" fill="#FFFFFF"/>
<a xlink:href=".#create_index" target="_parent">
  <text class="box_font link" x="252.0" y="161.5">create_index</text></a>
<rect x="198.0" y="175.0" width="102.0" height="26.0" stroke="#000000" stroke-width="2" fill="#FFFFFF"/>
<a xlink:href=".#create_view" target="_parent">
  <text class="box_font link" x="249.0" y="193.5">create_view</text></a>
<rect x="198.0" y="207.0" width="203.0" height="26.0" stroke="#000000" stroke-width="2" fill="#FFFFFF"/>
<a xlink:href=".#create_materialized_view" target="_parent">
  <text class="box_font link" x="299.5" y="225.5">create_materialized_view</text></a>
<rect x="198.0" y="239.0" width="129.0" height="26.0" stroke="#000000" stroke-width="2" fill="#FFFFFF"/>
<a xlink:href=".#create_function" target="_parent">
  <text class="box_font link" x="262.5" y="257.5">create_function</text></a>
<line x1="169.0" y1="59.0" x2="197.0" y2="59.0" stroke="#000000" stroke-width="2" />
<line x1="431.0" y1="59.0" x2="337.0" y2="59.0" stroke="#000000" stroke-width="2" marker-end="url(#arrow)" />
<path d="M178.0,68.0 A9.0,9.0 0 0,0 169.0,59.0" stroke="#000000" stroke-width="2" fill="none"/>
<line x1="187.0" y1="91.0" x2="197.0" y2="91.0" stroke="#000000" stroke-width="2" />
<line x1="412.0" y1="91.0" x2="304.0" y2="91.0" stroke="#000000" stroke-width="2" marker-end="url(#arrow)" />
<path d="M178.0,82.0 A9.0,9.0 0 0,0 187.0,91.0" stroke="#000000" stroke-width="2" fill="none"/>
<path d="M412.0,91.0 A9.0,9.0 0 0,0 421.0,82.0" stroke="#000000" stroke-width="2" fill="none"/>
<line x1="187.0" y1="123.0" x2="197.0" y2="123.0" stroke="#000000" stroke-width="2" />
<line x1="412.0" y1="123.0" x2="346.0" y2="123.0" stroke="#000000" stroke-width="2" marker-end="url(#arrow)" />
<path d="M178.0,114.0 A9.0,9.0 0 0,0 187.0,123.0" stroke="#000000" stroke-width="2" fill="none"/>
<path d="M412.0,123.0 A9.0,9.0 0 0,0 421.0,114.0" stroke="#000000" stroke-width="2" fill="none"/>
<line x1="187.0" y1="155.0" x2="197.0" y2="155.0" stroke="#000000" stroke-width="2" />
<line x1="412.0" y1="155.0" x2="311.0" y2="155.0" stroke="#000000" stroke-width="2" marker-end="url(#arrow)" />
<path d="M178.0,146.0 A9.0,9.0 0 0,0 187.0,155.0" stroke="#000000" stroke-width="2" fill="none"/>
<path d="M412.0,155.0 A9.0,9.0 0 0,0 421.0,146.0" stroke="#000000" stroke-width="2" fill="none"/>
<line x1="187.0" y1="187.0" x2="197.0" y2="187.0" stroke="#000000" stroke-width="2" />
<line x1="412.0" y1="187.0" x2="305.0" y2="187.0" stroke="#000000" stroke-width="2" marker-end="url(#arrow)" />
<path d="M178.0,178.0 A9.0,9.0 0 0,0 187.0,187.0" stroke="#000000" stroke-width="2" fill="none"/>
<path d="M412.0,187.0 A9.0,9.0 0 0,0 421.0,178.0" stroke="#000000" stroke-width="2" fill="none"/>
<line x1="187.0" y1="219.0" x2="197.0" y2="219.0" stroke="#000000" stroke-width="2" />
<line x1="412.0" y1="219.0" x2="406.0" y2="219.0" stroke="#000000" stroke-width="2" marker-end="url(#arrow)" />
<path d="M178.0,210.0 A9.0,9.0 0 0,0 187.0,219.0" stroke="#000000" stroke-width="2" fill="none"/>
<path d="M412.0,219.0 A9.0,9.0 0 0,0 421.0,210.0" stroke="#000000" stroke-width="2" fill="none"/>
<line x1="187.0" y1="251.0" x2="197.0" y2="251.0" stroke="#000000" stroke-width="2" />
<line x1="412.0" y1="251.0" x2="332.0" y2="251.0" stroke="#000000" stroke-width="2" marker-end="url(#arrow)" />
<path d="M178.0,242.0 A9.0,9.0 0 0,0 187.0,251.0" stroke="#000000" stroke-width="2" fill="none"/>
<path d="M412.0,251.0 A9.0,9.0 0 0,0 421.0,242.0" stroke="#000000" stroke-width="2" fill="none"/>
<path d="M430.0,59.0 A9.0,9.0 0 0,0 421.0,68.0" stroke="#000000" stroke-width="2" fill="none"/>
<line x1="178.0" y1="242.0" x2="178.0" y2="68.0" stroke="#000000" stroke-width="2" />
<line x1="421.0" y1="242.0" x2="421.0" y2="68.0" stroke="#000000" stroke-width="2" />
<line x1="169.0" y1="20.0" x2="281.0" y2="20.0" stroke="#000000" stroke-width="2" marker-end="url(#arrow)" />
<line x1="317.0" y1="20.0" x2="432.0" y2="20.0" stroke="#000000" stroke-width="2" />
<line x1="152.0" y1="20.0" x2="169.0" y2="20.0" stroke="#000000" stroke-width="2" />
<path d="M169.0,20.0 A9.0,9.0 0 0,0 160.0,29.0" stroke="#000000" stroke-width="2" fill="none"/>
<line x1="160.0" y1="50.0" x2="160.0" y2="43.5" stroke="#000000" stroke-width="2" marker-end="url(#arrow)" />
<line x1="160.0" y1="39.5" x2="160.0" y2="29.0" stroke="#000000" stroke-width="2" />
<path d="M160.0,50.0 A9.0,9.0 0 0,0 169.0,59.0" stroke="#000000" stroke-width="2" fill="none"/>
<path d="M439.0,29.0 A9.0,9.0 0 0,0 430.0,20.0" stroke="#000000" stroke-width="2" fill="none"/>
<line x1="439.0" y1="29.0" x2="439.0" y2="35.5" stroke="#000000" stroke-width="2" marker-end="url(#arrow)" />
<line x1="439.0" y1="39.5" x2="439.0" y2="50.0" stroke="#000000" stroke-width="2" />
<path d="M430.0,59.0 A9.0,9.0 0 0,0 439.0,50.0" stroke="#000000" stroke-width="2" fill="none"/>
<line x1="430.0" y1="20.0" x2="439.0" y2="20.0" stroke="#000000" stroke-width="2" />
<line x1="134.0" y1="20.0" x2="148.0" y2="20.0" stroke="#000000" stroke-width="2" marker-end="url(#arrow)" />
<line x1="11" y1="20.0" x2="25.0" y2="20.0" stroke="#000000" stroke-width="2" marker-end="url(#arrow)" />
<circle cx="459.0" cy="20.0" r="3.0" stroke="#000000" stroke-width="2" fill="#FFFFFF"/>
<line x1="438.0" y1="20.0" x2="452.0" y2="20.0" stroke="#000000" stroke-width="2" marker-end="url(#arrow)" />
</svg>