<?xml version="1.0" encoding="UTF-8" standalone="no"?>
<!-- Created by Syntax-Trax http://kevinpt.github.io/syntax-trax -->
<svg xmlns="http://www.w3.org/2000/svg"
xmlns:xlink="http://www.w3.org/1999/xlink"
xml:space="preserve"
width="372" height="90" version="1.1">
<style type="text/css">
<![CDATA[
.box_font {fill:#000000; text-anchor:middle;
    font-family:Times; font-size:14pt; font-weight:regular; font-style:normal;}
.literal_font {fill:#000000; text-anchor:middle;
    font-family:Times; font-size:14pt; font-weight:regular; font-style:normal;}
.title_font {fill:#000000; text-anchor:middle;
    font-family:Sans; font-size:22pt; font-weight:bold; font-style:normal;}
.bubble_font {fill:#000000; text-anchor:middle;
    font-family:Sans; font-size:14pt; font-weight:regular; font-style:normal;}
.token_font {fill:#000000; text-anchor:middle;
    font-family:Sans; font-size:16pt; font-weight:regular; font-style:normal;}
.label {fill:#000;
  text-anchor:middle;
  font-size:16pt; font-weight:bold; font-family:Sans;}
.link {fill: #0D47A1;}
.link:hover {fill: #0D47A1; text-decoration:underline;}
.link:visited {fill: #4A148C;}
]]>
</style>
<defs>
  <marker id="arrow" markerWidth="5" markerHeight="4" refX="2.5" refY="2" orient="auto" markerUnits="strokeWidth">
    <path d="M0,0 L0.5,2 L0,4 L4.5,2 z" fill="#000000" />
  </marker>
</defs>
<rect width="100%" height="100%" fill="white"/><path d="M58.5,79.0 H150.5 L157.0,66.0 L150.5,53.0 H58.5 L52.0,66.0 z" stroke="none" fill-opacity="0.498039215686" fill="#000000"/>
<circle cx="191.0" cy="66.0" r="15.0" stroke="none" fill-opacity="0.498039215686" fill="#000000"/>
<path d="M249.5,79.0 H338.5 L345.0,66.0 L338.5,53.0 H249.5 L243.0,66.0 z" stroke="none" fill-opacity="0.498039215686" fill="#000000"/>
<circle cx="10" cy="62.0" r="3" stroke="#000000" stroke-width="2" fill="#FFFFFF"/>
<path d="M55.5,76.0 H147.5 L154.0,63.0 L147.5,50.0 H55.5 L49.0,63.0 z" stroke="#000000" stroke-width="2" fill="#FFFFFF"/>
<text class="literal_font" x="101.5" y="68.5">grain name</text>
<circle cx="188.0" cy="63.0" r="15.0" stroke="#000000" stroke-width="2" fill="#FFFFFF"/>
<text class="token_font" x="188.0" y="69.5">.</text>
<line x1="154.0" y1="62.0" x2="168.0" y2="62.0" stroke="#000000" stroke-width="2" marker-end="url(#arrow)" />
<line x1="124.5" y1="84.0" x2="125.5" y2="84.0" stroke="#000000" stroke-width="2" />
<line x1="30" y1="62.0" x2="48.0" y2="62.0" stroke="#000000" stroke-width="2" />
<line x1="204.0" y1="62.0" x2="223.0" y2="62.0" stroke="#000000" stroke-width="2" />
<path d="M39.0,71.0 A9,9 0 0,0 30.0,62.0" stroke="#000000" stroke-width="2" fill="none"/>
<line x1="48" y1="84.0" x2="120.5" y2="84.0" stroke="#000000" stroke-width="2" marker-end="url(#arrow)" />
<line x1="125.5" y1="84.0" x2="204.0" y2="84.0" stroke="#000000" stroke-width="2" />
<path d="M39.0,75.0 A9,9 0 0,0 48.0,84.0" stroke="#000000" stroke-width="2" fill="none"/>
<path d="M204.0,84.0 A9.0,9.0 0 0,0 213.0,75.0" stroke="#000000" stroke-width="2" fill="none"/>
<path d="M222.0,62.0 A9.0,9.0 0 0,0 213.0,71.0" stroke="#000000" stroke-width="2" fill="none"/>
<line x1="39" y1="75.0" x2="39" y2="71.0" stroke="#000000" stroke-width="2" />
<line x1="213.0" y1="75.0" x2="213.0" y2="71.0" stroke="#000000" stroke-width="2" />
<path d="M246.5,76.0 H335.5 L342.0,63.0 L335.5,50.0 H246.5 L240.0,63.0 z" stroke="#000000" stroke-width="2" fill="#FFFFFF"/>
<text class="literal_font" x="291.0" y="68.5">table name</text>
<line x1="221.0" y1="62.0" x2="235.0" y2="62.0" stroke="#000000" stroke-width="2" marker-end="url(#arrow)" />
<line x1="12" y1="62.0" x2="26.0" y2="62.0" stroke="#000000" stroke-width="2" marker-end="url(#arrow)" />
<circle cx="363.0" cy="62.0" r="3.0" stroke="#000000" stroke-width="2" fill="#FFFFFF"/>
<line x1="342.0" y1="62.0" x2="356.0" y2="62.0" stroke="#000000" stroke-width="2" marker-end="url(#arrow)" />
<text class="title_font" x="79.5" y="30.0">table_ref</text>
</svg>