<?xml version="1.0" encoding="UTF-8" standalone="no"?>
<!-- Created by Syntax-Trax http://kevinpt.github.io/syntax-trax -->
<svg xmlns="http://www.w3.org/2000/svg"
xmlns:xlink="http://www.w3.org/1999/xlink"
xml:space="preserve"
width="629" height="188" version="1.1">
<style type="text/css">
<![CDATA[
.box_font {fill:#000000; text-anchor:middle;
    font-family:Times; font-size:14pt; font-weight:regular; font-style:normal;}
.literal_font {fill:#000000; text-anchor:middle;
    font-family:Times; font-size:14pt; font-weight:regular; font-style:normal;}
.title_font {fill:#000000; text-anchor:middle;
    font-family:Sans; font-size:22pt; font-weight:bold; font-style:normal;}
.bubble_font {fill:#000000; text-anchor:middle;
    font-family:Sans; font-size:14pt; font-weight:regular; font-style:normal;}
.token_font {fill:#000000; text-anchor:middle;
    font-family:Sans; font-size:16pt; font-weight:regular; font-style:normal;}
.label {fill:#000;
  text-anchor:middle;
  font-size:16pt; font-weight:bold; font-family:Sans;}
.link {fill: #0D47A1;}
.link:hover {fill: #0D47A1; text-decoration:underline;}
.link:visited {fill: #4A148C;}
]]>
</style>
<defs>
  <marker id="arrow" markerWidth="5" markerHeight="4" refX="2.5" refY="2" orient="auto" markerUnits="strokeWidth">
    <path d="M0,0 L0.5,2 L0,4 L4.5,2 z" fill="#000000" />
  </marker>
</defs>
<rect width="100%" height="100%" fill="white"/><path d="M65.0,79.0 A13.0,13.0 0 0,1 65.0,53.0 H149.0 A13.0,13.0 0 0,1 149.0,79.0 z" stroke="none" fill-opacity="0.498039215686" fill="#000000"/>
<circle cx="196.0" cy="66.0" r="15.0" stroke="none" fill-opacity="0.498039215686" fill="#000000"/>
<path d="M236.5,79.0 H342.5 L349.0,66.0 L342.5,53.0 H236.5 L230.0,66.0 z" stroke="none" fill-opacity="0.498039215686" fill="#000000"/>
<circle cx="383.0" cy="66.0" r="15.0" stroke="none" fill-opacity="0.498039215686" fill="#000000"/>
<path d="M75.0,113.0 A13.0,13.0 0 0,1 75.0,87.0 H118.0 A13.0,13.0 0 0,1 118.0,113.0 z" stroke="none" fill-opacity="0.498039215686" fill="#000000"/>
<rect x="240.0" y="153.0" width="90.0" height="26.0" stroke="none" fill-opacity="0.498039215686" fill="#000000"/>
<path d="M380.0,179.0 A13.0,13.0 0 0,1 380.0,153.0 H457.0 A13.0,13.0 0 0,1 457.0,179.0 z" stroke="none" fill-opacity="0.498039215686" fill="#000000"/>
<path d="M495.5,179.0 H577.5 L584.0,166.0 L577.5,153.0 H495.5 L489.0,166.0 z" stroke="none" fill-opacity="0.498039215686" fill="#000000"/>
<circle cx="10" cy="62.0" r="3" stroke="#000000" stroke-width="2" fill="#FFFFFF"/>
<path d="M62.0,76.0 A13.0,13.0 0 0,1 62.0,50.0 H146.0 A13.0,13.0 0 0,1 146.0,76.0 z" stroke="#000000" stroke-width="2" fill="#FFFFFF"/>
<text class="bubble_font" x="104.0" y="69.0">VARCHAR</text>
<circle cx="193.0" cy="63.0" r="15.0" stroke="#000000" stroke-width="2" fill="#FFFFFF"/>
<text class="token_font" x="193.0" y="69.5">(</text>
<line x1="159.0" y1="62.0" x2="173.0" y2="62.0" stroke="#000000" stroke-width="2" marker-end="url(#arrow)" />
<path d="M233.5,76.0 H339.5 L346.0,63.0 L339.5,50.0 H233.5 L227.0,63.0 z" stroke="#000000" stroke-width="2" fill="#FFFFFF"/>
<text class="literal_font" x="286.5" y="68.5">integer literal</text>
<line x1="208.0" y1="62.0" x2="222.0" y2="62.0" stroke="#000000" stroke-width="2" marker-end="url(#arrow)" />
<circle cx="380.0" cy="63.0" r="15.0" stroke="#000000" stroke-width="2" fill="#FFFFFF"/>
<text class="token_font" x="380.0" y="69.5">)</text>
<line x1="346.0" y1="62.0" x2="360.0" y2="62.0" stroke="#000000" stroke-width="2" marker-end="url(#arrow)" />
<path d="M72.0,110.0 A13.0,13.0 0 0,1 72.0,84.0 H115.0 A13.0,13.0 0 0,1 115.0,110.0 z" stroke="#000000" stroke-width="2" fill="#FFFFFF"/>
<text class="bubble_font" x="93.5" y="103.0">TEXT</text>
<line x1="30" y1="62.0" x2="48.0" y2="62.0" stroke="#000000" stroke-width="2" />
<line x1="396.0" y1="62.0" x2="415.0" y2="62.0" stroke="#000000" stroke-width="2" />
<path d="M39.0,71.0 A9,9 0 0,0 30.0,62.0" stroke="#000000" stroke-width="2" fill="none"/>
<line x1="48" y1="96.0" x2="54.0" y2="96.0" stroke="#000000" stroke-width="2" marker-end="url(#arrow)" />
<line x1="129.0" y1="96.0" x2="396.0" y2="96.0" stroke="#000000" stroke-width="2" />
<path d="M39.0,87.0 A9,9 0 0,0 48.0,96.0" stroke="#000000" stroke-width="2" fill="none"/>
<path d="M396.0,96.0 A9.0,9.0 0 0,0 405.0,87.0" stroke="#000000" stroke-width="2" fill="none"/>
<path d="M414.0,62.0 A9.0,9.0 0 0,0 405.0,71.0" stroke="#000000" stroke-width="2" fill="none"/>
<line x1="39" y1="87.0" x2="39" y2="71.0" stroke="#000000" stroke-width="2" />
<line x1="405.0" y1="87.0" x2="405.0" y2="71.0" stroke="#000000" stroke-width="2" />
<rect x="237.0" y="150.0" width="90.0" height="26.0" stroke="#000000" stroke-width="2" fill="#FFFFFF"/>
<a xlink:href=".#nullability" target="_parent">
  <text class="box_font link" x="282.0" y="168.5">nullability</text></a>
<path d="M377.0,176.0 A13.0,13.0 0 0,1 377.0,150.0 H454.0 A13.0,13.0 0 0,1 454.0,176.0 z" stroke="#000000" stroke-width="2" fill="#FFFFFF"/>
<text class="bubble_font" x="415.5" y="169.0">DEFAULT</text>
<path d="M492.5,176.0 H574.5 L581.0,163.0 L574.5,150.0 H492.5 L486.0,163.0 z" stroke="#000000" stroke-width="2" fill="#FFFFFF"/>
<text class="literal_font" x="533.5" y="168.5">text literal</text>
<line x1="467.0" y1="162.0" x2="481.0" y2="162.0" stroke="#000000" stroke-width="2" marker-end="url(#arrow)" />
<line x1="471.0" y1="182.0" x2="472.0" y2="182.0" stroke="#000000" stroke-width="2" />
<line x1="345.0" y1="162.0" x2="363.0" y2="162.0" stroke="#000000" stroke-width="2" />
<line x1="582.0" y1="162.0" x2="601.0" y2="162.0" stroke="#000000" stroke-width="2" />
<path d="M354.0,171.0 A9.0,9.0 0 0,0 345.0,162.0" stroke="#000000" stroke-width="2" fill="none"/>
<line x1="363.0" y1="182.0" x2="467.0" y2="182.0" stroke="#000000" stroke-width="2" marker-end="url(#arrow)" />
<line x1="472.0" y1="182.0" x2="582.0" y2="182.0" stroke="#000000" stroke-width="2" />
<path d="M354.0,173.0 A9.0,9.0 0 0,0 363.0,182.0" stroke="#000000" stroke-width="2" fill="none"/>
<path d="M582.0,182.0 A9.0,9.0 0 0,0 591.0,173.0" stroke="#000000" stroke-width="2" fill="none"/>
<path d="M600.0,162.0 A9.0,9.0 0 0,0 591.0,171.0" stroke="#000000" stroke-width="2" fill="none"/>
<line x1="354.0" y1="173.0" x2="354.0" y2="171.0" stroke="#000000" stroke-width="2" />
<line x1="591.0" y1="173.0" x2="591.0" y2="171.0" stroke="#000000" stroke-width="2" />
<line x1="327.0" y1="162.0" x2="341.0" y2="162.0" stroke="#000000" stroke-width="2" marker-end="url(#arrow)" />
<line x1="414.0" y1="62.0" x2="432.0" y2="62.0" stroke="#000000" stroke-width="2" />
<path d="M441.0,71.0 A9.0,9.0 0 0,0 432.0,62.0" stroke="#000000" stroke-width="2" fill="none"/>
<line x1="441.0" y1="71.0" x2="441.0" y2="92.0" stroke="#000000" stroke-width="2" marker-end="url(#arrow)" />
<line x1="441.0" y1="96.0" x2="441.0" y2="121.0" stroke="#000000" stroke-width="2" />
<path d="M432.0,130.0 A9.0,9.0 0 0,0 441.0,121.0" stroke="#000000" stroke-width="2" fill="none"/>
<line x1="432.0" y1="130.0" x2="329.0" y2="130.0" stroke="#000000" stroke-width="2" marker-end="url(#arrow)" />
<line x1="325.0" y1="130.0" x2="218" y2="130.0" stroke="#000000" stroke-width="2" />
<path d="M218.0,130.0 A9,9 0 0,0 209.0,139.0" stroke="#000000" stroke-width="2" fill="none"/>
<line x1="209" y1="139.0" x2="209" y2="153.0" stroke="#000000" stroke-width="2" />
<path d="M209.0,153.0 A9,9 0 0,0 218.0,162.0" stroke="#000000" stroke-width="2" fill="none"/>
<line x1="218" y1="162.0" x2="232.0" y2="162.0" stroke="#000000" stroke-width="2" marker-end="url(#arrow)" />
<line x1="12" y1="62.0" x2="26.0" y2="62.0" stroke="#000000" stroke-width="2" marker-end="url(#arrow)" />
<circle cx="620.0" cy="162.0" r="3.0" stroke="#000000" stroke-width="2" fill="#FFFFFF"/>
<line x1="599.0" y1="162.0" x2="613.0" y2="162.0" stroke="#000000" stroke-width="2" marker-end="url(#arrow)" />
<text class="title_font" x="83.5" y="30.0">text_field</text>
</svg>